%MOIN*%
%FSLAN2X24Y24*%
%ADD10C,0.0240000*%
%ADD11C,0.0010000*%
%ADD12C,0.0020000*%
%ADD13C,0.0030000*%
%ADD14C,0.0050000*%
%ADD15C,0.0060000*%
%ADD16C,0.0065000*%
%ADD17C,0.0078740*%
%ADD18C,0.0079921*%
%ADD19C,0.0080000*%
%ADD20C,0.0085000*%
%ADD21C,0.0100000*%
%ADD22C,0.0110000*%
%ADD23C,0.0112000*%
%ADD24C,0.0135000*%
%ADD25C,0.0140000*%
%ADD26C,0.0150000*%
%ADD27C,0.0156000*%
%ADD28C,0.0187000*%
%ADD29C,0.0200000*%
%ADD30C,0.0250000*%
%ADD31C,845.4660028*%
%ADD32R,0.0100000X0.0100000*%
%ADD33R,0.0120000X0.0120000*%
%ADD34R,0.0150000X0.0150000*%
%ADD35R,0.0200000X0.0200000*%
%ADD36C,0.0500000*%
%ADD37C,0.0600000*%
%ADD38C,0.0840000*%
%ADD39C,0.0900000*%
%ADD40C,0.1500000*%
%ADD41C,0.1750000*%
%ADD42C,0.1850000*%
%ADD43R,0.0510000X0.0120000*%
%ADD44R,0.0630000X0.0320000*%
%ADD45R,0.0358268X0.0358268*%
%ADD46R,0.0433071X0.0393701*%
%ADD47R,0.0730000X0.0420000*%
%ADD48R,0.0393701X0.0433071*%
%ADD49R,0.0438268X0.0438268*%
%ADD50R,0.0513071X0.0473701*%
%ADD51R,0.0473701X0.0513071*%
%ADD52R,0.0870000X0.0630000*%
%ADD53R,0.0320000X0.0630000*%
%ADD54R,0.0236220X0.0669291*%
%ADD55R,0.1062992X0.0708661*%
%ADD56R,0.0970000X0.0730000*%
%ADD57R,0.0420000X0.0730000*%
%ADD58R,0.0316220X0.0749291*%
%ADD59R,0.0472441X0.0787402*%
%ADD60R,0.1142992X0.0788661*%
%ADD61R,0.0870000X0.0790000*%
%ADD62R,0.1180000X0.0830000*%
%ADD63R,0.0552441X0.0867402*%
%ADD64R,0.0350000X0.0870000*%
%ADD65R,0.0970000X0.0890000*%
%ADD66R,0.1280000X0.0930000*%
%ADD67R,0.0450000X0.0970000*%
%ADD68R,0.0629921X0.1023622*%
%ADD69R,0.0550000X0.1050000*%
%ADD70R,0.0709921X0.1103622*%
%ADD71R,0.0650000X0.1150000*%
%ADD72R,0.0830000X0.1180000*%
%ADD73R,0.0930000X0.1280000*%
G90*G70*G01*D02*G36*X19749Y14869D02*X19449D01*X19599Y15019*X19749Y14869*G37*
G54D11*X26450Y3800D02*X24550D01*Y5300*X24950Y5700*X26050*X26450Y5300*Y3800*
X26405Y4706D02*Y4794D01*X26396Y4883*X26379Y4970*X26353Y5055*X26319Y5137*
X26277Y5216*X26228Y5290*X26172Y5359*X26109Y5422*X26040Y5478*X25966Y5527*
X25887Y5569*X25805Y5603*X25720Y5629*X25633Y5646*X25544Y5655*X25456*X25367Y5646*
X25280Y5629*X25195Y5603*X25113Y5569*X25034Y5527*X24960Y5478*X24891Y5422*
X24828Y5359*X24772Y5290*X24723Y5216*X24681Y5137*X24647Y5055*X24621Y4970*
X24604Y4883*X24595Y4794*Y4706*X24604Y4617*X24621Y4530*X24647Y4445*X24681Y4363*
X24723Y4284*X24772Y4210*X24828Y4141*X24891Y4078*X24960Y4022*X25034Y3973*
X25113Y3931*X25195Y3897*X25280Y3871*X25367Y3854*X25456Y3845*X25544*X25633Y3854*
X25720Y3871*X25805Y3897*X25887Y3931*X25966Y3973*X26040Y4022*X26109Y4078*
X26172Y4141*X26228Y4210*X26277Y4284*X26319Y4363*X26353Y4445*X26379Y4530*
X26396Y4617*X26405Y4706*X30950Y3800D02*X29050D01*Y5300*X29450Y5700*X30550*
X30950Y5300*Y3800*X30905Y4706D02*Y4794D01*X30896Y4883*X30879Y4970*X30853Y5055*
X30819Y5137*X30777Y5216*X30728Y5290*X30672Y5359*X30609Y5422*X30540Y5478*
X30466Y5527*X30387Y5569*X30305Y5603*X30220Y5629*X30133Y5646*X30044Y5655*X29956*
X29867Y5646*X29780Y5629*X29695Y5603*X29613Y5569*X29534Y5527*X29460Y5478*
X29391Y5422*X29328Y5359*X29272Y5290*X29223Y5216*X29181Y5137*X29147Y5055*
X29121Y4970*X29104Y4883*X29095Y4794*Y4706*X29104Y4617*X29121Y4530*X29147Y4445*
X29181Y4363*X29223Y4284*X29272Y4210*X29328Y4141*X29391Y4078*X29460Y4022*
X29534Y3973*X29613Y3931*X29695Y3897*X29780Y3871*X29867Y3854*X29956Y3845*X30044*
X30133Y3854*X30220Y3871*X30305Y3897*X30387Y3931*X30466Y3973*X30540Y4022*
X30609Y4078*X30672Y4141*X30728Y4210*X30777Y4284*X30819Y4363*X30853Y4445*
X30879Y4530*X30896Y4617*X30905Y4706*X37700Y3800D02*X35800D01*Y5300*X36200Y5700*
X37300*X37700Y5300*Y3800*X37655Y4706D02*Y4794D01*X37646Y4883*X37629Y4970*
X37603Y5055*X37569Y5137*X37527Y5216*X37478Y5290*X37422Y5359*X37359Y5422*
X37290Y5478*X37216Y5527*X37137Y5569*X37055Y5603*X36970Y5629*X36883Y5646*
X36794Y5655*X36706*X36617Y5646*X36530Y5629*X36445Y5603*X36363Y5569*X36284Y5527*
X36210Y5478*X36141Y5422*X36078Y5359*X36022Y5290*X35973Y5216*X35931Y5137*
X35897Y5055*X35871Y4970*X35854Y4883*X35845Y4794*Y4706*X35854Y4617*X35871Y4530*
X35897Y4445*X35931Y4363*X35973Y4284*X36022Y4210*X36078Y4141*X36141Y4078*
X36210Y4022*X36284Y3973*X36363Y3931*X36445Y3897*X36530Y3871*X36617Y3854*
X36706Y3845*X36794*X36883Y3854*X36970Y3871*X37055Y3897*X37137Y3931*X37216Y3973*
X37290Y4022*X37359Y4078*X37422Y4141*X37478Y4210*X37527Y4284*X37569Y4363*
X37603Y4445*X37629Y4530*X37646Y4617*X37655Y4706*X35450Y3800D02*X33550D01*Y5300*
X33950Y5700*X35050*X35450Y5300*Y3800*X35405Y4706D02*Y4794D01*X35396Y4883*
X35379Y4970*X35353Y5055*X35319Y5137*X35277Y5216*X35228Y5290*X35172Y5359*
X35109Y5422*X35040Y5478*X34966Y5527*X34887Y5569*X34805Y5603*X34720Y5629*
X34633Y5646*X34544Y5655*X34456*X34367Y5646*X34280Y5629*X34195Y5603*X34113Y5569*
X34034Y5527*X33960Y5478*X33891Y5422*X33828Y5359*X33772Y5290*X33723Y5216*
X33681Y5137*X33647Y5055*X33621Y4970*X33604Y4883*X33595Y4794*Y4706*X33604Y4617*
X33621Y4530*X33647Y4445*X33681Y4363*X33723Y4284*X33772Y4210*X33828Y4141*
X33891Y4078*X33960Y4022*X34034Y3973*X34113Y3931*X34195Y3897*X34280Y3871*
X34367Y3854*X34456Y3845*X34544*X34633Y3854*X34720Y3871*X34805Y3897*X34887Y3931*
X34966Y3973*X35040Y4022*X35109Y4078*X35172Y4141*X35228Y4210*X35277Y4284*
X35319Y4363*X35353Y4445*X35379Y4530*X35396Y4617*X35405Y4706*X39950Y3800D02*
X38050D01*Y5300*X38450Y5700*X39550*X39950Y5300*Y3800*X39905Y4706D02*Y4794D01*
X39896Y4883*X39879Y4970*X39853Y5055*X39819Y5137*X39777Y5216*X39728Y5290*
X39672Y5359*X39609Y5422*X39540Y5478*X39466Y5527*X39387Y5569*X39305Y5603*
X39220Y5629*X39133Y5646*X39044Y5655*X38956*X38867Y5646*X38780Y5629*X38695Y5603*
X38613Y5569*X38534Y5527*X38460Y5478*X38391Y5422*X38328Y5359*X38272Y5290*
X38223Y5216*X38181Y5137*X38147Y5055*X38121Y4970*X38104Y4883*X38095Y4794*Y4706*
X38104Y4617*X38121Y4530*X38147Y4445*X38181Y4363*X38223Y4284*X38272Y4210*
X38328Y4141*X38391Y4078*X38460Y4022*X38534Y3973*X38613Y3931*X38695Y3897*
X38780Y3871*X38867Y3854*X38956Y3845*X39044*X39133Y3854*X39220Y3871*X39305Y3897*
X39387Y3931*X39466Y3973*X39540Y4022*X39609Y4078*X39672Y4141*X39728Y4210*
X39777Y4284*X39819Y4363*X39853Y4445*X39879Y4530*X39896Y4617*X39905Y4706*
X28700Y3800D02*X26800D01*Y5300*X27200Y5700*X28300*X28700Y5300*Y3800*
X28655Y4706D02*Y4794D01*X28646Y4883*X28629Y4970*X28603Y5055*X28569Y5137*
X28527Y5216*X28478Y5290*X28422Y5359*X28359Y5422*X28290Y5478*X28216Y5527*
X28137Y5569*X28055Y5603*X27970Y5629*X27883Y5646*X27794Y5655*X27706*X27617Y5646*
X27530Y5629*X27445Y5603*X27363Y5569*X27284Y5527*X27210Y5478*X27141Y5422*
X27078Y5359*X27022Y5290*X26973Y5216*X26931Y5137*X26897Y5055*X26871Y4970*
X26854Y4883*X26845Y4794*Y4706*X26854Y4617*X26871Y4530*X26897Y4445*X26931Y4363*
X26973Y4284*X27022Y4210*X27078Y4141*X27141Y4078*X27210Y4022*X27284Y3973*
X27363Y3931*X27445Y3897*X27530Y3871*X27617Y3854*X27706Y3845*X27794*X27883Y3854*
X27970Y3871*X28055Y3897*X28137Y3931*X28216Y3973*X28290Y4022*X28359Y4078*
X28422Y4141*X28478Y4210*X28527Y4284*X28569Y4363*X28603Y4445*X28629Y4530*
X28646Y4617*X28655Y4706*X33200Y3800D02*X31300D01*Y5300*X31700Y5700*X32800*
X33200Y5300*Y3800*X33155Y4706D02*Y4794D01*X33146Y4883*X33129Y4970*X33103Y5055*
X33069Y5137*X33027Y5216*X32978Y5290*X32922Y5359*X32859Y5422*X32790Y5478*
X32716Y5527*X32637Y5569*X32555Y5603*X32470Y5629*X32383Y5646*X32294Y5655*X32206*
X32117Y5646*X32030Y5629*X31945Y5603*X31863Y5569*X31784Y5527*X31710Y5478*
X31641Y5422*X31578Y5359*X31522Y5290*X31473Y5216*X31431Y5137*X31397Y5055*
X31371Y4970*X31354Y4883*X31345Y4794*Y4706*X31354Y4617*X31371Y4530*X31397Y4445*
X31431Y4363*X31473Y4284*X31522Y4210*X31578Y4141*X31641Y4078*X31710Y4022*
X31784Y3973*X31863Y3931*X31945Y3897*X32030Y3871*X32117Y3854*X32206Y3845*X32294*
X32383Y3854*X32470Y3871*X32555Y3897*X32637Y3931*X32716Y3973*X32790Y4022*
X32859Y4078*X32922Y4141*X32978Y4210*X33027Y4284*X33069Y4363*X33103Y4445*
X33129Y4530*X33146Y4617*X33155Y4706*X42200Y3800D02*X40300D01*Y5300*X40700Y5700*
X41800*X42200Y5300*Y3800*X42155Y4706D02*Y4794D01*X42146Y4883*X42129Y4970*
X42103Y5055*X42069Y5137*X42027Y5216*X41978Y5290*X41922Y5359*X41859Y5422*
X41790Y5478*X41716Y5527*X41637Y5569*X41555Y5603*X41470Y5629*X41383Y5646*
X41294Y5655*X41206*X41117Y5646*X41030Y5629*X40945Y5603*X40863Y5569*X40784Y5527*
X40710Y5478*X40641Y5422*X40578Y5359*X40522Y5290*X40473Y5216*X40431Y5137*
X40397Y5055*X40371Y4970*X40354Y4883*X40345Y4794*Y4706*X40354Y4617*X40371Y4530*
X40397Y4445*X40431Y4363*X40473Y4284*X40522Y4210*X40578Y4141*X40641Y4078*
X40710Y4022*X40784Y3973*X40863Y3931*X40945Y3897*X41030Y3871*X41117Y3854*
X41206Y3845*X41294*X41383Y3854*X41470Y3871*X41555Y3897*X41637Y3931*X41716Y3973*
X41790Y4022*X41859Y4078*X41922Y4141*X41978Y4210*X42027Y4284*X42069Y4363*
X42103Y4445*X42129Y4530*X42146Y4617*X42155Y4706*X66575Y10325D02*X66925D01*Y9675*
X66575*Y10325*X60325Y4575D02*X60675D01*Y3925*X60325*Y4575*X23680Y2890D02*
X24320D01*Y1610*X23680*Y2890*Y2870D02*X24320D01*X23680Y2850D02*X24320D01*
X43025Y9075D02*Y7925D01*X42475*Y9075*X43025*G54D14*X16339Y4664D02*X15589D01*
Y12344*X16339*D02*X18189D01*Y4664*X16339*G54D13*X18189Y11424D02*X18449D01*Y5584*
X18189*G54D11*X18899Y14869D02*X20149D01*Y13469*X5749*Y14869*X18899*G54D14*
X15896Y1713D02*X17550D01*X16050Y1711D02*Y1121D01*X16290*Y1041*X17160*Y1711*
X17550Y3387D02*Y1713D01*X16050Y3389D02*Y3979D01*X16290*Y4059*X17160*Y3379*
X15896Y3387D02*X17550D01*X15896D02*Y1713D01*X53047Y9904D02*X46453D01*X53047D02*
Y8250D01*D02*X46453D01*Y9904D02*Y8250D01*X46450Y9750D02*X45860D01*Y9510*X45780*
Y8640*X46450*X53050Y9750D02*X53640D01*Y9510*X53720*Y8640*X53040*G54D11*
X20675Y2525D02*X21825D01*Y1975*X20675*Y2525*X67325Y10325D02*X67675D01*Y9675*
X67325*Y10325*X59575Y4575D02*X59925D01*Y3925*X59575*Y4575*X20000Y1500D02*
X19000D01*Y3500*X20000*Y1500*X22925Y1925D02*X22575D01*Y2575*X22925*Y1925*
X65825Y10325D02*X66175D01*Y9675*X65825*Y10325*X58825Y4575D02*X59175D01*Y3925*
X58825*Y4575*X22075Y9175D02*Y8825D01*X21425*Y9175*X22075*Y9925D02*Y9575D01*
X21425*Y9925*X22075*Y10675D02*Y10325D01*X21425*Y10675*X22075*Y11425D02*
Y11075D01*X21425*Y11425*X22075*Y12175D02*Y11825D01*X21425*Y12175*X22075*
Y12925D02*Y12575D01*X21425*Y12925*X22075*Y13675D02*Y13325D01*X21425*Y13675*
X22075*Y14425D02*Y14075D01*X21425*Y14425*X22075*G54D13*X25538Y4827D02*
X25553Y4855D01*X25585Y4882*X25614Y4900*X25675*X25704Y4882*X25733Y4855*
X25749Y4827*X25763Y4786*Y4714*X25749Y4673*X25733Y4641*X25704Y4614*X25675Y4600*
X25614*X25585Y4614*X25553Y4641*X25538Y4673*X25375Y4841D02*X25357Y4855D01*
X25330Y4895*Y4600*X30038Y4827D02*X30053Y4855D01*X30085Y4882*X30114Y4900*X30175*
X30204Y4882*X30233Y4855*X30249Y4827*X30263Y4786*Y4714*X30249Y4673*X30233Y4641*
X30204Y4614*X30175Y4600*X30114*X30085Y4614*X30053Y4641*X30038Y4673*
X29947Y4827D02*Y4841D01*X29931Y4868*X29915Y4882*X29884Y4900*X29819*X29787Y4882*
X29771Y4868*X29756Y4841*Y4814*X29771Y4786*X29803Y4741*X29963Y4600*X29738*
X36788Y4827D02*X36803Y4855D01*X36835Y4882*X36864Y4900*X36925*X36954Y4882*
X36983Y4855*X36999Y4827*X37013Y4786*Y4714*X36999Y4673*X36983Y4641*X36954Y4614*
X36925Y4600*X36864*X36835Y4614*X36803Y4641*X36788Y4673*X36681Y4895D02*X36506D01*
X36602Y4782*X36553*X36521Y4768*X36506Y4755*X36488Y4714*Y4682*X36506Y4641*
X36537Y4614*X36584Y4600*X36634*X36681Y4614*X36697Y4627*X36713Y4655*
X34538Y4827D02*X34553Y4855D01*X34585Y4882*X34614Y4900*X34675*X34704Y4882*
X34733Y4855*X34749Y4827*X34763Y4786*Y4714*X34749Y4673*X34733Y4641*X34704Y4614*
X34675Y4600*X34614*X34585Y4614*X34553Y4641*X34538Y4673*X34314Y4895D02*Y4600D01*
Y4895D02*X34463Y4700D01*X34238*X39038Y4827D02*X39053Y4855D01*X39085Y4882*
X39114Y4900*X39175*X39204Y4882*X39233Y4855*X39249Y4827*X39263Y4786*Y4714*
X39249Y4673*X39233Y4641*X39204Y4614*X39175Y4600*X39114*X39085Y4614*X39053Y4641*
X39038Y4673*X38771Y4895D02*X38931D01*X38947Y4768*X38931Y4782*X38884Y4795*X38837*
X38787Y4782*X38756Y4755*X38738Y4714*Y4682*X38756Y4641*X38787Y4614*X38837Y4600*
X38884*X38931Y4614*X38947Y4627*X38963Y4655*X27788Y4827D02*X27803Y4855D01*
X27835Y4882*X27864Y4900*X27925*X27954Y4882*X27983Y4855*X27999Y4827*X28013Y4786*
Y4714*X27999Y4673*X27983Y4641*X27954Y4614*X27925Y4600*X27864*X27835Y4614*
X27803Y4641*X27788Y4673*X27506Y4855D02*X27524Y4882D01*X27575Y4895*X27609*
X27661Y4882*X27697Y4841*X27713Y4768*Y4700*X27697Y4641*X27661Y4614*X27609Y4600*
X27593*X27542Y4614*X27506Y4641*X27488Y4682*Y4700*X27506Y4741*X27542Y4768*
X27593Y4782*X27609*X27661Y4768*X27697Y4741*X27713Y4700*X32288Y4827D02*
X32303Y4855D01*X32335Y4882*X32364Y4900*X32425*X32454Y4882*X32483Y4855*
X32499Y4827*X32513Y4786*Y4714*X32499Y4673*X32483Y4641*X32454Y4614*X32425Y4600*
X32364*X32335Y4614*X32303Y4641*X32288Y4673*X32213Y4895D02*X31988D01*X32150Y4600*
X41288Y4827D02*X41303Y4855D01*X41335Y4882*X41364Y4900*X41425*X41454Y4882*
X41483Y4855*X41499Y4827*X41513Y4786*Y4714*X41499Y4673*X41483Y4641*X41454Y4614*
X41425Y4600*X41364*X41335Y4614*X41303Y4641*X41288Y4673*X41134Y4895D02*
X41181Y4882D01*X41197Y4855*Y4827*X41181Y4795*X41150Y4782*X41084Y4768*
X41037Y4755*X41006Y4727*X40988Y4700*Y4655*X41006Y4627*X41021Y4614*X41069Y4600*
X41134*X41181Y4614*X41197Y4627*X41213Y4655*Y4700*X41197Y4727*X41165Y4755*
X41118Y4768*X41053Y4782*X41021Y4795*X41006Y4827*Y4855*X41021Y4882*X41069Y4895*
X41134*X65963Y9923D02*X65947Y9895D01*X65915Y9868*X65886Y9850*X65825*X65796Y9868*
X65767Y9895*X65751Y9923*X65738Y9964*Y10036*X65751Y10077*X65767Y10109*
X65796Y10136*X65825Y10150*X65886*X65915Y10136*X65947Y10109*X65963Y10077*
X66263Y9950D02*X66245Y9995D01*X66211Y10023*X66157Y10036*X66141*X66089Y10023*
X66053Y9995*X66038Y9950*Y9936*X66053Y9895*X66089Y9868*X66141Y9855*X66157*
X66211Y9868*X66245Y9895*X66263Y9950*Y10023*X66245Y10095*X66211Y10136*
X66157Y10150*X66123*X66071Y10136*X66053Y10109*X59438Y4173D02*X59422Y4145D01*
X59390Y4118*X59361Y4100*X59300*X59271Y4118*X59242Y4145*X59226Y4173*X59213Y4214*
Y4286*X59226Y4327*X59242Y4359*X59271Y4386*X59300Y4400*X59361*X59390Y4386*
X59422Y4359*X59438Y4327*X59600Y4159D02*X59618Y4145D01*X59645Y4105*Y4400*
X59909Y4105D02*X59860Y4118D01*X59828Y4159*X59813Y4232*Y4273*X59828Y4345*
X59860Y4386*X59909Y4400*X59941*X59988Y4386*X60020Y4345*X60038Y4273*Y4232*
X60020Y4159*X59988Y4118*X59941Y4105*X59909*X23813Y2173D02*X23797Y2145D01*
X23765Y2118*X23736Y2100*X23675*X23646Y2118*X23617Y2145*X23601Y2173*X23588Y2214*
Y2286*X23601Y2327*X23617Y2359*X23646Y2386*X23675Y2400*X23736*X23765Y2386*
X23797Y2359*X23813Y2327*X23975Y2159D02*X23993Y2145D01*X24020Y2105*Y2400*
X24275Y2159D02*X24293Y2145D01*X24320Y2105*Y2400*G54D17*X24354Y3294D02*X24945D01*
X24650Y2960D02*Y3628D01*G54D13*X43013Y7650D02*X42900D01*X42853Y7632*X42821Y7605*
X42806Y7577*X42788Y7536*Y7464*X42806Y7423*X42821Y7391*X42853Y7364*X42900Y7350*
X43013*Y7650*X42625Y7591D02*X42607Y7605D01*X42580Y7645*Y7350*X16790Y8650D02*
Y8423D01*X16812Y8377*X16835Y8364*X16878Y8350*X16925*X16968Y8364*X16990Y8377*
X17013Y8423*Y8450*X16625Y8591D02*X16607Y8605D01*X16580Y8645*Y8350*
X12909Y14019D02*Y14247D01*X12887Y14292*X12864Y14306*X12821Y14319*X12774*
X12731Y14306*X12709Y14292*X12686Y14247*Y14219*X13002Y14092D02*Y14078D01*
X13018Y14051*X13034Y14037*X13065Y14019*X13130*X13162Y14037*X13178Y14051*
X13193Y14078*Y14106*X13178Y14133*X13146Y14178*X12986Y14319*X13211*
X16790Y2650D02*Y2423D01*X16812Y2377*X16835Y2364*X16878Y2350*X16925*X16968Y2364*
X16990Y2377*X17013Y2423*Y2450*X16681Y2645D02*X16506D01*X16602Y2532*X16553*
X16521Y2518*X16506Y2505*X16488Y2464*Y2432*X16506Y2391*X16537Y2364*X16584Y2350*
X16634*X16681Y2364*X16697Y2377*X16713Y2405*X49790Y8790D02*Y8563D01*X49812Y8517*
X49835Y8504*X49878Y8490*X49925*X49968Y8504*X49990Y8517*X50013Y8563*Y8590*
X49521Y8785D02*X49681D01*X49697Y8658*X49681Y8672*X49634Y8685*X49587*X49537Y8672*
X49506Y8645*X49488Y8604*Y8572*X49506Y8531*X49537Y8504*X49587Y8490*X49634*
X49681Y8504*X49697Y8517*X49713Y8545*X21387Y2155D02*X21303Y2073D01*
X21429Y2400D02*X21456Y2382D01*X21486Y2355*X21499Y2327*X21513Y2286*Y2214*
X21499Y2173*X21486Y2141*X21456Y2114*X21429Y2100*X21373*X21346Y2114*X21317Y2141*
X21303Y2173*X21288Y2214*Y2286*X21303Y2327*X21317Y2355*X21346Y2382*X21373Y2400*
X21429*X21197Y2327D02*Y2341D01*X21181Y2368*X21165Y2382*X21134Y2400*X21069*
X21037Y2382*X21021Y2368*X21006Y2341*Y2314*X21021Y2286*X21053Y2241*X21213Y2100*
X20988*X66488Y10150D02*Y9850D01*X66632*X66679Y9868*X66695Y9882*X66713Y9909*
Y9936*X66695Y9964*X66679Y9982*X66632Y9995*X66488*X66598D02*X66713Y10150D01*
X66875Y9909D02*X66893Y9895D01*X66920Y9855*Y10150*X58613Y4400D02*Y4100D01*X58757*
X58804Y4118*X58820Y4132*X58838Y4159*Y4186*X58820Y4214*X58804Y4232*X58757Y4245*
X58613*X58723D02*X58838Y4400D01*X58928Y4173D02*Y4159D01*X58944Y4132*X58960Y4118*
X58991Y4100*X59057*X59088Y4118*X59104Y4132*X59120Y4159*Y4186*X59104Y4214*
X59072Y4259*X58913Y4400*X59138*X19650Y2763D02*X19350D01*Y2619*X19368Y2571*
X19382Y2556*X19409Y2538*X19436*X19464Y2556*X19482Y2571*X19495Y2619*Y2763*
Y2652D02*X19650Y2538D01*X19355Y2431D02*Y2256D01*X19468Y2352*Y2303*X19482Y2271*
X19495Y2256*X19536Y2238*X19568*X19609Y2256*X19636Y2287*X19650Y2334*Y2384*
X19636Y2431*X19623Y2447*X19595Y2463*X21738Y2400D02*Y2100D01*X21882*X21929Y2118*
X21945Y2132*X21963Y2159*Y2186*X21945Y2214*X21929Y2232*X21882Y2245*X21738*
X21848D02*X21963Y2400D01*X22186Y2105D02*Y2400D01*Y2105D02*X22038Y2300D01*X22263*
X64988Y10150D02*Y9850D01*X65132*X65179Y9868*X65195Y9882*X65213Y9909*Y9936*
X65195Y9964*X65179Y9982*X65132Y9995*X64988*X65098D02*X65213Y10150D01*
X65479Y9855D02*X65319D01*X65303Y9982*X65319Y9968*X65366Y9955*X65414*X65463Y9968*
X65495Y9995*X65513Y10036*Y10068*X65495Y10109*X65463Y10136*X65414Y10150*X65366*
X65319Y10136*X65303Y10123*X65288Y10095*X57863Y4400D02*Y4100D01*X58007*
X58054Y4118*X58070Y4132*X58088Y4159*Y4186*X58070Y4214*X58054Y4232*X58007Y4245*
X57863*X57973D02*X58088Y4400D01*X58370Y4145D02*X58352Y4118D01*X58300Y4105*
X58266*X58214Y4118*X58178Y4159*X58163Y4232*Y4300*X58178Y4359*X58214Y4386*
X58266Y4400*X58282*X58334Y4386*X58370Y4359*X58388Y4318*Y4300*X58370Y4259*
X58334Y4232*X58282Y4218*X58266*X58214Y4232*X58178Y4259*X58163Y4300*
X21900Y10288D02*X21600D01*Y10144*X21618Y10096*X21632Y10081*X21659Y10063*X21686*
X21714Y10081*X21732Y10096*X21745Y10144*Y10288*Y10177D02*X21900Y10063D01*
X21659Y9900D02*X21645Y9882D01*X21605Y9855*X21900*X21659Y9600D02*X21645Y9582D01*
X21605Y9555*X21900*Y11038D02*X21600D01*Y10894*X21618Y10846*X21632Y10831*
X21659Y10813*X21686*X21714Y10831*X21732Y10846*X21745Y10894*Y11038*Y10927D02*
X21900Y10813D01*X21659Y10650D02*X21645Y10632D01*X21605Y10605*X21900*
X21673Y10422D02*X21659D01*X21632Y10406*X21618Y10390*X21600Y10359*Y10294*
X21618Y10262*X21632Y10246*X21659Y10231*X21686*X21714Y10246*X21759Y10278*
X21900Y10438*Y10213*Y11788D02*X21600D01*Y11644*X21618Y11596*X21632Y11581*
X21659Y11563*X21686*X21714Y11581*X21732Y11596*X21745Y11644*Y11788*Y11677D02*
X21900Y11563D01*X21659Y11400D02*X21645Y11382D01*X21605Y11355*X21900*
X21605Y11156D02*Y10981D01*X21718Y11077*Y11028*X21732Y10996*X21745Y10981*
X21786Y10963*X21818*X21859Y10981*X21886Y11012*X21900Y11059*Y11109*X21886Y11156*
X21873Y11172*X21845Y11188*X21900Y12538D02*X21600D01*Y12394*X21618Y12346*
X21632Y12331*X21659Y12313*X21686*X21714Y12331*X21732Y12346*X21745Y12394*Y12538*
Y12427D02*X21900Y12313D01*X21659Y12150D02*X21645Y12132D01*X21605Y12105*X21900*
X21605Y11789D02*X21900D01*X21605D02*X21800Y11938D01*Y11713*X21900Y13288D02*
X21600D01*Y13144*X21618Y13096*X21632Y13081*X21659Y13063*X21686*X21714Y13081*
X21732Y13096*X21745Y13144*Y13288*Y13177D02*X21900Y13063D01*X21659Y12900D02*
X21645Y12882D01*X21605Y12855*X21900*X21605Y12496D02*Y12656D01*X21732Y12672*
X21718Y12656*X21705Y12609*Y12562*X21718Y12512*X21745Y12481*X21786Y12463*X21818*
X21859Y12481*X21886Y12512*X21900Y12562*Y12609*X21886Y12656*X21873Y12672*
X21845Y12688*X21900Y14038D02*X21600D01*Y13894*X21618Y13846*X21632Y13831*
X21659Y13813*X21686*X21714Y13831*X21732Y13846*X21745Y13894*Y14038*Y13927D02*
X21900Y13813D01*X21659Y13650D02*X21645Y13632D01*X21605Y13605*X21900*
X21645Y13231D02*X21618Y13249D01*X21605Y13300*Y13334*X21618Y13386*X21659Y13422*
X21732Y13438*X21800*X21859Y13422*X21886Y13386*X21900Y13334*Y13318*X21886Y13267*
X21859Y13231*X21818Y13213*X21800*X21759Y13231*X21732Y13267*X21718Y13318*Y13334*
X21732Y13386*X21759Y13422*X21800Y13438*X21900Y14788D02*X21600D01*Y14644*
X21618Y14596*X21632Y14581*X21659Y14563*X21686*X21714Y14581*X21732Y14596*
X21745Y14644*Y14788*Y14677D02*X21900Y14563D01*X21659Y14400D02*X21645Y14382D01*
X21605Y14355*X21900*X21605Y14188D02*Y13963D01*X21900Y14125*Y15538D02*X21600D01*
Y15394*X21618Y15346*X21632Y15331*X21659Y15313*X21686*X21714Y15331*X21732Y15346*
X21745Y15394*Y15538*Y15427D02*X21900Y15313D01*X21659Y15150D02*X21645Y15132D01*
X21605Y15105*X21900*X21605Y14859D02*X21618Y14906D01*X21645Y14922*X21673*
X21705Y14906*X21718Y14875*X21732Y14809*X21745Y14762*X21773Y14731*X21800Y14713*
X21845*X21873Y14731*X21886Y14746*X21900Y14794*Y14859*X21886Y14906*X21873Y14922*
X21845Y14938*X21800*X21773Y14922*X21745Y14890*X21732Y14843*X21718Y14778*
X21705Y14746*X21673Y14731*X21645*X21618Y14746*X21605Y14794*Y14859*G54D21*
X54125Y-2000D02*X54875D01*Y-3000*Y-2485D02*X54418D01*X53875Y-2000D02*Y-2712D01*
X53823Y-2864*X53718Y-2955*X53553Y-3000*X53448*X53290Y-2955*X53185Y-2864*
X53125Y-2712*Y-2000*X52875D02*Y-3000D01*X52125*X51875Y-2000D02*Y-3000D01*X51125*
X50875D02*Y-2000D01*X50395*X50238Y-2061*X50185Y-2106*X50125Y-2197*Y-2333*
X50185Y-2439*X50238Y-2485*X50395Y-2530*X50875*X49875Y-2000D02*Y-3000D01*X49125*
X48740Y-2667D02*X48268D01*X48875Y-3000D02*X48508Y-2000D01*X48125Y-3000*
X47125Y-2000D02*X47500Y-2485D01*X47875Y-2000D02*X47500Y-2485D01*Y-3000*
X45583Y-2197D02*X45523Y-2152D01*X45433Y-2015*Y-3000*X44553Y-2015D02*
X44718Y-2061D01*X44823Y-2197*X44875Y-2439*Y-2576*X44823Y-2818*X44718Y-2955*
X44553Y-3000*X44448*X44290Y-2955*X44185Y-2818*X44125Y-2576*Y-2439*X44185Y-2197*
X44290Y-2061*X44448Y-2015*X44553*X43553D02*X43718Y-2061D01*X43823Y-2197*
X43875Y-2439*Y-2576*X43823Y-2818*X43718Y-2955*X43553Y-3000*X43448*X43290Y-2955*
X43185Y-2818*X43125Y-2576*Y-2439*X43185Y-2197*X43290Y-2061*X43448Y-2015*X43553*
X42875Y-2576D02*X42125D01*X41553Y-2015D02*X41718Y-2061D01*X41823Y-2197*
X41875Y-2439*Y-2576*X41823Y-2818*X41718Y-2955*X41553Y-3000*X41448*X41290Y-2955*
X41185Y-2818*X41125Y-2576*Y-2439*X41185Y-2197*X41290Y-2061*X41448Y-2015*X41553*
X40553D02*X40718Y-2061D01*X40823Y-2197*X40875Y-2439*Y-2576*X40823Y-2818*
X40718Y-2955*X40553Y-3000*X40448*X40290Y-2955*X40185Y-2818*X40125Y-2576*Y-2439*
X40185Y-2197*X40290Y-2061*X40448Y-2015*X40553*X39583Y-2197D02*X39523Y-2152D01*
X39433Y-2015*Y-3000*X38125Y-2333D02*X38185Y-2485D01*X38298Y-2576*X38478Y-2621*
X38530*X38703Y-2576*X38823Y-2485*X38875Y-2333*Y-2288*X38823Y-2152*X38703Y-2061*
X38530Y-2015*X38478*X38298Y-2061*X38185Y-2152*X38125Y-2333*Y-2576*X38185Y-2818*
X38298Y-2955*X38478Y-3000*X38590*X38763Y-2955*X38823Y-2864*X37875Y-2576D02*
X37125D01*X36553Y-2015D02*X36718Y-2061D01*X36823Y-2197*X36875Y-2439*Y-2576*
X36823Y-2818*X36718Y-2955*X36553Y-3000*X36448*X36290Y-2955*X36185Y-2818*
X36125Y-2576*Y-2439*X36185Y-2197*X36290Y-2061*X36448Y-2015*X36553*X35380D02*
Y-3000D01*Y-2015D02*X35875Y-2667D01*X35125*X33875Y-3000D02*Y-2000D01*X33395*
X33238Y-2061*X33185Y-2106*X33125Y-2197*Y-2333*X33185Y-2439*X33238Y-2485*
X33395Y-2530*X33875*X32875Y-2000D02*X32695Y-3000D01*X32508Y-2379*X32320Y-3000*
X32125Y-2000*X31875Y-2485D02*X31395D01*X31238Y-2530*X31185Y-2576*X31125Y-2667*
Y-2818*X31185Y-2909*X31238Y-2955*X31395Y-3000*X31875*Y-2000*X31395*X31238Y-2061*
X31185Y-2106*X31125Y-2197*Y-2288*X31185Y-2379*X31238Y-2439*X31395Y-2485*
X29740Y-2667D02*X29268D01*X29875Y-3000D02*X29508Y-2000D01*X29125Y-3000*
X28125Y-2152D02*X28238Y-2061D01*X28395Y-2000*X28613*X28770Y-2061*X28875Y-2152*
Y-2242*X28823Y-2333*X28770Y-2379*X28665Y-2439*X28343Y-2530*X28238Y-2576*
X28185Y-2621*X28125Y-2712*Y-2864*X28238Y-2955*X28395Y-3000*X28613*X28770Y-2955*
X28875Y-2864*X27125Y-2152D02*X27238Y-2061D01*X27395Y-2000*X27613*X27770Y-2061*
X27875Y-2152*Y-2242*X27823Y-2333*X27770Y-2379*X27665Y-2439*X27343Y-2530*
X27238Y-2576*X27185Y-2621*X27125Y-2712*Y-2864*X27238Y-2955*X27395Y-3000*X27613*
X27770Y-2955*X27875Y-2864*X26125Y-2000D02*X26875D01*Y-3000*X26125*
X26875Y-2485D02*X26418D01*X25875Y-3000D02*Y-2000D01*X25500Y-3000*X25125Y-2000*
Y-3000*X24875Y-2485D02*X24395D01*X24238Y-2530*X24185Y-2576*X24125Y-2667*Y-2818*
X24185Y-2909*X24238Y-2955*X24395Y-3000*X24875*Y-2000*X24395*X24238Y-2061*
X24185Y-2106*X24125Y-2197*Y-2288*X24185Y-2379*X24238Y-2439*X24395Y-2485*
X23875Y-2000D02*Y-3000D01*X23125*X22125Y-2000D02*X22500Y-2485D01*
X22875Y-2000D02*X22500Y-2485D01*Y-3000*X20875Y-2485D02*X20395D01*X20238Y-2530*
X20185Y-2576*X20125Y-2667*Y-2818*X20185Y-2909*X20238Y-2955*X20395Y-3000*X20875*
Y-2000*X20395*X20238Y-2061*X20185Y-2106*X20125Y-2197*Y-2288*X20185Y-2379*
X20238Y-2439*X20395Y-2485*X19598Y-2000D02*X19688Y-2061D01*X19785Y-2152*
X19830Y-2242*X19875Y-2379*Y-2621*X19830Y-2758*X19785Y-2864*X19688Y-2955*
X19598Y-3000*X19410*X19320Y-2955*X19223Y-2864*X19178Y-2758*X19125Y-2621*Y-2379*
X19178Y-2242*X19223Y-2152*X19320Y-2061*X19410Y-2000*X19598*X18875D02*X18125D01*
X18500D02*Y-3000D01*X17875Y-2000D02*X17125D01*X17500D02*Y-3000D01*
X16598Y-2000D02*X16688Y-2061D01*X16785Y-2152*X16830Y-2242*X16875Y-2379*Y-2621*
X16830Y-2758*X16785Y-2864*X16688Y-2955*X16598Y-3000*X16410*X16320Y-2955*
X16223Y-2864*X16178Y-2758*X16125Y-2621*Y-2379*X16178Y-2242*X16223Y-2152*
X16320Y-2061*X16410Y-2000*X16598*X15875Y-3000D02*Y-2000D01*X15500Y-3000*
X15125Y-2000*Y-3000*M02*
