%MOIN*%
%FSLAN2X24Y24*%
%ADD10C,0.0240000*%
%ADD11C,0.0010000*%
%ADD12C,0.0020000*%
%ADD13C,0.0030000*%
%ADD14C,0.0050000*%
%ADD15C,0.0060000*%
%ADD16C,0.0065000*%
%ADD17C,0.0078740*%
%ADD18C,0.0079921*%
%ADD19C,0.0080000*%
%ADD20C,0.0085000*%
%ADD21C,0.0100000*%
%ADD22C,0.0110000*%
%ADD23C,0.0112000*%
%ADD24C,0.0135000*%
%ADD25C,0.0140000*%
%ADD26C,0.0150000*%
%ADD27C,0.0156000*%
%ADD28C,0.0187000*%
%ADD29C,0.0200000*%
%ADD30C,0.0250000*%
%ADD31C,845.4660028*%
%ADD32R,0.0100000X0.0100000*%
%ADD33R,0.0120000X0.0120000*%
%ADD34R,0.0150000X0.0150000*%
%ADD35R,0.0200000X0.0200000*%
%ADD36C,0.0500000*%
%ADD37C,0.0600000*%
%ADD38C,0.0840000*%
%ADD39C,0.0900000*%
%ADD40C,0.1500000*%
%ADD41C,0.1750000*%
%ADD42C,0.1850000*%
%ADD43R,0.0510000X0.0120000*%
%ADD44R,0.0630000X0.0320000*%
%ADD45R,0.0358268X0.0358268*%
%ADD46R,0.0433071X0.0393701*%
%ADD47R,0.0730000X0.0420000*%
%ADD48R,0.0393701X0.0433071*%
%ADD49R,0.0438268X0.0438268*%
%ADD50R,0.0513071X0.0473701*%
%ADD51R,0.0473701X0.0513071*%
%ADD52R,0.0870000X0.0630000*%
%ADD53R,0.0320000X0.0630000*%
%ADD54R,0.0236220X0.0669291*%
%ADD55R,0.1062992X0.0708661*%
%ADD56R,0.0970000X0.0730000*%
%ADD57R,0.0420000X0.0730000*%
%ADD58R,0.0316220X0.0749291*%
%ADD59R,0.0472441X0.0787402*%
%ADD60R,0.1142992X0.0788661*%
%ADD61R,0.0870000X0.0790000*%
%ADD62R,0.1180000X0.0830000*%
%ADD63R,0.0552441X0.0867402*%
%ADD64R,0.0350000X0.0870000*%
%ADD65R,0.0970000X0.0890000*%
%ADD66R,0.1280000X0.0930000*%
%ADD67R,0.0450000X0.0970000*%
%ADD68R,0.0629921X0.1023622*%
%ADD69R,0.0550000X0.1050000*%
%ADD70R,0.0709921X0.1103622*%
%ADD71R,0.0650000X0.1150000*%
%ADD72R,0.0830000X0.1180000*%
%ADD73R,0.0930000X0.1280000*%
G90*G70*G01*D02*G54D15*X66100Y6650D02*X67100D01*Y5650*X66100*Y6650*G54D14*
X6024Y16500D02*Y14100D01*X3424Y16500D02*Y14100D01*X6024D02*X3424D01*
X6024Y16500D02*X3424D01*G54D13*X5674Y16800D02*X5374D01*X5674Y13800D02*X5374D01*
X4074Y16800D02*X3774D01*X5024Y13800D02*X4424D01*X4074D02*X3774D01*X5024D02*
Y14100D01*X4424Y13800D02*Y14100D01*X5674Y16800D02*Y16500D01*Y14100D02*Y13800D01*
X5374Y16800D02*Y16500D01*Y14100D02*Y13800D01*X4074Y16800D02*Y16500D01*Y14100D02*
Y13800D01*X3774Y16800D02*Y16500D01*Y14100D02*Y13800D01*X4784Y14700D02*X4665D01*
X4549Y14723*X4440Y14768*X4342Y14834*X4258Y14918*X4193Y15016*X4147Y15125*
X4124Y15241*Y15359*X4147Y15475*X4193Y15584*X4258Y15682*X4342Y15766*X4440Y15832*
X4549Y15877*X4665Y15900*X4784*X4899Y15877*X5009Y15832*X5107Y15766*X5190Y15682*
X5256Y15584*X5301Y15475*X5324Y15359*Y15241*X5301Y15125*X5256Y15016*X5190Y14918*
X5107Y14834*X5009Y14768*X4899Y14723*X4784Y14700*G54D14*X63898Y16550D02*
Y14150D01*X61298Y16550D02*Y14150D01*X63898D02*X61298D01*X63898Y16550D02*
X61298D01*G54D13*X63548Y16850D02*X63248D01*X63548Y13850D02*X63248D01*
X61948Y16850D02*X61648D01*X62898Y13850D02*X62298D01*X61948D02*X61648D01*
X62898D02*Y14150D01*X62298Y13850D02*Y14150D01*X63548Y16850D02*Y16550D01*
Y14150D02*Y13850D01*X63248Y16850D02*Y16550D01*Y14150D02*Y13850D01*
X61948Y16850D02*Y16550D01*Y14150D02*Y13850D01*X61648Y16850D02*Y16550D01*
Y14150D02*Y13850D01*X62658Y14750D02*X62539D01*X62423Y14773*X62314Y14818*
X62216Y14884*X62132Y14968*X62067Y15066*X62021Y15175*X61998Y15291*Y15409*
X62021Y15525*X62067Y15634*X62132Y15732*X62216Y15816*X62314Y15882*X62423Y15927*
X62539Y15950*X62658*X62773Y15927*X62883Y15882*X62981Y15816*X63064Y15732*
X63130Y15634*X63175Y15525*X63198Y15409*Y15291*X63175Y15175*X63130Y15066*
X63064Y14968*X62981Y14884*X62883Y14818*X62773Y14773*X62658Y14750*G54D14*
X64607Y10448D02*Y8048D01*X62007Y10448D02*Y8048D01*X64607D02*X62007D01*
X64607Y10448D02*X62007D01*G54D13*X64257Y10748D02*X63957D01*X64257Y7748D02*
X63957D01*X62657Y10748D02*X62357D01*X63607Y7748D02*X63007D01*X62657D02*
X62357D01*X63607D02*Y8048D01*X63007Y7748D02*Y8048D01*X64257Y10748D02*Y10448D01*
Y8048D02*Y7748D01*X63957Y10748D02*Y10448D01*Y8048D02*Y7748D01*X62657Y10748D02*
Y10448D01*Y8048D02*Y7748D01*X62357Y10748D02*Y10448D01*Y8048D02*Y7748D01*
X63366Y8648D02*X63248D01*X63132Y8671*X63023Y8716*X62925Y8782*X62841Y8866*
X62775Y8964*X62730Y9073*X62707Y9189*Y9307*X62730Y9423*X62775Y9532*X62841Y9631*
X62925Y9714*X63023Y9780*X63132Y9825*X63248Y9848*X63366*X63482Y9825*X63591Y9780*
X63690Y9714*X63773Y9631*X63839Y9532*X63884Y9423*X63907Y9307*Y9189*X63884Y9073*
X63839Y8964*X63773Y8866*X63690Y8782*X63591Y8716*X63482Y8671*X63366Y8648*G54D14*
X70906Y10448D02*Y8048D01*X68306Y10448D02*Y8048D01*X70906D02*X68306D01*
X70906Y10448D02*X68306D01*G54D13*X70556Y10748D02*X70256D01*X70556Y7748D02*
X70256D01*X68956Y10748D02*X68656D01*X69906Y7748D02*X69306D01*X68956D02*
X68656D01*X69906D02*Y8048D01*X69306Y7748D02*Y8048D01*X70556Y10748D02*Y10448D01*
Y8048D02*Y7748D01*X70256Y10748D02*Y10448D01*Y8048D02*Y7748D01*X68956Y10748D02*
Y10448D01*Y8048D02*Y7748D01*X68656Y10748D02*Y10448D01*Y8048D02*Y7748D01*
X69665Y8648D02*X69547D01*X69431Y8671*X69322Y8716*X69224Y8782*X69140Y8866*
X69075Y8964*X69029Y9073*X69006Y9189*Y9307*X69029Y9423*X69075Y9532*X69140Y9631*
X69224Y9714*X69322Y9780*X69431Y9825*X69547Y9848*X69665*X69781Y9825*X69891Y9780*
X69989Y9714*X70072Y9631*X70138Y9532*X70183Y9423*X70206Y9307*Y9189*X70183Y9073*
X70138Y8964*X70072Y8866*X69989Y8782*X69891Y8716*X69781Y8671*X69665Y8648*G54D14*
X6024Y4346D02*Y1946D01*X3424Y4346D02*Y1946D01*X6024D02*X3424D01*X6024Y4346D02*
X3424D01*G54D13*X5674Y4646D02*X5374D01*X5674Y1646D02*X5374D01*X4074Y4646D02*
X3774D01*X5024Y1646D02*X4424D01*X4074D02*X3774D01*X5024D02*Y1946D01*
X4424Y1646D02*Y1946D01*X5674Y4646D02*Y4346D01*Y1946D02*Y1646D01*X5374Y4646D02*
Y4346D01*Y1946D02*Y1646D01*X4074Y4646D02*Y4346D01*Y1946D02*Y1646D01*
X3774Y4646D02*Y4346D01*Y1946D02*Y1646D01*X4784Y2546D02*X4665D01*X4549Y2569*
X4440Y2614*X4342Y2680*X4258Y2763*X4193Y2861*X4147Y2971*X4124Y3087*Y3205*
X4147Y3321*X4193Y3430*X4258Y3528*X4342Y3612*X4440Y3677*X4549Y3723*X4665Y3746*
X4784*X4899Y3723*X5009Y3677*X5107Y3612*X5190Y3528*X5256Y3430*X5301Y3321*
X5324Y3205*Y3087*X5301Y2971*X5256Y2861*X5190Y2763*X5107Y2680*X5009Y2614*
X4899Y2569*X4784Y2546*G54D14*X63898Y4346D02*Y1946D01*X61298Y4346D02*Y1946D01*
X63898D02*X61298D01*X63898Y4346D02*X61298D01*G54D13*X63548Y4646D02*X63248D01*
X63548Y1646D02*X63248D01*X61948Y4646D02*X61648D01*X62898Y1646D02*X62298D01*
X61948D02*X61648D01*X62898D02*Y1946D01*X62298Y1646D02*Y1946D01*X63548Y4646D02*
Y4346D01*Y1946D02*Y1646D01*X63248Y4646D02*Y4346D01*Y1946D02*Y1646D01*
X61948Y4646D02*Y4346D01*Y1946D02*Y1646D01*X61648Y4646D02*Y4346D01*Y1946D02*
Y1646D01*X62658Y2546D02*X62539D01*X62423Y2569*X62314Y2614*X62216Y2680*
X62132Y2763*X62067Y2861*X62021Y2971*X61998Y3087*Y3205*X62021Y3321*X62067Y3430*
X62132Y3528*X62216Y3612*X62314Y3677*X62423Y3723*X62539Y3746*X62658*X62773Y3723*
X62883Y3677*X62981Y3612*X63064Y3528*X63130Y3430*X63175Y3321*X63198Y3205*Y3087*
X63175Y2971*X63130Y2861*X63064Y2763*X62981Y2680*X62883Y2614*X62773Y2569*
X62658Y2546*X54145Y7917D02*Y8020D01*X54165Y8120*X54205Y8215*X54261Y8300*
X54334Y8372*X54419Y8429*X54514Y8469*X54614Y8489*X54717*X54817Y8469*X54912Y8429*
X54997Y8372*X55069Y8300*X55126Y8215*X55165Y8120*X55185Y8020*Y7917*X55165Y7817*
X55126Y7722*X55069Y7637*X54997Y7565*X54912Y7508*X54817Y7468*X54717Y7449*X54614*
X54514Y7468*X54419Y7508*X54334Y7565*X54261Y7637*X54205Y7722*X54165Y7817*
X54145Y7917*G54D14*X56240Y9069D02*Y6979D01*X55755Y7069D02*X53575D01*
X56240Y6979D02*X55755D01*Y7069D02*Y6979D01*X53090Y9069D02*Y6979D01*X53575D02*
X53090D01*X53575Y7069D02*Y6979D01*X55755Y8919D02*X53575D01*Y9069D02*X53090D01*
X53575D02*Y8919D01*X56240Y9069D02*X55755D01*D02*Y8919D01*X56665Y5825D02*
Y4245D01*X52665Y5825D02*Y4245D01*D02*X56665D01*X53665D02*X53710Y4112D01*
X53828Y3936*X53978Y3786*X54155Y3668*X54351Y3586*X54559Y3545*X54771*X54979Y3586*
X55175Y3668*X55352Y3786*X55502Y3936*X55620Y4112*X55665Y4245*X52665Y5825D02*
X56665D01*X52720Y8994D02*X55910D01*X52720D02*Y5964D01*D02*X55910D01*Y8994D02*
Y5964D01*G54D13*X54565Y7969D02*Y8069D01*X54765*Y7869*X54565*Y7969*G54D19*
X66538Y6400D02*X66163D01*Y5900*X66538*X66163Y6158D02*X66391D01*X66689Y6279D02*
Y6302D01*X66715Y6347*X66741Y6370*X66794Y6400*X66903*X66955Y6370*X66981Y6347*
X67008Y6302*Y6256*X66981Y6211*X66929Y6135*X66663Y5900*X67038*G54D13*
X4687Y15405D02*X4653Y15432D01*X4606Y15450*X4541*X4493Y15432*X4462Y15405*Y15377*
X4478Y15350*X4493Y15336*X4525Y15318*X4622Y15291*X4653Y15277*X4669Y15264*
X4687Y15236*Y15191*X4653Y15164*X4606Y15150*X4541*X4493Y15164*X4462Y15191*
X4850Y15391D02*X4868Y15405D01*X4895Y15445*Y15150*X62561Y15455D02*
X62527Y15482D01*X62480Y15500*X62415*X62367Y15482*X62336Y15455*Y15427*
X62352Y15400*X62367Y15386*X62399Y15368*X62496Y15341*X62527Y15327*X62543Y15314*
X62561Y15286*Y15241*X62527Y15214*X62480Y15200*X62415*X62367Y15214*X62336Y15241*
X62652Y15427D02*Y15441D01*X62667Y15468*X62683Y15482*X62715Y15500*X62780*
X62811Y15482*X62827Y15468*X62843Y15441*Y15414*X62827Y15386*X62796Y15341*
X62636Y15200*X62861*X63270Y9353D02*X63236Y9380D01*X63189Y9398*X63123*
X63076Y9380*X63045Y9353*Y9325*X63060Y9298*X63076Y9284*X63108Y9266*X63204Y9239*
X63236Y9225*X63252Y9212*X63270Y9184*Y9139*X63236Y9112*X63189Y9098*X63123*
X63076Y9112*X63045Y9139*X63376Y9393D02*X63552D01*X63455Y9280*X63504*X63536Y9266*
X63552Y9253*X63570Y9212*Y9180*X63552Y9139*X63520Y9112*X63473Y9098*X63423*
X63376Y9112*X63360Y9125*X63345Y9153*X69569Y9353D02*X69535Y9380D01*X69488Y9398*
X69423*X69375Y9380*X69344Y9353*Y9325*X69360Y9298*X69375Y9284*X69407Y9266*
X69504Y9239*X69535Y9225*X69551Y9212*X69569Y9184*Y9139*X69535Y9112*X69488Y9098*
X69423*X69375Y9112*X69344Y9139*X69792Y9393D02*Y9098D01*Y9393D02*X69644Y9198D01*
X69869*X4687Y3250D02*X4653Y3277D01*X4606Y3296*X4541*X4493Y3277*X4462Y3250*Y3223*
X4478Y3196*X4493Y3182*X4525Y3164*X4622Y3137*X4653Y3123*X4669Y3109*X4687Y3082*
Y3037*X4653Y3009*X4606Y2996*X4541*X4493Y3009*X4462Y3037*X4953Y3291D02*X4793D01*
X4778Y3164*X4793Y3177*X4841Y3191*X4888*X4937Y3177*X4969Y3150*X4987Y3109*Y3077*
X4969Y3037*X4937Y3009*X4888Y2996*X4841*X4793Y3009*X4778Y3023*X4762Y3050*
X62561Y3250D02*X62527Y3277D01*X62480Y3296*X62415*X62367Y3277*X62336Y3250*Y3223*
X62352Y3196*X62367Y3182*X62399Y3164*X62496Y3137*X62527Y3123*X62543Y3109*
X62561Y3082*Y3037*X62527Y3009*X62480Y2996*X62415*X62367Y3009*X62336Y3037*
X62843Y3250D02*X62825Y3277D01*X62773Y3291*X62739*X62688Y3277*X62652Y3237*
X62636Y3164*Y3096*X62652Y3037*X62688Y3009*X62739Y2996*X62755*X62807Y3009*
X62843Y3037*X62861Y3077*Y3096*X62843Y3137*X62807Y3164*X62755Y3177*X62739*
X62688Y3164*X62652Y3137*X62636Y3096*X53613Y8775D02*Y8561D01*X53628Y8516*
X53660Y8489*X53709Y8475*X53741*X53788Y8489*X53820Y8516*X53838Y8561*Y8775*
X54000Y8716D02*X54018Y8730D01*X54045Y8770*Y8475*X54403Y5185D02*Y4971D01*
X54418Y4926*X54450Y4899*X54499Y4885*X54531*X54578Y4899*X54610Y4926*X54628Y4971*
Y5185*X54718Y5112D02*Y5126D01*X54734Y5153*X54750Y5167*X54781Y5185*X54847*
X54878Y5167*X54894Y5153*X54910Y5126*Y5099*X54894Y5071*X54862Y5026*X54703Y4885*
X54928*X54213Y6900D02*Y6686D01*X54228Y6641*X54260Y6614*X54309Y6600*X54341*
X54388Y6614*X54420Y6641*X54438Y6686*Y6900*X54528Y6827D02*Y6841D01*X54544Y6868*
X54560Y6882*X54591Y6900*X54657*X54688Y6882*X54704Y6868*X54720Y6841*Y6814*
X54704Y6786*X54672Y6741*X54513Y6600*X54738*X54844Y6895D02*X55020D01*X54923Y6782*
X54972*X55004Y6768*X55020Y6755*X55038Y6714*Y6682*X55020Y6641*X54988Y6614*
X54941Y6600*X54891*X54844Y6614*X54828Y6627*X54813Y6655*G54D21*X17375Y-2000D02*
X16625D01*Y-3000*Y-2485D02*X17083D01*X17625Y-2000D02*Y-2712D01*X17678Y-2864*
X17783Y-2955*X17948Y-3000*X18053*X18210Y-2955*X18315Y-2864*X18375Y-2712*Y-2000*
X18625D02*Y-3000D01*X19375*X19625Y-2000D02*Y-3000D01*X20375*X20625D02*Y-2000D01*
X21105*X21263Y-2061*X21315Y-2106*X21375Y-2197*Y-2333*X21315Y-2439*X21263Y-2485*
X21105Y-2530*X20625*X21625Y-2000D02*Y-3000D01*X22375*X22760Y-2667D02*X23233D01*
X22625Y-3000D02*X22993Y-2000D01*X23375Y-3000*X24375Y-2000D02*X24000Y-2485D01*
X23625Y-2000D02*X24000Y-2485D01*Y-3000*X25918Y-2197D02*X25978Y-2152D01*
X26068Y-2015*Y-3000*X26948Y-2015D02*X26783Y-2061D01*X26678Y-2197*X26625Y-2439*
Y-2576*X26678Y-2818*X26783Y-2955*X26948Y-3000*X27053*X27210Y-2955*X27315Y-2818*
X27375Y-2576*Y-2439*X27315Y-2197*X27210Y-2061*X27053Y-2015*X26948*X27948D02*
X27783Y-2061D01*X27678Y-2197*X27625Y-2439*Y-2576*X27678Y-2818*X27783Y-2955*
X27948Y-3000*X28053*X28210Y-2955*X28315Y-2818*X28375Y-2576*Y-2439*X28315Y-2197*
X28210Y-2061*X28053Y-2015*X27948*X28625Y-2576D02*X29375D01*X29948Y-2015D02*
X29783Y-2061D01*X29678Y-2197*X29625Y-2439*Y-2576*X29678Y-2818*X29783Y-2955*
X29948Y-3000*X30053*X30210Y-2955*X30315Y-2818*X30375Y-2576*Y-2439*X30315Y-2197*
X30210Y-2061*X30053Y-2015*X29948*X30948D02*X30783Y-2061D01*X30678Y-2197*
X30625Y-2439*Y-2576*X30678Y-2818*X30783Y-2955*X30948Y-3000*X31053*X31210Y-2955*
X31315Y-2818*X31375Y-2576*Y-2439*X31315Y-2197*X31210Y-2061*X31053Y-2015*X30948*
X31918Y-2197D02*X31978Y-2152D01*X32068Y-2015*Y-3000*X33375Y-2333D02*
X33315Y-2485D01*X33203Y-2576*X33023Y-2621*X32970*X32798Y-2576*X32678Y-2485*
X32625Y-2333*Y-2288*X32678Y-2152*X32798Y-2061*X32970Y-2015*X33023*X33203Y-2061*
X33315Y-2152*X33375Y-2333*Y-2576*X33315Y-2818*X33203Y-2955*X33023Y-3000*X32910*
X32738Y-2955*X32678Y-2864*X33625Y-2576D02*X34375D01*X34948Y-2015D02*
X34783Y-2061D01*X34678Y-2197*X34625Y-2439*Y-2576*X34678Y-2818*X34783Y-2955*
X34948Y-3000*X35053*X35210Y-2955*X35315Y-2818*X35375Y-2576*Y-2439*X35315Y-2197*
X35210Y-2061*X35053Y-2015*X34948*X36120D02*Y-3000D01*Y-2015D02*X35625Y-2667D01*
X36375*X37625Y-3000D02*Y-2000D01*X38105*X38263Y-2061*X38315Y-2106*X38375Y-2197*
Y-2333*X38315Y-2439*X38263Y-2485*X38105Y-2530*X37625*X38625Y-2000D02*
X38805Y-3000D01*X38993Y-2379*X39180Y-3000*X39375Y-2000*X39625Y-2485D02*
X40105D01*X40263Y-2530*X40315Y-2576*X40375Y-2667*Y-2818*X40315Y-2909*
X40263Y-2955*X40105Y-3000*X39625*Y-2000*X40105*X40263Y-2061*X40315Y-2106*
X40375Y-2197*Y-2288*X40315Y-2379*X40263Y-2439*X40105Y-2485*X41760Y-2667D02*
X42233D01*X41625Y-3000D02*X41993Y-2000D01*X42375Y-3000*X43375Y-2152D02*
X43263Y-2061D01*X43105Y-2000*X42888*X42730Y-2061*X42625Y-2152*Y-2242*
X42678Y-2333*X42730Y-2379*X42835Y-2439*X43158Y-2530*X43263Y-2576*X43315Y-2621*
X43375Y-2712*Y-2864*X43263Y-2955*X43105Y-3000*X42888*X42730Y-2955*X42625Y-2864*
X44375Y-2152D02*X44263Y-2061D01*X44105Y-2000*X43888*X43730Y-2061*X43625Y-2152*
Y-2242*X43678Y-2333*X43730Y-2379*X43835Y-2439*X44158Y-2530*X44263Y-2576*
X44315Y-2621*X44375Y-2712*Y-2864*X44263Y-2955*X44105Y-3000*X43888*X43730Y-2955*
X43625Y-2864*X45375Y-2000D02*X44625D01*Y-3000*X45375*X44625Y-2485D02*X45083D01*
X45625Y-3000D02*Y-2000D01*X46000Y-3000*X46375Y-2000*Y-3000*X46625Y-2485D02*
X47105D01*X47263Y-2530*X47315Y-2576*X47375Y-2667*Y-2818*X47315Y-2909*
X47263Y-2955*X47105Y-3000*X46625*Y-2000*X47105*X47263Y-2061*X47315Y-2106*
X47375Y-2197*Y-2288*X47315Y-2379*X47263Y-2439*X47105Y-2485*X47625Y-2000D02*
Y-3000D01*X48375*X49375Y-2000D02*X49000Y-2485D01*X48625Y-2000D02*
X49000Y-2485D01*Y-3000*X50625Y-2000D02*X51375D01*X51000D02*Y-3000D01*
X51903Y-2000D02*X51813Y-2061D01*X51715Y-2152*X51670Y-2242*X51625Y-2379*Y-2621*
X51670Y-2758*X51715Y-2864*X51813Y-2955*X51903Y-3000*X52090*X52180Y-2955*
X52278Y-2864*X52323Y-2758*X52375Y-2621*Y-2379*X52323Y-2242*X52278Y-2152*
X52180Y-2061*X52090Y-2000*X51903*X52625Y-3000D02*Y-2000D01*X53105*X53263Y-2061*
X53315Y-2106*X53375Y-2197*Y-2333*X53315Y-2439*X53263Y-2485*X53105Y-2530*X52625*
G54D29*X148000Y-79000D02*Y-77500D01*X148720*X148956Y-77591*X149035Y-77659*
X149125Y-77795*Y-78000*X149035Y-78159*X148956Y-78227*X148720Y-78295*X148000*
X150625Y-77864D02*X150546Y-77727D01*X150389Y-77591*X150243Y-77500*X149939*
X149793Y-77591*X149646Y-77727*X149568Y-77864*X149500Y-78068*Y-78432*
X149568Y-78636*X149646Y-78795*X149793Y-78932*X149939Y-79000*X150243*
X150389Y-78932*X150546Y-78795*X150625Y-78636*X151000Y-78227D02*X151720D01*
X151956Y-78295*X152035Y-78364*X152125Y-78500*Y-78727*X152035Y-78864*
X151956Y-78932*X151720Y-79000*X151000*Y-77500*X151720*X151956Y-77591*
X152035Y-77659*X152125Y-77795*Y-77932*X152035Y-78068*X151956Y-78159*
X151720Y-78227*X154000Y-77500D02*X155125D01*X154563D02*Y-79000D01*
X155916Y-77500D02*X155781Y-77591D01*X155635Y-77727*X155568Y-77864*
X155500Y-78068*Y-78432*X155568Y-78636*X155635Y-78795*X155781Y-78932*
X155916Y-79000*X156198*X156333Y-78932*X156479Y-78795*X156546Y-78636*
X156625Y-78432*Y-78068*X156546Y-77864*X156479Y-77727*X156333Y-77591*
X156198Y-77500*X155916*X157000Y-79000D02*Y-77500D01*X157720*X157956Y-77591*
X158035Y-77659*X158125Y-77795*Y-78000*X158035Y-78159*X157956Y-78227*
X157720Y-78295*X157000*X160203Y-78500D02*X160911D01*X160000Y-79000D02*
X160551Y-77500D01*X161125Y-79000*X162625Y-77727D02*X162456Y-77591D01*
X162220Y-77500*X161894*X161658Y-77591*X161500Y-77727*Y-77864*X161579Y-78000*
X161658Y-78068*X161815Y-78159*X162299Y-78295*X162456Y-78364*X162535Y-78432*
X162625Y-78568*Y-78795*X162456Y-78932*X162220Y-79000*X161894*X161658Y-78932*
X161500Y-78795*X164125Y-77727D02*X163956Y-77591D01*X163720Y-77500*X163394*
X163158Y-77591*X163000Y-77727*Y-77864*X163079Y-78000*X163158Y-78068*
X163315Y-78159*X163799Y-78295*X163956Y-78364*X164035Y-78432*X164125Y-78568*
Y-78795*X163956Y-78932*X163720Y-79000*X163394*X163158Y-78932*X163000Y-78795*
X165625Y-77500D02*X165063Y-78227D01*X164500Y-77500D02*X165063Y-78227D01*Y-79000*
X166596Y-78932D02*X166551Y-79000D01*X166506Y-78932*X166551Y-78864*
X166596Y-78932*Y-79068*X166551Y-79205*X166506Y-79273*X169000Y-77500D02*
X169563D01*X169799Y-77591*X169956Y-77727*X170035Y-77864*X170125Y-78068*Y-78432*
X170035Y-78636*X169956Y-78795*X169799Y-78932*X169563Y-79000*X169000*Y-77500*
X171063D02*Y-79000D01*X170894Y-77500D02*X171231D01*X170894Y-79000D02*X171231D01*
X173125Y-77727D02*X172956Y-77591D01*X172720Y-77500*X172394*X172158Y-77591*
X172000Y-77727*Y-77864*X172079Y-78000*X172158Y-78068*X172315Y-78159*
X172799Y-78295*X172956Y-78364*X173035Y-78432*X173125Y-78568*Y-78795*
X172956Y-78932*X172720Y-79000*X172394*X172158Y-78932*X172000Y-78795*
X173500Y-79000D02*Y-77500D01*X174220*X174456Y-77591*X174535Y-77659*
X174625Y-77795*Y-78000*X174535Y-78159*X174456Y-78227*X174220Y-78295*X173500*
X175000Y-77500D02*Y-79000D01*X176125*X176703Y-78500D02*X177411D01*
X176500Y-79000D02*X177051Y-77500D01*X177625Y-79000*X179125Y-77500D02*
X178563Y-78227D01*X178000Y-77500D02*X178563Y-78227D01*Y-79000*X181000Y-77500D02*
Y-79000D01*X182125*X183625Y-77500D02*X182500D01*Y-79000*X183625*
X182500Y-78227D02*X183186D01*X185125Y-77500D02*X184000D01*Y-79000*Y-78227D02*
X184686D01*X185500Y-77500D02*X186625D01*X186063D02*Y-79000D01*X149000Y-82227D02*
X150125D01*Y-81500D02*Y-83000D01*X149000Y-81500D02*Y-83000D01*X150916Y-81500D02*
X150781Y-81591D01*X150635Y-81727*X150568Y-81864*X150500Y-82068*Y-82432*
X150568Y-82636*X150635Y-82795*X150781Y-82932*X150916Y-83000*X151198*
X151333Y-82932*X151479Y-82795*X151546Y-82636*X151625Y-82432*Y-82068*
X151546Y-81864*X151479Y-81727*X151333Y-81591*X151198Y-81500*X150916*
X152000Y-83000D02*Y-81500D01*X152563Y-83000*X153125Y-81500*Y-83000*
X154625Y-81500D02*X153500D01*Y-83000*X154625*X153500Y-82227D02*X154186D01*
X157625Y-81727D02*X157456Y-81591D01*X157220Y-81500*X156894*X156658Y-81591*
X156500Y-81727*Y-81864*X156579Y-82000*X156658Y-82068*X156815Y-82159*
X157299Y-82295*X157456Y-82364*X157535Y-82432*X157625Y-82568*Y-82795*
X157456Y-82932*X157220Y-83000*X156894*X156658Y-82932*X156500Y-82795*
X158000Y-81500D02*X159125D01*X158563D02*Y-83000D01*X160625Y-81500D02*X159500D01*
Y-83000*X160625*X159500Y-82227D02*X160186D01*X161000Y-83000D02*Y-81500D01*
X161720*X161956Y-81591*X162035Y-81659*X162125Y-81795*Y-81932*X162035Y-82068*
X161956Y-82159*X161720Y-82227*X161000*X161551D02*X162125Y-83000D01*
X163625Y-81500D02*X162500D01*Y-83000*X163625*X162500Y-82227D02*X163186D01*
X164416Y-81500D02*X164281Y-81591D01*X164135Y-81727*X164068Y-81864*
X164000Y-82068*Y-82432*X164068Y-82636*X164135Y-82795*X164281Y-82932*
X164416Y-83000*X164698*X164833Y-82932*X164979Y-82795*X165046Y-82636*
X165125Y-82432*Y-82068*X165046Y-81864*X164979Y-81727*X164833Y-81591*
X164698Y-81500*X164416*X167000Y-83000D02*Y-81500D01*X167720*X167956Y-81591*
X168035Y-81659*X168125Y-81795*Y-82000*X168035Y-82159*X167956Y-82227*
X167720Y-82295*X167000*X168500Y-83000D02*Y-81500D01*X169220*X169456Y-81591*
X169535Y-81659*X169625Y-81795*Y-81932*X169535Y-82068*X169456Y-82159*
X169220Y-82227*X168500*X169051D02*X169625Y-83000D01*X170416Y-81500D02*
X170281Y-81591D01*X170135Y-81727*X170068Y-81864*X170000Y-82068*Y-82432*
X170068Y-82636*X170135Y-82795*X170281Y-82932*X170416Y-83000*X170698*
X170833Y-82932*X170979Y-82795*X171046Y-82636*X171125Y-82432*Y-82068*
X171046Y-81864*X170979Y-81727*X170833Y-81591*X170698Y-81500*X170416*
X172625Y-81864D02*X172546Y-81727D01*X172389Y-81591*X172243Y-81500*X171939*
X171793Y-81591*X171646Y-81727*X171568Y-81864*X171500Y-82068*Y-82432*
X171568Y-82636*X171646Y-82795*X171793Y-82932*X171939Y-83000*X172243*
X172389Y-82932*X172546Y-82795*X172625Y-82636*Y-82432*X172243*X173000Y-83000D02*
Y-81500D01*X173720*X173956Y-81591*X174035Y-81659*X174125Y-81795*Y-81932*
X174035Y-82068*X173956Y-82159*X173720Y-82227*X173000*X173551D02*
X174125Y-83000D01*X174703Y-82500D02*X175411D01*X174500Y-83000D02*
X175051Y-81500D01*X175625Y-83000*X176000D02*Y-81500D01*X176563Y-83000*
X177125Y-81500*Y-83000*X178096Y-82932D02*X178051Y-83000D01*X178006Y-82932*
X178051Y-82864*X178096Y-82932*Y-83068*X178051Y-83205*X178006Y-83273*
X180500Y-81500D02*X181063D01*X181299Y-81591*X181456Y-81727*X181535Y-81864*
X181625Y-82068*Y-82432*X181535Y-82636*X181456Y-82795*X181299Y-82932*
X181063Y-83000*X180500*Y-81500*X183114D02*Y-82636D01*X183001Y-82864*
X182889Y-82932*X182675Y-83000*X182439*X182225Y-82932*X182113Y-82864*
X182000Y-82636*Y-82500*X183939Y-81795D02*X184029Y-81727D01*X184164Y-81523*
Y-83000*X155241Y-87637D02*X155361Y-87547D01*X155541Y-87274*Y-89243*
X157301Y-87274D02*X156971Y-87365D01*X156761Y-87637*X156656Y-88122*Y-88395*
X156761Y-88880*X156971Y-89153*X157301Y-89243*X157511*X157826Y-89153*
X158036Y-88880*X158156Y-88395*Y-88122*X158036Y-87637*X157826Y-87365*
X157511Y-87274*X157301*X159301D02*X158971Y-87365D01*X158761Y-87637*
X158656Y-88122*Y-88395*X158761Y-88880*X158971Y-89153*X159301Y-89243*X159511*
X159826Y-89153*X160036Y-88880*X160156Y-88395*Y-88122*X160036Y-87637*
X159826Y-87365*X159511Y-87274*X159301*X160656Y-88395D02*X162156D01*
X163301Y-87274D02*X162971Y-87365D01*X162761Y-87637*X162656Y-88122*Y-88395*
X162761Y-88880*X162971Y-89153*X163301Y-89243*X163511*X163826Y-89153*
X164036Y-88880*X164156Y-88395*Y-88122*X164036Y-87637*X163826Y-87365*
X163511Y-87274*X163301*X165301D02*X164971Y-87365D01*X164761Y-87637*
X164656Y-88122*Y-88395*X164761Y-88880*X164971Y-89153*X165301Y-89243*X165511*
X165826Y-89153*X166036Y-88880*X166156Y-88395*Y-88122*X166036Y-87637*
X165826Y-87365*X165511Y-87274*X165301*X167241Y-87637D02*X167361Y-87547D01*
X167541Y-87274*Y-89243*X170156Y-87910D02*X170036Y-88213D01*X169811Y-88395*
X169451Y-88486*X169346*X169001Y-88395*X168761Y-88213*X168656Y-87910*Y-87819*
X168761Y-87547*X169001Y-87365*X169346Y-87274*X169451*X169811Y-87365*
X170036Y-87547*X170156Y-87910*Y-88395*X170036Y-88880*X169811Y-89153*
X169451Y-89243*X169226*X168881Y-89153*X168761Y-88971*X170656Y-88395D02*
X172156D01*X173301Y-87274D02*X172971Y-87365D01*X172761Y-87637*X172656Y-88122*
Y-88395*X172761Y-88880*X172971Y-89153*X173301Y-89243*X173511*X173826Y-89153*
X174036Y-88880*X174156Y-88395*Y-88122*X174036Y-87637*X173826Y-87365*
X173511Y-87274*X173301*X174866D02*X176036D01*X175391Y-88031*X175721*
X175931Y-88122*X176036Y-88213*X176156Y-88486*Y-88698*X176036Y-88971*
X175826Y-89153*X175511Y-89243*X175181*X174866Y-89153*X174761Y-89062*
X174656Y-88880*G54D25*X180232Y-88082D02*X180316Y-88018D01*X180442Y-87827*
Y-89206*X185832Y-88082D02*X185916Y-88018D01*X186042Y-87827*Y-89206*M02*
