%MOIN*%
%FSLAN2X24Y24*%
%ADD10C,0.0240000*%
%ADD11C,0.0010000*%
%ADD12C,0.0020000*%
%ADD13C,0.0030000*%
%ADD14C,0.0050000*%
%ADD15C,0.0060000*%
%ADD16C,0.0065000*%
%ADD17C,0.0078740*%
%ADD18C,0.0079921*%
%ADD19C,0.0080000*%
%ADD20C,0.0085000*%
%ADD21C,0.0100000*%
%ADD22C,0.0110000*%
%ADD23C,0.0112000*%
%ADD24C,0.0135000*%
%ADD25C,0.0140000*%
%ADD26C,0.0150000*%
%ADD27C,0.0156000*%
%ADD28C,0.0187000*%
%ADD29C,0.0200000*%
%ADD30C,0.0250000*%
%ADD31C,845.4660028*%
%ADD32R,0.0100000X0.0100000*%
%ADD33R,0.0120000X0.0120000*%
%ADD34R,0.0150000X0.0150000*%
%ADD35R,0.0200000X0.0200000*%
%ADD36C,0.0500000*%
%ADD37C,0.0600000*%
%ADD38C,0.0840000*%
%ADD39C,0.0900000*%
%ADD40C,0.1500000*%
%ADD41C,0.1750000*%
%ADD42C,0.1850000*%
%ADD43R,0.0510000X0.0120000*%
%ADD44R,0.0630000X0.0320000*%
%ADD45R,0.0358268X0.0358268*%
%ADD46R,0.0433071X0.0393701*%
%ADD47R,0.0730000X0.0420000*%
%ADD48R,0.0393701X0.0433071*%
%ADD49R,0.0438268X0.0438268*%
%ADD50R,0.0513071X0.0473701*%
%ADD51R,0.0473701X0.0513071*%
%ADD52R,0.0870000X0.0630000*%
%ADD53R,0.0320000X0.0630000*%
%ADD54R,0.0236220X0.0669291*%
%ADD55R,0.1062992X0.0708661*%
%ADD56R,0.0970000X0.0730000*%
%ADD57R,0.0420000X0.0730000*%
%ADD58R,0.0316220X0.0749291*%
%ADD59R,0.0472441X0.0787402*%
%ADD60R,0.1142992X0.0788661*%
%ADD61R,0.0870000X0.0790000*%
%ADD62R,0.1180000X0.0830000*%
%ADD63R,0.0552441X0.0867402*%
%ADD64R,0.0350000X0.0870000*%
%ADD65R,0.0970000X0.0890000*%
%ADD66R,0.1280000X0.0930000*%
%ADD67R,0.0450000X0.0970000*%
%ADD68R,0.0629921X0.1023622*%
%ADD69R,0.0550000X0.1050000*%
%ADD70R,0.0709921X0.1103622*%
%ADD71R,0.0650000X0.1150000*%
%ADD72R,0.0830000X0.1180000*%
%ADD73R,0.0930000X0.1280000*%
G90*G70*G01*D02*G36*X18840Y12654D02*X18841Y12659D01*X18843Y12663*X18846Y12668*
X18849Y12671*X18853Y12674*X18858Y12676*X18863Y12677*X18867*X18872Y12676*
X18877Y12674*X18881Y12671*X19053Y12499*X19054Y12498*X19057Y12493*X19059Y12489*
X19060Y12484*Y12482*Y11028*X19059Y11023*X19057Y11018*X19054Y11014*X19051Y11011*
X19047Y11008*X19042Y11006*X19037Y11005*X19033*X19028Y11006*X19014Y11012*
X18972Y11020*X18938*X18936*X18931Y11021*X18927Y11023*X18922Y11026*X18921Y11027*
X18847Y11101*X18846Y11102*X18843Y11107*X18841Y11111*X18840Y11116*Y11118*Y12654*
G37*G36*X9730Y14170D02*X9728Y14166D01*X9725Y14162*X9722Y14158*X9718Y14155*
X9713Y14154*X9708Y14153*X9703*X9698Y14154*X9694Y14155*X9690Y14158*X9497Y14351*
X9496Y14352*X9493Y14357*X9491Y14361*X9490Y14366*Y14368*Y14987*X9491Y14992*
X9493Y14997*X9496Y15001*X9499Y15004*X9503Y15007*X9508Y15009*X9513Y15010*X9982*
X9984*X9989Y15009*X9993Y15007*X9998Y15004*X9999Y15003*X10742Y14260*X15896*
X15899*X15904Y14259*X15908Y14257*X15912Y14254*X15914Y14253*X16967Y13199*
X16969Y13198*X16972Y13193*X16974Y13189*X16975Y13184*Y13182*Y12681*X16974Y12676*
X16972Y12672*X16969Y12668*X16966Y12664*X16961Y12662*X16957Y12660*X16952Y12659*
X16947*X16942Y12660*X16938Y12662*X16934Y12664*X15558Y14040*X10268*X10266*
X10261Y14041*X10257Y14043*X10252Y14046*X10251Y14047*X10177Y14121*X10176Y14122*
X10173Y14127*X10171Y14131*X10170Y14136*Y14138*Y14172*X10162Y14214*X10145Y14254*
X10121Y14290*X10090Y14321*X10054Y14345*X10014Y14362*X9972Y14370*X9928*
X9886Y14362*X9846Y14345*X9810Y14321*X9779Y14290*X9755Y14254*X9738Y14214*
X9730Y14170*G37*G36*X47441Y16725D02*X47443D01*X52185*X52224Y16733*X52260Y16748*
X52293Y16770*X52321Y16798*X52343Y16830*X52358Y16867*X52365Y16906*Y18275*Y18277*
X52366Y18282*X52368Y18287*X52371Y18291*X52374Y18294*X52379Y18297*X52383Y18299*
X52388Y18300*X52390*X58978*Y7020*X58936Y7012*X58896Y6995*X58860Y6971*
X58829Y6940*X58805Y6904*X58788Y6864*X58780Y6822*Y6778*X58788Y6736*X58805Y6696*
X58829Y6660*X58853Y6636*X58854Y6634*X58857Y6630*X58859Y6626*X58860Y6621*Y6619*
Y5281*Y5279*X58859Y5274*X58857Y5270*X58854Y5266*X58853Y5264*X58829Y5240*
X58805Y5204*X58788Y5164*X58780Y5122*Y5078*X58788Y5036*X58805Y4996*X58829Y4960*
X58860Y4929*X58896Y4905*X58936Y4888*X58978Y4880*X59022*X59064Y4888*X59104Y4905*
X59140Y4929*X59171Y4960*X59195Y4996*X59212Y5036*X59220Y5078*Y5122*X59212Y5164*
X59195Y5204*X59171Y5240*X59147Y5264*X59146Y5266*X59143Y5270*X59141Y5274*
X59140Y5279*Y5281*Y6621*X59141Y6626*X59143Y6630*X59146Y6634*X59171Y6660*
X59195Y6696*X59212Y6736*X59220Y6778*Y6822*X59212Y6864*X59195Y6904*X59171Y6940*
X59140Y6971*X59104Y6995*X59064Y7012*X59022Y7020*X58978*Y18300*X60478*Y5320*
X60436Y5312*X60396Y5295*X60360Y5271*X60329Y5240*X60305Y5204*X60288Y5164*
X60280Y5122*Y5088*Y5086*X60279Y5081*X60277Y5077*X60274Y5072*X60273Y5071*
X59985Y4783*Y881*Y879*X59984Y874*X59982Y870*X59979Y866*X59978Y864*X59954Y840*
X59930Y804*X59913Y764*X59905Y722*Y678*X59913Y636*X59930Y596*X59954Y560*
X59985Y529*X60021Y505*X60061Y488*X60103Y480*X60147*X60189Y488*X60229Y505*
X60265Y529*X60296Y560*X60320Y596*X60337Y636*X60345Y678*Y722*X60337Y764*
X60320Y804*X60296Y840*X60272Y864*X60271Y866*X60268Y870*X60266Y874*X60265Y879*
Y881*Y4657*Y4659*X60266Y4664*X60268Y4668*X60271Y4673*X60272Y4674*X60472Y4874*
X60477Y4877*X60481Y4879*X60486Y4880*X60522*X60564Y4888*X60604Y4905*X60640Y4929*
X60671Y4960*X60695Y4996*X60712Y5036*X60720Y5078*Y5122*X60712Y5164*X60695Y5204*
X60671Y5240*X60640Y5271*X60604Y5295*X60564Y5312*X60522Y5320*X60478*Y18300*
X61423*Y17300*Y16050*Y14650*Y13400*X61633*X61636*X61641Y13399*X61645Y13397*
X61649Y13394*X61653Y13391*X61656Y13387*X61657Y13382*X61658Y13377*Y13375*Y13168*
Y13166*X61657Y13161*X61656Y13157*X61653Y13152*X61651Y13151*X61260Y12760*Y6492*
X61373Y6379*X61374Y6378*X61377Y6373*X61379Y6369*X61380Y6364*Y6362*Y6328*
X61388Y6286*X61405Y6246*X61423Y6218*Y5096*Y3846*X62173*Y5096*X61423*Y6218*
X61429Y6210*X61460Y6179*X61496Y6155*X61536Y6138*X61578Y6130*X61598*X61600*
X61605Y6129*X61609Y6127*X61613Y6124*X61615Y6123*X62441Y5297*X62443Y5295*
X62446Y5291*X62447Y5286*X62448Y5282*Y5279*Y3572*Y3570*X62447Y3565*X62446Y3561*
X62443Y3557*X62441Y3555*X61648Y2762*Y2471*Y2468*X61647Y2463*X61646Y2459*
X61643Y2455*X61639Y2451*X61635Y2449*X61631Y2447*X61626Y2446*X61623*X61423*Y1196*
X63225*X63230Y1195*X63234Y1193*X63239Y1190*X63242Y1187*X63245Y1183*X63247Y1178*
X63248Y1173*Y1168*X63247Y1163*X63245Y1159*X63242Y1155*X63228Y1140*X63203Y1104*
X63187Y1064*X63178Y1022*Y978*X63187Y936*X63203Y896*X63228Y860*X63258Y829*
X63294Y805*X63334Y788*X63377Y780*X63420*X63463Y788*X63503Y805*X63539Y829*
X63569Y860*X63593Y896*X63610Y936*X63618Y978*Y1022*X63610Y1064*X63593Y1104*
X63569Y1140*X63555Y1155*X63552Y1159*X63550Y1163*X63549Y1168*Y1173*X63550Y1178*
X63552Y1183*X63555Y1187*X63558Y1190*X63562Y1193*X63567Y1195*X63572Y1196*X63773*
Y2446*X61973*X61971*X61966Y2447*X61962Y2449*X61958Y2451*X61954Y2455*X61951Y2459*
X61949Y2463*X61948Y2468*Y2471*Y2628*Y2630*X61949Y2635*X61951Y2639*X61954Y2643*
X61956Y2645*X62748Y3438*Y5414*X61827Y6335*X61826Y6337*X61823Y6341*X61821Y6345*
X61820Y6350*Y6352*Y6372*X61812Y6414*X61795Y6454*X61771Y6490*X61740Y6521*
X61704Y6545*X61664Y6562*X61622Y6570*X61588*X61586*X61581Y6571*X61577Y6573*
X61572Y6576*X61571Y6577*X61547Y6601*X61546Y6602*X61543Y6607*X61541Y6611*
X61540Y6616*Y6618*Y12633*Y12636*X61541Y12641*X61543Y12645*X61546Y12649*
X61547Y12651*X61938Y13042*Y13375*Y13377*X61939Y13382*X61941Y13387*X61944Y13391*
X61948Y13394*X61952Y13397*X61956Y13399*X61961Y13400*X61963*X62132*Y11198*Y9948*
X62882*Y11198*X62132*Y13400*X63732*Y11198*Y9948*X64482*Y11198*X63732*Y13400*
X63773*Y13852*X63774Y13857*X63776Y13862*X63779Y13866*X63782Y13869*X63787Y13872*
X63791Y13874*X63796Y13875*X63829*X63831*X63836Y13874*X63840Y13872*X63844Y13869*
X63846Y13868*X63860Y13854*X63896Y13830*X63936Y13813*X63978Y13805*X64012*X64014*
X64019Y13804*X64023Y13802*X64028Y13799*X64029Y13798*X65353Y12474*X65354Y12473*
X65357Y12468*X65359Y12464*X65360Y12459*Y12457*Y10521*Y10519*X65359Y10514*
X65357Y10510*X65354Y10506*X65353Y10504*X65329Y10480*X65305Y10444*X65288Y10404*
X65280Y10362*Y10318*X65288Y10276*X65305Y10236*X65329Y10200*X65353Y10176*
X65354Y10174*X65357Y10170*X65359Y10166*X65360Y10161*Y10159*Y8105*Y8102*
X65359Y8097*X65357Y8093*X65354Y8089*X65353Y8087*X65336Y8070*X65334Y8069*
X65330Y8066*X65326Y8064*X65321Y8063*X65319*X64507*X64505*X64500Y8064*
X64495Y8066*X64491Y8069*X64488Y8072*X64485Y8076*X64483Y8081*X64482Y8086*Y8088*
Y8548*X62132*Y8098*Y8096*X62131Y8091*X62129Y8086*X62126Y8082*X62123Y8079*
X62119Y8076*X62114Y8074*X62110Y8073*X62107*X62021*X62019*X62014Y8074*
X62010Y8076*X62006Y8079*X62004Y8080*X61990Y8094*X61954Y8118*X61914Y8135*
X61872Y8143*X61828*X61786Y8135*X61746Y8118*X61710Y8094*X61679Y8063*X61655Y8027*
X61638Y7987*X61630Y7945*Y7901*X61638Y7859*X61655Y7819*X61679Y7783*X61710Y7752*
X61746Y7728*X61786Y7711*X61828Y7703*X61872*X61914Y7711*X61954Y7728*X61990Y7752*
X62004Y7766*X62006Y7767*X62010Y7770*X62014Y7772*X62019Y7773*X62021*X62107*
X62110*X62114Y7772*X62119Y7770*X62123Y7767*X62126Y7764*X62129Y7760*X62131Y7755*
X62132Y7750*Y7748*Y7298*X63023*Y5096*Y3846*X63773*Y5096*X63023*Y7298*X64482*
Y7758*Y7760*X64483Y7765*X64485Y7770*X64488Y7774*X64491Y7777*X64495Y7780*
X64500Y7782*X64505Y7783*X64507*X65319*X65321*X65326Y7782*X65330Y7780*
X65334Y7777*X65336Y7776*X65360Y7752*X65396Y7728*X65436Y7711*X65478Y7703*X65522*
X65564Y7711*X65604Y7728*X65640Y7752*X65671Y7783*X65695Y7819*X65712Y7859*
X65720Y7901*Y7945*X65712Y7987*X65695Y8027*X65671Y8063*X65647Y8087*X65646Y8089*
X65643Y8093*X65641Y8097*X65640Y8102*Y8105*Y10159*Y10161*X65641Y10166*
X65643Y10170*X65646Y10174*X65647Y10176*X65671Y10200*X65695Y10236*X65712Y10276*
X65720Y10318*Y10362*X65712Y10404*X65695Y10444*X65671Y10480*X65647Y10504*
X65646Y10506*X65643Y10510*X65641Y10514*X65640Y10519*Y10521*Y12583*X64227Y13996*
X64226Y13997*X64223Y14002*X64221Y14006*X64220Y14011*Y14013*Y14047*X64212Y14089*
X64195Y14129*X64171Y14165*X64140Y14196*X64104Y14220*X64064Y14237*X64022Y14245*
X63978*X63936Y14237*X63896Y14220*X63860Y14196*X63844Y14181*X63840Y14178*
X63836Y14176*X63831Y14175*X63798*X63796*X63791Y14176*X63787Y14178*X63783Y14181*
X63779Y14184*X63776Y14188*X63774Y14193*X63773Y14198*Y14200*Y14650*X61423*Y16050*
X62173*Y17300*X61423*Y18300*X63023*Y17300*Y16050*X63773*Y17300*X63023*Y18300*
X66549*Y6670*X66448Y6650*X66354Y6611*X66269Y6554*X66196Y6481*X66139Y6396*
X66100Y6302*X66080Y6201*Y6099*X66100Y5998*X66139Y5904*X66196Y5819*X66269Y5746*
X66354Y5689*X66448Y5650*X66549Y5630*X66651*X66752Y5650*X66846Y5689*X66931Y5746*
X67004Y5819*X67061Y5904*X67100Y5998*X67120Y6099*Y6201*X67100Y6302*X67061Y6396*
X67004Y6481*X66931Y6554*X66846Y6611*X66752Y6650*X66651Y6670*X66549*Y18300*
X68226*Y15000*X68081Y14971*X67945Y14915*X67822Y14833*X67717Y14728*X67635Y14605*
X67579Y14469*X67550Y14324*Y14176*X67579Y14031*X67635Y13895*X67717Y13772*
X67822Y13667*X67945Y13585*X68081Y13529*X68226Y13500*X68374*X68431Y13511*Y11198*
Y9948*Y8548*Y8088*Y8086*X68430Y8081*X68428Y8076*X68426Y8072*X68422Y8069*
X68418Y8066*X68414Y8064*X68409Y8063*X68406*X68331*X68329*X68324Y8064*
X68320Y8066*X68316Y8069*X68314Y8070*X68290Y8094*X68254Y8118*X68214Y8135*
X68172Y8143*X68128*X68086Y8135*X68046Y8118*X68010Y8094*X67979Y8063*X67955Y8027*
X67938Y7987*X67930Y7945*Y7901*X67938Y7859*X67955Y7819*X67979Y7783*X68010Y7752*
X68046Y7728*X68086Y7711*X68128Y7703*X68172*X68214Y7711*X68226Y7716*Y5250*
X68081Y5221*X67945Y5165*X67822Y5083*X67717Y4978*X67635Y4855*X67579Y4719*
X67550Y4574*Y4426*X67579Y4281*X67635Y4145*X67717Y4022*X67822Y3917*X67945Y3835*
X68081Y3779*X68226Y3750*X68374*X68519Y3779*X68655Y3835*X68778Y3917*X68883Y4022*
X68965Y4145*X69021Y4281*X69050Y4426*Y4574*X69021Y4719*X68965Y4855*X68883Y4978*
X68778Y5083*X68655Y5165*X68519Y5221*X68374Y5250*X68226*Y7716*X68254Y7728*
X68290Y7752*X68314Y7776*X68316Y7777*X68320Y7780*X68324Y7782*X68329Y7783*X68331*
X68406*X68409*X68414Y7782*X68418Y7780*X68422Y7777*X68426Y7774*X68428Y7770*
X68430Y7765*X68431Y7760*Y7758*Y7298*X70213*X70218Y7297*X70222Y7295*X70226Y7292*
X70230Y7289*X70233Y7285*X70235Y7280*X70236Y7275*Y7271*X70235Y7266*X70233Y7261*
X70211Y7229*X70195Y7189*X70186Y7147*Y7103*X70195Y7061*X70211Y7021*X70235Y6985*
X70266Y6954*X70302Y6930*X70342Y6913*X70385Y6905*X70428*X70470Y6913*X70511Y6930*
X70547Y6954*X70577Y6985*X70601Y7021*X70618Y7061*X70626Y7103*Y7147*X70618Y7189*
X70601Y7229*X70580Y7261*X70578Y7266*X70577Y7271*Y7275*X70578Y7280*X70580Y7285*
X70583Y7289*X70586Y7292*X70590Y7295*X70595Y7297*X70600Y7298*X70781*Y8548*X68431*
Y9948*X69181*Y11198*X68431*Y13511*X68519Y13529*X68655Y13585*X68778Y13667*
X68883Y13772*X68965Y13895*X69021Y14031*X69050Y14176*Y14324*X69021Y14469*
X68965Y14605*X68883Y14728*X68778Y14833*X68655Y14915*X68519Y14971*X68374Y15000*
X68226*Y18300*X68467*X68469*X68474Y18299*X68479Y18297*X68483Y18294*X68484Y18293*
X70031Y16746*Y11198*Y9948*X70781*Y11198*X70031*Y16746*X70853Y15924*X70854Y15923*
X70857Y15919*X70859Y15914*X70860Y15909*Y15907*Y225*Y223*X70859Y218*X70857Y213*
X70854Y209*X70851Y206*X70847Y203*X70842Y201*X70837Y200*X70835*X225*X223*
X218Y201*X213Y203*X209Y206*X206Y209*X203Y213*X201Y218*X200Y223*Y225*Y18275*
Y18277*X201Y18282*X203Y18287*X206Y18291*X209Y18294*X213Y18297*X218Y18299*
X223Y18300*X225*X1926*Y5250*X1781Y5221*X1645Y5165*X1522Y5083*X1417Y4978*
X1335Y4855*X1279Y4719*X1250Y4574*Y4426*X1279Y4281*X1335Y4145*X1417Y4022*
X1522Y3917*X1645Y3835*X1781Y3779*X1926Y3750*X2074*X2219Y3779*X2355Y3835*
X2478Y3917*X2583Y4022*X2665Y4145*X2721Y4281*X2750Y4426*Y4574*X2721Y4719*
X2665Y4855*X2583Y4978*X2478Y5083*X2355Y5165*X2219Y5221*X2074Y5250*X1926*Y18300*
X3549*Y17250*Y16000*X4299*Y17250*X3549*Y18300*X5149*Y17250*Y16000*X5899*Y17250*
X5149*Y18300*X7792*Y17290*X5949Y15447*X5948Y15446*X5943Y15443*X5939Y15441*
X5934Y15440*X5932*X4633*X4631*X4626Y15441*X4624Y15442*X4618Y15444*X4589Y15450*
X4560*X4531Y15444*X4503Y15433*X4479Y15417*X3774Y14712*Y14625*Y14623*X3773Y14618*
X3772Y14613*X3769Y14609*X3765Y14606*X3761Y14603*X3757Y14601*X3752Y14600*X3749*
X3549*Y13350*Y5096*Y3846*Y2446*Y1996*Y1993*X3548Y1988*X3547Y1984*X3544Y1980*
X3540Y1976*X3536Y1974*X3532Y1972*X3527Y1971*X3524*X3421*X3419*X3414Y1972*
X3410Y1974*X3406Y1976*X3404Y1978*X3390Y1992*X3354Y2016*X3314Y2032*X3272Y2041*
X3228*X3186Y2032*X3146Y2016*X3110Y1992*X3079Y1961*X3055Y1925*X3038Y1885*
X3030Y1842*Y1799*X3038Y1757*X3055Y1716*X3079Y1680*X3110Y1650*X3146Y1626*
X3186Y1609*X3228Y1601*X3272*X3314Y1609*X3354Y1626*X3390Y1650*X3404Y1663*
X3406Y1665*X3410Y1668*X3414Y1670*X3419Y1671*X3421*X3524*X3527*X3532Y1670*
X3536Y1668*X3540Y1665*X3544Y1662*X3547Y1657*X3548Y1653*X3549Y1648*Y1646*Y1196*
X5899*Y1648*X5900Y1653*X5902Y1658*X5905Y1662*X5908Y1665*X5913Y1668*X5917Y1670*
X5922Y1671*X5954*X5956*X5961Y1670*X5965Y1668*X5969Y1665*X5971Y1663*X5985Y1650*
X6021Y1626*X6061Y1609*X6103Y1601*X6147*X6189Y1609*X6229Y1626*X6265Y1650*
X6296Y1680*X6320Y1716*X6337Y1757*X6345Y1799*Y1842*X6337Y1885*X6320Y1925*
X6296Y1961*X6265Y1992*X6229Y2016*X6189Y2032*X6147Y2041*X6103*X6061Y2032*
X6021Y2016*X5985Y1992*X5969Y1976*X5965Y1974*X5961Y1972*X5956Y1971*X5924*X5922*
X5917Y1972*X5913Y1974*X5909Y1976*X5905Y1980*X5902Y1984*X5900Y1988*X5899Y1993*
Y1996*Y2446*X3549*Y3846*X4299*Y5096*X3549*Y13350*X3716*X3721Y13349*X3725Y13347*
X3729Y13344*X3733Y13341*X3735Y13337*X3737Y13332*X3738Y13327*Y13323*X3737Y13318*
X3735Y13313*X3729Y13304*X3713Y13264*X3704Y13222*Y13178*X3713Y13136*X3729Y13096*
X3754Y13060*X3784Y13029*X3820Y13005*X3860Y12988*X3903Y12980*X3946*X3989Y12988*
X4029Y13005*X4065Y13029*X4095Y13060*X4119Y13096*X4136Y13136*X4144Y13178*Y13222*
X4136Y13264*X4119Y13304*X4113Y13313*X4112Y13318*X4111Y13323*Y13327*X4112Y13332*
X4113Y13337*X4116Y13341*X4120Y13344*X4124Y13347*X4128Y13349*X4133Y13350*X5149*
Y5096*Y3846*X5899*Y5096*X5149*Y13350*X5899*Y13812*X5900Y13817*X5902Y13822*
X5905Y13826*X5908Y13829*X5913Y13832*X5917Y13834*X5922Y13835*X5946*X5951Y13834*
X5955Y13832*X5959Y13829*X5985Y13804*X6021Y13780*X6061Y13763*X6103Y13755*X6147*
X6189Y13763*X6229Y13780*X6265Y13804*X6296Y13835*X6320Y13871*X6337Y13911*
X6345Y13953*Y13997*X6337Y14039*X6320Y14079*X6296Y14115*X6265Y14146*X6229Y14170*
X6189Y14187*X6147Y14195*X6103*X6061Y14187*X6021Y14170*X5985Y14146*X5961Y14122*
X5959Y14121*X5955Y14118*X5951Y14116*X5946Y14115*X5944*X5922*X5917Y14116*
X5913Y14118*X5908Y14121*X5905Y14124*X5902Y14128*X5900Y14133*X5899Y14138*Y14600*
X4144*X4140Y14601*X4135Y14603*X4131Y14606*X4127Y14609*X4125Y14613*X4123Y14618*
X4122Y14623*Y14627*X4123Y14632*X4125Y14637*X4127Y14641*X4639Y15153*X4641Y15154*
X4645Y15157*X4650Y15159*X4654Y15160*X4657*X6058*X7828Y16930*Y14375*X7784Y14366*
X7743Y14349*X7707Y14325*X7675Y14293*X7651Y14257*X7634Y14216*X7625Y14172*Y3107*
X10307Y425*X19243*X19675Y857*X19699Y893*X19716Y934*X19725Y978*Y1022*X19716Y1066*
X19699Y1107*X19675Y1143*X19643Y1175*X19607Y1199*X19566Y1216*X19522Y1225*X19478*
X19434Y1216*X19393Y1199*X19357Y1175*X19062Y881*X19058Y878*X19054Y876*X19049Y875*
X10504*X10501*X10496Y876*X10492Y878*X10488Y881*X10486Y882*X8082Y3286*X8081Y3288*
X8078Y3292*X8076Y3296*X8075Y3301*Y3304*Y14172*X8066Y14216*X8049Y14257*
X8025Y14293*X7993Y14325*X7957Y14349*X7916Y14366*X7872Y14375*X7828*Y16930*
X7901Y17003*X7902Y17004*X7907Y17007*X7911Y17009*X7916Y17010*X7918*X12825*
X12830Y17009*X12834Y17007*X12838Y17004*X12842Y17001*X12845Y16997*X12847Y16992*
X12848Y16987*Y16983*X12847Y16978*X12845Y16973*X12842Y16969*X11600Y15727*
X11598Y15726*X11594Y15723*X11590Y15721*X11585Y15720*X11583*X11549*X11507Y15712*
X11467Y15695*X11431Y15671*X11400Y15640*X11393Y15630*X11390Y15627*X11386Y15624*
X11381Y15622*X11376Y15621*X11372*X11367Y15622*X11362Y15624*X11358Y15627*
X11355Y15630*X11348Y15640*X11317Y15671*X11281Y15695*X11241Y15712*X11199Y15720*
X11155*X11113Y15712*X11073Y15695*X11037Y15671*X11006Y15640*X11000Y15630*
X10996Y15627*X10992Y15624*X10988Y15622*X10983Y15621*X10978*X10973Y15622*
X10968Y15624*X10964Y15627*X10961Y15630*X10954Y15640*X10924Y15671*X10888Y15695*
X10848Y15712*X10805Y15720*X10762*X10719Y15712*X10679Y15695*X10643Y15671*
X10613Y15640*X10606Y15630*X10603Y15627*X10598Y15624*X10594Y15622*X10589Y15621*
X10584*X10579Y15622*X10575Y15624*X10571Y15627*X10567Y15630*X10561Y15640*
X10530Y15671*X10494Y15695*X10454Y15712*X10411Y15720*X10368*X10326Y15712*
X10286Y15695*X10250Y15671*X10219Y15640*X10212Y15630*X10209Y15627*X10205Y15624*
X10200Y15622*X10195Y15621*X10190*X10186Y15622*X10181Y15624*X10177Y15627*
X10173Y15630*X10167Y15640*X10136Y15671*X10100Y15695*X10060Y15712*X10018Y15720*
X9974*X9932Y15712*X9892Y15695*X9856Y15671*X9825Y15640*X9801Y15604*X9785Y15564*
X9776Y15522*Y15478*X9785Y15436*X9801Y15396*X9825Y15360*X9854Y15331*X9857Y15327*
X9859Y15322*X9860Y15317*Y15313*X9859Y15308*X9857Y15303*X9854Y15299*X9851Y15296*
X9846Y15293*X9842Y15291*X9837Y15290*X9618*X9616*X9611Y15291*X9607Y15293*
X9602Y15296*X9601Y15297*X9427Y15471*X9426Y15472*X9423Y15477*X9421Y15481*
X9420Y15486*Y15488*Y15522*X9412Y15564*X9395Y15604*X9371Y15640*X9340Y15671*
X9304Y15695*X9264Y15712*X9222Y15720*X9178*X9136Y15712*X9096Y15695*X9060Y15671*
X9029Y15640*X9019Y15626*X9016Y15622*X9012Y15620*X9007Y15618*X9002Y15617*X8998*
X8993Y15618*X8988Y15620*X8984Y15622*X8981Y15626*X8971Y15640*X8940Y15671*
X8904Y15695*X8864Y15712*X8822Y15720*X8778*X8736Y15712*X8696Y15695*X8660Y15671*
X8629Y15640*X8605Y15604*X8588Y15564*X8580Y15522*Y15478*X8588Y15436*X8605Y15396*
X8629Y15360*X8660Y15329*X8696Y15305*X8736Y15288*X8778Y15280*X8812*X8814*
X8819Y15279*X8823Y15277*X8828Y15274*X8829Y15273*X9203Y14899*X9204Y14898*
X9207Y14893*X9209Y14889*X9210Y14884*Y14882*Y14242*X9836Y13616*X9839Y13612*
X9841Y13607*X9842Y13602*Y13598*X9841Y13593*X9839Y13588*X9836Y13584*X9833Y13581*
X9828Y13578*X9824Y13576*X9819Y13575*X9654*X9651*X9646Y13576*X9642Y13578*
X9638Y13581*X9636Y13582*X8893Y14325*X8857Y14349*X8816Y14366*X8772Y14375*X8728*
X8684Y14366*X8643Y14349*X8607Y14325*X8575Y14293*X8551Y14257*X8534Y14216*
X8525Y14172*Y14128*X8534Y14084*X8551Y14043*X8575Y14007*X8650Y13932*Y12800*Y3700*
X12575*X12577*X12582Y3699*X12587Y3697*X12591Y3694*X12594Y3691*X12597Y3687*
X12599Y3682*X12600Y3677*Y3675*Y1800*X15400*Y12800*X8650*Y13932*X9457Y13125*
X15246*X15249*X15254Y13124*X15258Y13122*X15262Y13119*X15264Y13118*X15618Y12764*
X15619Y12762*X15622Y12758*X15624Y12754*X15625Y12749*Y12746*Y9957*X17457Y8125*
X17493Y8101*X17534Y8084*X17578Y8075*X17622*X17666Y8084*X17707Y8101*X17743Y8125*
X17775Y8157*X17799Y8193*X17816Y8234*X17825Y8278*Y8322*X17816Y8366*X17799Y8407*
X17775Y8443*X16082Y10136*X16081Y10138*X16078Y10142*X16076Y10146*X16075Y10151*
Y10154*Y12769*X16076Y12774*X16078Y12778*X16081Y12783*X16084Y12786*X16088Y12789*
X16093Y12791*X16098Y12792*X16102*X16107Y12791*X16112Y12789*X16116Y12786*
X16203Y12699*X16204Y12698*X16207Y12693*X16209Y12689*X16210Y12684*Y12682*Y10392*
X20203Y6399*X20204Y6398*X20207Y6393*X20209Y6389*X20210Y6384*Y6382*Y3892*
X20673Y3429*X20674Y3428*X20677Y3423*X20679Y3419*X20680Y3414*Y3412*Y3378*
X20688Y3336*X20705Y3296*X20729Y3260*X20760Y3229*X20796Y3205*X20836Y3188*
X20878Y3180*X20922*X20964Y3188*X21004Y3205*X21040Y3229*X21071Y3260*X21095Y3296*
X21112Y3336*X21120Y3378*Y3422*X21112Y3464*X21095Y3504*X21071Y3540*X21040Y3571*
X21004Y3595*X20964Y3612*X20922Y3620*X20888*X20886*X20881Y3621*X20877Y3623*
X20872Y3626*X20871Y3627*X20497Y4001*X20496Y4002*X20493Y4007*X20491Y4011*
X20490Y4016*Y4018*Y6508*X16497Y10501*X16496Y10502*X16493Y10507*X16491Y10511*
X16490Y10516*Y10518*Y10748*X16491Y10753*X16493Y10757*X16496Y10761*X16499Y10765*
X16503Y10768*X16508Y10770*X16513Y10771*X16517*X16522Y10770*X16527Y10768*
X16546Y10755*X16586Y10738*X16628Y10730*X16672*X16714Y10738*X16754Y10755*
X16790Y10779*X16821Y10810*X16845Y10846*X16853Y10865*X16856Y10869*X16859Y10872*
X16863Y10875*X16868Y10877*X16873Y10878*X16877*X16882Y10877*X16887Y10875*
X16891Y10872*X16894Y10869*X16897Y10865*X16905Y10846*X16929Y10810*X16960Y10779*
X16996Y10755*X17036Y10738*X17078Y10730*X17122*X17164Y10738*X17178Y10744*
X17183Y10745*X17187*X17192Y10744*X17197Y10742*X17201Y10739*X17204Y10736*
X17207Y10732*X17209Y10727*X17210Y10722*Y10716*X17209Y10711*X17207Y10707*
X17204Y10702*X17129Y10627*X17128Y10626*X17123Y10623*X17119Y10621*X17114Y10620*
X17112*X17078*X17036Y10612*X16996Y10595*X16960Y10571*X16929Y10540*X16905Y10504*
X16888Y10464*X16880Y10422*Y10378*X16888Y10336*X16905Y10296*X16929Y10260*
X16960Y10229*X16996Y10205*X17036Y10188*X17078Y10180*X17122*X17164Y10188*
X17204Y10205*X17240Y10229*X17271Y10260*X17295Y10296*X17303Y10315*X17306Y10319*
X17309Y10322*X17313Y10325*X17318Y10327*X17323Y10328*X17327*X17332Y10327*
X17337Y10325*X17341Y10322*X17344Y10319*X17347Y10315*X17355Y10296*X17379Y10260*
X17410Y10229*X17446Y10205*X17486Y10188*X17528Y10180*X17572*X17614Y10188*
X17654Y10205*X17690Y10229*X17721Y10260*X17745Y10296*X17762Y10336*X17770Y10378*
Y10422*X17762Y10464*X17745Y10504*X17721Y10540*X17697Y10564*X17696Y10566*
X17693Y10570*X17691Y10574*X17690Y10579*Y10581*Y13358*X16229Y14819*X16226Y14823*
X16224Y14828*X16223Y14833*Y14837*X16224Y14842*X16226Y14847*X16229Y14851*
X16232Y14854*X16237Y14857*X16241Y14859*X16246Y14860*X16432*X16434*X16439Y14859*
X16443Y14857*X16448Y14854*X16449Y14853*X18553Y12749*X18554Y12748*X18557Y12743*
X18559Y12739*X18560Y12734*Y12732*Y10992*X18723Y10829*X18724Y10828*X18727Y10823*
X18729Y10819*X18730Y10814*Y10812*Y10778*X18738Y10736*X18755Y10696*X18779Y10660*
X18810Y10629*X18846Y10605*X18886Y10588*X18928Y10580*X18974*X18979Y10579*
X18983Y10577*X18988Y10574*X18991Y10571*X18994Y10567*X18996Y10562*X18997Y10557*
Y10553*X18996Y10548*X18994Y10543*X18991Y10539*X18979Y10527*X18978Y10526*
X18973Y10523*X18969Y10521*X18964Y10520*X18962*X18928*X18886Y10512*X18846Y10495*
X18810Y10471*X18779Y10440*X18755Y10404*X18738Y10364*X18730Y10322*Y10278*
X18738Y10236*X18755Y10196*X18779Y10160*X18810Y10129*X18846Y10105*X18886Y10088*
X18928Y10080*X18972*X19014Y10088*X19054Y10105*X19090Y10129*X19121Y10160*
X19145Y10196*X19162Y10236*X19170Y10278*Y10312*Y10314*X19171Y10319*X19173Y10323*
X19176Y10328*X19177Y10329*X19340Y10492*Y12029*X19341Y12034*X19343Y12038*
X19346Y12043*X19349Y12046*X19353Y12049*X19358Y12051*X19363Y12052*X19367*
X19372Y12051*X19377Y12049*X19381Y12046*X22398Y9029*X22399Y9028*X22402Y9023*
X22404Y9019*X22405Y9014*Y9012*Y8978*X22413Y8936*X22430Y8896*X22454Y8860*
X22485Y8829*X22521Y8805*X22561Y8788*X22603Y8780*X22647*X22689Y8788*X22729Y8805*
X22765Y8829*X22796Y8860*X22820Y8896*X22837Y8936*X22845Y8978*Y9022*X22837Y9064*
X22820Y9104*X22796Y9140*X22765Y9171*X22729Y9195*X22689Y9212*X22647Y9220*X22613*
X22611*X22606Y9221*X22602Y9223*X22597Y9226*X22596Y9227*X19597Y12226*
X19596Y12227*X19593Y12232*X19591Y12236*X19590Y12241*Y12243*Y12529*X19591Y12534*
X19593Y12538*X19596Y12543*X19599Y12546*X19603Y12549*X19608Y12551*X19613Y12552*
X19617*X19622Y12551*X19627Y12549*X19631Y12546*X22398Y9779*X22399Y9778*
X22402Y9773*X22404Y9769*X22405Y9764*Y9762*Y9728*X22413Y9686*X22430Y9646*
X22454Y9610*X22485Y9579*X22521Y9555*X22561Y9538*X22603Y9530*X22647*X22689Y9538*
X22729Y9555*X22765Y9579*X22796Y9610*X22820Y9646*X22837Y9686*X22845Y9728*Y9772*
X22837Y9814*X22820Y9854*X22796Y9890*X22765Y9921*X22729Y9945*X22689Y9962*
X22647Y9970*X22613*X22611*X22606Y9971*X22602Y9973*X22597Y9976*X22596Y9977*
X19504Y13069*X19501Y13073*X19499Y13078*X19498Y13083*Y13087*X19499Y13092*
X19501Y13097*X19504Y13101*X19507Y13104*X19512Y13107*X19516Y13109*X19521Y13110*
X19807*X19809*X19814Y13109*X19818Y13107*X19823Y13104*X19824Y13103*X22398Y10529*
X22399Y10528*X22402Y10523*X22404Y10519*X22405Y10514*Y10512*Y10478*X22413Y10436*
X22430Y10396*X22454Y10360*X22485Y10329*X22521Y10305*X22561Y10288*X22603Y10280*
X22647*X22689Y10288*X22729Y10305*X22765Y10329*X22796Y10360*X22820Y10396*
X22837Y10436*X22845Y10478*Y10522*X22837Y10564*X22820Y10604*X22796Y10640*
X22765Y10671*X22729Y10695*X22689Y10712*X22647Y10720*X22613*X22611*X22606Y10721*
X22602Y10723*X22597Y10726*X22596Y10727*X20054Y13269*X20051Y13273*X20049Y13278*
X20048Y13283*Y13287*X20049Y13292*X20051Y13297*X20054Y13301*X20057Y13304*
X20062Y13307*X20066Y13309*X20071Y13310*X20357*X20359*X20364Y13309*X20368Y13307*
X20373Y13304*X20374Y13303*X22398Y11279*X22399Y11278*X22402Y11273*X22404Y11269*
X22405Y11264*Y11262*Y11228*X22413Y11186*X22430Y11146*X22454Y11110*X22485Y11079*
X22521Y11055*X22561Y11038*X22603Y11030*X22647*X22689Y11038*X22729Y11055*
X22765Y11079*X22796Y11110*X22820Y11146*X22837Y11186*X22845Y11228*Y11272*
X22837Y11314*X22820Y11354*X22796Y11390*X22765Y11421*X22729Y11445*X22689Y11462*
X22647Y11470*X22613*X22611*X22606Y11471*X22602Y11473*X22597Y11476*X22596Y11477*
X20604Y13469*X20601Y13473*X20599Y13478*X20598Y13483*Y13487*X20599Y13492*
X20601Y13497*X20604Y13501*X20607Y13504*X20612Y13507*X20616Y13509*X20621Y13510*
X20907*X20909*X20914Y13509*X20918Y13507*X20923Y13504*X20924Y13503*X22398Y12029*
X22399Y12028*X22402Y12023*X22404Y12019*X22405Y12014*Y12012*Y11978*X22413Y11936*
X22430Y11896*X22454Y11860*X22485Y11829*X22521Y11805*X22561Y11788*X22603Y11780*
X22647*X22689Y11788*X22729Y11805*X22765Y11829*X22796Y11860*X22820Y11896*
X22837Y11936*X22845Y11978*Y12022*X22837Y12064*X22820Y12104*X22796Y12140*
X22765Y12171*X22729Y12195*X22689Y12212*X22647Y12220*X22613*X22611*X22606Y12221*
X22602Y12223*X22597Y12226*X22596Y12227*X21154Y13669*X21151Y13673*X21149Y13678*
X21148Y13683*Y13687*X21149Y13692*X21151Y13697*X21154Y13701*X21157Y13704*
X21162Y13707*X21166Y13709*X21171Y13710*X21457*X21459*X21464Y13709*X21468Y13707*
X21473Y13704*X21474Y13703*X22398Y12779*X22399Y12778*X22402Y12773*X22404Y12769*
X22405Y12764*Y12762*Y12728*X22413Y12686*X22430Y12646*X22454Y12610*X22485Y12579*
X22521Y12555*X22561Y12538*X22603Y12530*X22647*X22689Y12538*X22729Y12555*
X22765Y12579*X22796Y12610*X22820Y12646*X22837Y12686*X22845Y12728*Y12772*
X22837Y12814*X22820Y12854*X22796Y12890*X22765Y12921*X22729Y12945*X22689Y12962*
X22647Y12970*X22613*X22611*X22606Y12971*X22602Y12973*X22597Y12976*X22596Y12977*
X21704Y13869*X21701Y13873*X21699Y13878*X21698Y13883*Y13887*X21699Y13892*
X21701Y13897*X21704Y13901*X21707Y13904*X21712Y13907*X21716Y13909*X21721Y13910*
X22007*X22009*X22014Y13909*X22018Y13907*X22023Y13904*X22024Y13903*X22398Y13529*
X22399Y13528*X22402Y13523*X22404Y13519*X22405Y13514*Y13512*Y13478*X22413Y13436*
X22430Y13396*X22454Y13360*X22485Y13329*X22521Y13305*X22561Y13288*X22603Y13280*
X22647*X22689Y13288*X22729Y13305*X22765Y13329*X22796Y13360*X22820Y13396*
X22837Y13436*X22845Y13478*Y13522*X22837Y13564*X22820Y13604*X22796Y13640*
X22765Y13671*X22729Y13695*X22689Y13712*X22647Y13720*X22613*X22611*X22606Y13721*
X22602Y13723*X22597Y13726*X22596Y13727*X22254Y14069*X22251Y14073*X22249Y14078*
X22248Y14083*Y14087*X22249Y14092*X22251Y14097*X22254Y14101*X22257Y14104*
X22262Y14107*X22266Y14109*X22271Y14110*X22444*X22446*X22451Y14109*X22455Y14107*
X22459Y14104*X22461Y14103*X22485Y14079*X22521Y14055*X22561Y14038*X22603Y14030*
X22647*X22689Y14038*X22729Y14055*X22765Y14079*X22796Y14110*X22820Y14146*
X22837Y14186*X22845Y14228*Y14272*X22837Y14314*X22820Y14354*X22796Y14390*
X22765Y14421*X22729Y14445*X22689Y14462*X22647Y14470*X22603*X22561Y14462*
X22521Y14445*X22485Y14421*X22461Y14397*X22459Y14396*X22455Y14393*X22451Y14391*
X22446Y14390*X22444*X19568*X19566*X19561Y14391*X19557Y14393*X19552Y14396*
X19551Y14397*X18579Y15369*X18576Y15373*X18574Y15378*X18573Y15383*Y15387*
X18574Y15392*X18576Y15397*X18579Y15401*X18582Y15404*X18587Y15407*X18591Y15409*
X18596Y15410*X18719*X18721*X18726Y15409*X18730Y15407*X18734Y15404*X18736Y15403*
X18760Y15379*X18796Y15355*X18836Y15338*X18878Y15330*X18922*X18964Y15338*
X19004Y15355*X19040Y15379*X19071Y15410*X19095Y15446*X19112Y15486*X19120Y15528*
Y15572*X19112Y15614*X19095Y15654*X19071Y15690*X19040Y15721*X19004Y15745*
X18964Y15762*X18922Y15770*X18878*X18836Y15762*X18796Y15745*X18760Y15721*
X18736Y15697*X18734Y15696*X18730Y15693*X18726Y15691*X18721Y15690*X18719*X18518*
X18516*X18511Y15691*X18507Y15693*X18502Y15696*X18501Y15697*X16908Y17290*X7792*
Y18300*X41853*Y8720*X41811Y8712*X41771Y8695*X41735Y8671*X41704Y8640*X41680Y8604*
X41663Y8564*X41655Y8522*Y8478*X41663Y8436*X41680Y8396*X41704Y8360*X43159Y6905*
X51747*X51789Y6913*X51829Y6930*X51865Y6954*X51921Y7010*X51945Y7046*X51962Y7086*
X51970Y7128*Y7172*X51962Y7214*X51945Y7254*X51921Y7290*X51890Y7321*X51854Y7345*
X51814Y7362*X51772Y7370*X51728*X51686Y7362*X51650Y7347*X51648Y7346*X51643Y7345*
X51641*X43351*X43349*X43344Y7346*X43340Y7348*X43336Y7351*X43334Y7352*
X42015Y8671*X41979Y8695*X41939Y8712*X41897Y8720*X41853*Y18300*X43778*Y14670*
X43736Y14662*X43696Y14645*X43660Y14621*X43629Y14590*X43605Y14554*X43588Y14514*
X43580Y14472*Y14428*X43588Y14386*X43605Y14346*X43629Y14310*X43660Y14279*
X43696Y14255*X43736Y14238*X43778Y14230*X43812*X43814*X43819Y14229*X43823Y14227*
X43828Y14224*X43829Y14223*X44142Y13910*X53532*X53534*X53539Y13909*X53543Y13907*
X53548Y13904*X53549Y13903*X54528Y12924*Y10720*X54486Y10712*X54446Y10695*
X54410Y10671*X54379Y10640*X54355Y10604*X54338Y10564*X54330Y10522*Y10502*Y10500*
X54329Y10495*X54327Y10491*X54324Y10487*X54323Y10485*X53765Y9927*Y9629*Y9626*
X53764Y9621*X53762Y9617*X53760Y9613*X53756Y9609*X53752Y9606*X53748Y9605*
X53743Y9604*X53740*X53640*Y8875*Y8873*X53639Y8868*X53637Y8863*X53635Y8859*
X53631Y8856*X53627Y8853*X53623Y8851*X53618Y8850*X53615*X53316*X53312Y8851*
X53307Y8853*X53303Y8856*X53299Y8859*X53297Y8863*X53295Y8868*X53294Y8873*X52224*
Y8623*Y8621*X52223Y8616*X52221Y8611*X52218Y8607*X52215Y8604*X52211Y8601*
X52206Y8599*X52201Y8598*X52199*X48734*X48732*X48727Y8599*X48722Y8601*
X48718Y8604*X48717Y8605*X48308Y9014*X43931*X43929*X43924Y9015*X43920Y9017*
X43916Y9020*X43914Y9021*X43890Y9045*X43854Y9069*X43814Y9086*X43772Y9094*X43728*
X43686Y9086*X43646Y9069*X43610Y9045*X43579Y9014*X43555Y8978*X43538Y8938*
X43530Y8896*Y8852*X43538Y8810*X43555Y8770*X43579Y8734*X43610Y8703*X43646Y8679*
X43686Y8662*X43728Y8654*X43772*X43814Y8662*X43854Y8679*X43890Y8703*X43916Y8728*
X43920Y8731*X43924Y8733*X43929Y8734*X48182*X48184*X48189Y8733*X48193Y8731*
X48198Y8728*X48199Y8727*X48608Y8318*X52199*X52201*X52206Y8317*X52211Y8315*
X52215Y8312*X52218Y8309*X52221Y8305*X52223Y8300*X52224Y8296*Y8293*Y8043*X53294*
Y8525*Y8527*X53295Y8532*X53297Y8537*X53300Y8541*X53303Y8544*X53307Y8547*
X53312Y8549*X53316Y8550*X53319*X53618*X53623Y8549*X53627Y8547*X53631Y8544*
X53635Y8541*X53638Y8537*X53639Y8534*X55312*X55314Y8533*X55319Y8532*X55324Y8531*
X55328Y8528*X55331Y8524*X55334Y8520*X55336Y8516*X55337Y8511*Y8509*Y7963*X56407*
Y8953*X55715*X55713*X55708Y8954*X55704Y8956*X55699Y8959*X55696Y8962*X55693Y8966*
X55691Y8971*X55690Y8976*Y8978*Y9604*X54590*X54588*X54583Y9605*X54579Y9606*
X54574Y9609*X54571Y9613*X54568Y9617*X54566Y9621*X54565Y9626*Y9629*Y9728*Y9730*
X54566Y9735*X54568Y9739*X54571Y9743*X54573Y9745*X54920Y10093*X54922Y10094*
X54926Y10097*X54931Y10099*X54935Y10100*X54938*X55778*X55780*X55785Y10099*
X55789Y10097*X55793Y10094*X55795Y10093*X56643Y9245*X56644Y9243*X56647Y9239*
X56649Y9235*X56650Y9230*Y9228*Y6272*Y6270*X56649Y6265*X56647Y6261*X56644Y6257*
X56643Y6255*X56448Y6060*X56444Y6057*X56439Y6055*X56434Y6054*X56429*X56425Y6055*
X56420Y6057*X56416Y6060*X56412Y6063*X56410Y6067*X56408Y6072*X56407Y6077*Y6993*
X55337*Y6003*X56333*X56338Y6002*X56342Y6000*X56347Y5998*X56350Y5994*X56353Y5990*
X56355Y5985*X56356Y5981*Y5976*X56355Y5971*X56353Y5966*X56350Y5962*X56295Y5907*
X56293Y5906*X56289Y5903*X56285Y5901*X56280Y5900*X56278*X54578*X54333Y5655*
X54331Y5653*X54327Y5651*X54323Y5649*X54318Y5648*X54313*X54308Y5649*X54306Y5650*
X54282Y5660*X54204Y5675*X54126*X54048Y5660*X54024Y5650*X54022Y5649*X54017Y5648*
X54012*X54007Y5649*X54003Y5651*X53999Y5653*X53997Y5655*X53301Y6351*X53299Y6353*
X53297Y6357*X53295Y6361*X53294Y6366*Y6369*Y6913*X52224*Y6083*X53126*Y5675*
X53048Y5660*X52976Y5629*X52910Y5586*X52854Y5530*X52811Y5464*X52780Y5392*
X52765Y5314*Y5236*X52780Y5158*X52811Y5086*X52854Y5020*X52910Y4964*X52976Y4921*
X53048Y4890*X53126Y4875*X53204*X53282Y4890*X53354Y4921*X53420Y4964*X53476Y5020*
X53519Y5086*X53550Y5158*X53565Y5236*Y5314*X53550Y5392*X53519Y5464*X53476Y5530*
X53420Y5586*X53354Y5629*X53282Y5660*X53204Y5675*X53126*Y6083*X53134*X53137*
X53142Y6082*X53146Y6080*X53150Y6077*X53152Y6076*X53785Y5443*X53787Y5441*
X53789Y5437*X53791Y5433*X53792Y5428*Y5423*X53791Y5418*X53790Y5416*X53780Y5392*
X53765Y5314*Y5236*X53780Y5158*X53811Y5086*X53854Y5020*X53910Y4964*X53976Y4921*
X54048Y4890*X54126Y4875*X54204*X54282Y4890*X54354Y4921*X54420Y4964*X54476Y5020*
X54519Y5086*X54550Y5158*X54565Y5236*Y5314*X54550Y5392*X54540Y5416*X54539Y5418*
X54538Y5423*Y5428*X54539Y5433*X54541Y5437*X54543Y5441*X54545Y5443*X54695Y5593*
X54697Y5594*X54701Y5597*X54705Y5599*X54710Y5600*X54712*X55866*X55871Y5599*
X55876Y5597*X55880Y5594*X55883Y5591*X55886Y5587*X55888Y5582*X55889Y5577*Y5573*
X55888Y5568*X55886Y5563*X55883Y5559*X55854Y5530*X55811Y5464*X55780Y5392*
X55765Y5314*Y5236*X55780Y5158*X55811Y5086*X55854Y5020*X55910Y4964*X55976Y4921*
X56048Y4890*X56126Y4875*X56204*X56282Y4890*X56354Y4921*X56420Y4964*X56476Y5020*
X56519Y5086*X56550Y5158*X56565Y5236*Y5314*X56550Y5392*X56540Y5416*X56539Y5418*
X56538Y5423*Y5428*X56539Y5433*X56541Y5437*X56543Y5441*X56545Y5443*X57190Y6088*
Y9562*X56102Y10650*X54721*X54719*X54714Y10651*X54710Y10653*X54706Y10656*
X54704Y10657*X54690Y10671*X54654Y10695*X54614Y10712*X54572Y10720*X54528*Y12924*
X57757Y9695*X57759Y9693*X57762Y9689*X57764Y9684*X57765Y9679*Y9677*Y9644*
X57773Y9601*X57790Y9561*X57814Y9525*X57844Y9494*X57880Y9470*X57920Y9454*
X57963Y9445*X58006*X58049Y9454*X58089Y9470*X58125Y9494*X58156Y9525*X58180Y9561*
X58196Y9601*X58205Y9644*Y9687*X58196Y9730*X58180Y9770*X58156Y9806*X58125Y9836*
X58089Y9860*X58049Y9877*X58006Y9885*X57971*X57966Y9886*X57961Y9888*X57957Y9891*
X53729Y14119*X53726Y14123*X53724Y14128*X53723Y14133*Y14137*X53724Y14142*
X53726Y14147*X53729Y14151*X53732Y14154*X53737Y14157*X53741Y14159*X53746Y14160*
X54032*X54034*X54039Y14159*X54043Y14157*X54048Y14154*X54049Y14153*X58303Y9899*
X58304Y9898*X58307Y9893*X58309Y9889*X58310Y9884*Y9882*Y4097*Y4094*X58309Y4090*
X58307Y4085*X58304Y4081*X58303Y4079*X58279Y4056*X58255Y4020*X58238Y3980*
X58230Y3937*Y3894*X58238Y3851*X58255Y3811*X58279Y3775*X58310Y3744*X58346Y3720*
X58386Y3704*X58428Y3695*X58472*X58514Y3704*X58554Y3720*X58590Y3744*X58621Y3775*
X58645Y3811*X58662Y3851*X58670Y3894*Y3937*X58662Y3980*X58645Y4020*X58621Y4056*
X58597Y4079*X58596Y4081*X58593Y4085*X58591Y4090*X58590Y4094*Y4097*Y10008*
X54158Y14440*X44693*X44688Y14441*X44683Y14443*X44679Y14446*X44676Y14449*
X44673Y14453*X44671Y14458*X44670Y14463*Y14472*X44662Y14514*X44645Y14554*
X44621Y14590*X44590Y14621*X44554Y14645*X44514Y14662*X44472Y14670*X44428*
X44386Y14662*X44346Y14645*X44310Y14621*X44279Y14590*X44255Y14554*X44238Y14514*
X44230Y14472*Y14428*X44238Y14386*X44255Y14346*X44279Y14310*X44310Y14279*
X44346Y14255*X44389Y14237*X44393Y14234*X44397Y14231*X44399Y14227*X44401Y14222*
X44402Y14217*Y14213*X44401Y14208*X44399Y14203*X44397Y14199*X44393Y14196*
X44389Y14193*X44384Y14191*X44380Y14190*X44268*X44266*X44261Y14191*X44257Y14193*
X44252Y14196*X44251Y14197*X44027Y14421*X44026Y14422*X44023Y14427*X44021Y14431*
X44020Y14436*Y14438*Y14472*X44012Y14514*X43995Y14554*X43971Y14590*X43940Y14621*
X43904Y14645*X43864Y14662*X43822Y14670*X43778*Y18300*X47216*X47218*X47223Y18299*
X47228Y18297*X47232Y18294*X47235Y18291*X47238Y18287*X47240Y18282*X47241Y18277*
Y18275*Y16925*Y16906*X47249Y16867*X47264Y16831*X47286Y16798*X47314Y16770*
X47346Y16748*X47383Y16733*X47421Y16726*X47439Y16725*X47441*G37*G54D10*
X17600Y8300D03*X51750Y7150D03*X8750Y14150D03*X41875Y8500D03*D02*X43250Y7125D01*
X51725*X51750Y7150*G54D30*X8750Y14150D02*X9550Y13350D01*X15350*X15850Y12850*
Y10050*X17600Y8300*G54D10*X19500Y1000D03*X7850Y14150D03*G54D30*X19500Y1000D02*
X19150Y650D01*X10400*X7850Y3200*Y14150*G54D36*X2000Y4500D03*X68300D03*Y14250D03*
G54D69*X3924Y16625D03*X5524D03*X61798Y16675D03*X63398D03*X62507Y10573D03*
X64107D03*X68806D03*X70406D03*X3924Y4471D03*X5524D03*X61798D03*X63398D03*G54D64*
X54915Y9069D03*G54D10*X20900Y3400D03*X8800Y15500D03*G54D19*X20900Y3400D02*
X20350Y3950D01*Y6450*X16350Y10450*Y12750*X15400Y13700*X9950*X9350Y14300*Y14950*
X8800Y15500*G54D69*X3924Y1821D03*Y13975D03*G54D10*X3250Y1821D03*X3924Y13200D03*
X18900Y15550D03*G54D19*X4574Y15300D02*X6000D01*X7850Y17150*X16850*X18450Y15550*
X18900*G54D21*X3924Y1821D02*X3250D01*X3924Y13975D02*Y13200D01*Y13975D02*
Y14650D01*X4574Y15300*G54D69*X61798Y1821D03*Y14025D03*G54D10*X61600Y6350D03*
G54D19*X61798Y14025D02*Y13100D01*X61400Y12702*Y6550*X61600Y6350*G54D21*
X61798Y1821D02*Y2700D01*X62598Y3500*Y5352*X61600Y6350*G54D69*X62507Y7923D03*
G54D10*X61850D03*G54D21*X62507D02*X61850D01*G54D69*X68806D03*G54D10*X68150D03*
G54D19*X68806D02*X68150D01*G54D69*X69606D03*G54D61*X55872Y8458D03*G54D38*
X66600Y6150D03*G54D69*X62598Y14025D03*G54D64*X55415Y9069D03*G54D61*
X55872Y6498D03*G54D69*X4724Y1821D03*X62598D03*X63307Y7923D03*X4724Y13975D03*
G54D37*X53165Y5275D03*G54D41*X68307Y16335D03*X33660Y17120D03*X1380D03*Y1370D03*
X68307Y2161D03*G54D10*X20650Y8700D03*X18950Y11550D03*X21000Y5250D03*X22500D03*
X61125Y6625D03*X57875Y5625D03*X26750Y5750D03*X24000Y5250D03*X29000Y5750D03*
X31250D03*X33500D03*X34125Y6625D03*X36250Y7000D03*X47500Y15000D03*
X50250Y9000D03*X48500Y9500D03*X47750Y10750D03*X46125Y12375D03*X44625Y13750D03*
X45850Y14750D03*X42750Y9750D03*X41000Y11500D03*X38750Y13750D03*X67500Y12000D03*
X66000Y15000D03*X36000Y18000D03*X39000D03*X42000D03*X45000D03*X66000D03*
X60000D03*X57000D03*X54000D03*X58500Y13500D03*X55500D03*X52500D03*
X51000Y12000D03*X54000D03*X60000Y15000D03*X57000D03*X54000D03*X43500Y6000D03*
X27000Y1500D03*X42000D03*X45000D03*X48000D03*X51000D03*Y4500D03*X48000D03*
X45000D03*X40500Y7500D03*X42000D03*Y4500D03*X43500Y12000D03*X40500Y13500D03*
X33000D03*X36000D03*X39000Y10500D03*X36000D03*X33000D03*X30000D03*Y13500D03*
X37500Y12000D03*X34500D03*X31500D03*X40500Y9000D03*X37500D03*X34500D03*
X31500D03*X28500D03*X25500D03*X28500Y12000D03*X25500D03*X27000Y10500D03*
Y13500D03*X28500Y15000D03*X25500D03*X22150Y3550D03*X22500Y4500D03*X24000D03*
X16500Y6000D03*Y7500D03*Y8550D03*X7500Y3000D03*Y6000D03*Y9000D03*Y12000D03*
X6000Y7500D03*Y10500D03*X4500Y6000D03*Y12000D03*Y9000D03*X3000Y7500D03*
Y10500D03*X1500Y9000D03*Y12000D03*X66000Y3000D03*X3000Y13500D03*X1500Y15000D03*
X31500Y18000D03*X54000Y1500D03*X36000Y16500D03*X66000Y13500D03*Y16500D03*
X57000Y12000D03*X60000D03*X22150Y2650D03*X67500Y9200D03*X66750D03*
X60500Y3450D03*X59750D03*X24000Y1000D03*X10500Y1500D03*X49050Y12000D03*
X49500Y13500D03*X10400Y14150D03*X67500Y6000D03*X64500Y4500D03*Y1500D03*
X55500Y3000D03*X45000Y16500D03*X60000Y9000D03*X58500Y10500D03*X51000Y15000D03*
X10500Y3000D03*X47600Y13500D03*X14200Y14150D03*X12400D03*X64500Y12000D03*
Y15000D03*X58000Y3000D03*X20375Y1375D03*X22750Y1000D03*X57000Y1500D03*
X18625Y1000D03*X15625D03*X27750Y3000D03*X30000D03*X32250D03*X34500D03*X41250D03*
X55415Y9875D03*X4724Y1050D03*Y13200D03*X62598Y13300D03*X69606Y7150D03*X63307D03*
X62598Y1050D03*X7200Y15700D03*X25500Y3000D03*X38950Y6500D03*X52457Y7375D03*
X52450Y9200D03*X17600Y7900D03*G54D35*X69606Y7923D02*Y8548D01*Y7923D02*Y7298D01*
G54D33*X55872Y8458D02*X56407D01*X55872D02*Y8953D01*Y8458D02*X55337D01*X55872D02*
Y7963D01*G54D34*X66600Y6150D02*X67120D01*X66600D02*Y6670D01*Y6150D02*X66080D01*
X66600D02*Y5630D01*G54D35*X62598Y14025D02*Y14650D01*Y14025D02*Y13400D01*G54D33*
X55415Y9069D02*X55690D01*X55415D02*Y9604D01*X55872Y6498D02*X56407D01*X55872D02*
Y6993D01*Y6498D02*X55337D01*X55872D02*Y6003D01*G54D35*X4724Y1821D02*Y2446D01*
Y1821D02*Y1196D01*X62598Y1821D02*Y2446D01*Y1821D02*Y1196D01*X63307Y7923D02*
Y8548D01*Y7923D02*Y7298D01*X4724Y13975D02*Y14600D01*Y13975D02*Y13350D01*G54D32*
X53165Y5275D02*X53565D01*X53165D02*Y5675D01*Y5275D02*X52765D01*X53165D02*
Y4875D01*G54D52*X52759Y8458D03*G54D64*X53915Y9069D03*G54D37*X56165Y5275D03*
G54D10*X54550Y10500D03*X43750Y8874D03*G54D21*X53915Y9069D02*Y9865D01*
X54550Y10500*X56165Y5275D02*X57040Y6150D01*Y9500*X56040Y10500*X54550*
X52759Y8458D02*X52956D01*Y8700*X53915*Y9069*G54D19*X43750Y8874D02*X48250D01*
X48666Y8458*X52759*G54D10*X57985Y9665D03*X43800Y14450D03*G54D19*D02*
X44200Y14050D01*X53600*X57985Y9665*G54D10*X58450Y3915D03*X44450Y14450D03*G54D19*
D02*X44600Y14300D01*X54100*X58450Y9950*Y3915*G54D69*X63398Y14025D03*
X64107Y7923D03*X70406D03*X5524Y13975D03*G54D10*X6125D03*X64000Y14025D03*
X70406Y7125D03*X65500Y7923D03*Y10340D03*G54D19*D02*Y12525D01*X64000Y14025*
X65500Y7923D02*Y10340D01*X5524Y13975D02*X6125D01*G54D21*X63398Y14025D02*
X64000D01*G54D19*X64107Y7923D02*X65500D01*G54D21*X70406D02*Y7125D01*G54D69*
X63398Y1821D03*X5524D03*G54D10*X59000Y5100D03*X60500D03*X60125Y700D03*
X59000Y6800D03*X6125Y1821D03*X63398Y1000D03*G54D19*X60125Y700D02*Y4725D01*
X60500Y5100*X59000D02*Y6800D01*G54D21*X5524Y1821D02*X6125D01*X63398D02*Y1000D01*
G54D10*X22625Y14250D03*X11571Y15500D03*G54D19*D02*X13021Y16950D01*X16800*
X19500Y14250*X22625*G54D10*Y13500D03*X11965Y15500D03*G54D19*D02*X13215Y16750D01*
X16750*X19450Y14050*X22075*X22625Y13500*G54D10*Y12750D03*X12358Y15500D03*G54D19*
D02*X13408Y16550D01*X16700*X19400Y13850*X21525*X22625Y12750*G54D10*Y12000D03*
X12752Y15500D03*G54D19*D02*X13602Y16350D01*X16650*X19350Y13650*X20975*
X22625Y12000*G54D10*Y11250D03*X13146Y15500D03*G54D19*D02*X13796Y16150D01*X16600*
X19300Y13450*X20425*X22625Y11250*G54D10*Y10500D03*X13539Y15500D03*G54D19*D02*
X13989Y15950D01*X16550*X19250Y13250*X19875*X22625Y10500*G54D10*Y9750D03*
X13933Y15500D03*G54D19*D02*X14183Y15750D01*X16500*X19200Y13050*X19325*
X22625Y9750*G54D10*Y9000D03*X14327Y15500D03*G54D19*D02*X14377Y15550D01*X16450*
X19450Y12550*Y12175*X22625Y9000*G54D10*X17550Y10400D03*X10390Y15500D03*G54D19*
D02*X11090Y14800D01*X16050*X17550Y13300*Y10400*G54D10*X17100Y10950D03*
X9200Y15500D03*G54D19*D02*X9550Y15150D01*X10050*X10800Y14400*X15965*
X17115Y13250*Y10965*X17100Y10950*G54D10*X16650D03*X9950Y14150D03*G54D19*
X16650Y10950D02*X16850Y11150D01*Y12550*X15500Y13900*X10200*X9950Y14150*G54D10*
X18950Y10300D03*X11177Y15500D03*G54D19*D02*X11477Y15200D01*X16550*X19200Y12550*
Y10550*X18950Y10300*G54D10*Y10800D03*X10783Y15500D03*G54D19*X18950Y10800D02*
X18700Y11050D01*Y12800*X16500Y15000*X11283*X10783Y15500*G54D52*X52759Y6498D03*
G54D64*X54415Y9069D03*G54D37*X54165Y5275D03*G54D21*D02*X52942Y6498D01*X52759*
X54415Y9069D02*Y9800D01*X54865Y10250*X55850*X56800Y9300*Y6200*X56350Y5750*
X54640*X54165Y5275*G54D10*X17100Y10400D03*X9996Y15500D03*G54D19*X17100Y10400D02*
X17350Y10650D01*Y13250*X16000Y14600*X10896*X9996Y15500*G54D21*X16875Y-2000D02*
X16125D01*Y-3000*Y-2485D02*X16583D01*X17125Y-2000D02*Y-2712D01*X17178Y-2864*
X17283Y-2955*X17448Y-3000*X17553*X17710Y-2955*X17815Y-2864*X17875Y-2712*Y-2000*
X18125D02*Y-3000D01*X18875*X19125Y-2000D02*Y-3000D01*X19875*X20125D02*Y-2000D01*
X20605*X20763Y-2061*X20815Y-2106*X20875Y-2197*Y-2333*X20815Y-2439*X20763Y-2485*
X20605Y-2530*X20125*X21125Y-2000D02*Y-3000D01*X21875*X22260Y-2667D02*X22733D01*
X22125Y-3000D02*X22493Y-2000D01*X22875Y-3000*X23875Y-2000D02*X23500Y-2485D01*
X23125Y-2000D02*X23500Y-2485D01*Y-3000*X25178Y-2242D02*Y-2197D01*X25230Y-2106*
X25283Y-2061*X25388Y-2000*X25605*X25710Y-2061*X25763Y-2106*X25815Y-2197*Y-2288*
X25763Y-2379*X25658Y-2530*X25125Y-3000*X25875*X26448Y-2015D02*X26283Y-2061D01*
X26178Y-2197*X26125Y-2439*Y-2576*X26178Y-2818*X26283Y-2955*X26448Y-3000*X26553*
X26710Y-2955*X26815Y-2818*X26875Y-2576*Y-2439*X26815Y-2197*X26710Y-2061*
X26553Y-2015*X26448*X27448D02*X27283Y-2061D01*X27178Y-2197*X27125Y-2439*Y-2576*
X27178Y-2818*X27283Y-2955*X27448Y-3000*X27553*X27710Y-2955*X27815Y-2818*
X27875Y-2576*Y-2439*X27815Y-2197*X27710Y-2061*X27553Y-2015*X27448*
X28125Y-2576D02*X28875D01*X29448Y-2015D02*X29283Y-2061D01*X29178Y-2197*
X29125Y-2439*Y-2576*X29178Y-2818*X29283Y-2955*X29448Y-3000*X29553*X29710Y-2955*
X29815Y-2818*X29875Y-2576*Y-2439*X29815Y-2197*X29710Y-2061*X29553Y-2015*X29448*
X30448D02*X30283Y-2061D01*X30178Y-2197*X30125Y-2439*Y-2576*X30178Y-2818*
X30283Y-2955*X30448Y-3000*X30553*X30710Y-2955*X30815Y-2818*X30875Y-2576*Y-2439*
X30815Y-2197*X30710Y-2061*X30553Y-2015*X30448*X31418Y-2197D02*X31478Y-2152D01*
X31568Y-2015*Y-3000*X32875Y-2333D02*X32815Y-2485D01*X32703Y-2576*X32523Y-2621*
X32470*X32298Y-2576*X32178Y-2485*X32125Y-2333*Y-2288*X32178Y-2152*X32298Y-2061*
X32470Y-2015*X32523*X32703Y-2061*X32815Y-2152*X32875Y-2333*Y-2576*X32815Y-2818*
X32703Y-2955*X32523Y-3000*X32410*X32238Y-2955*X32178Y-2864*X33125Y-2576D02*
X33875D01*X34448Y-2015D02*X34283Y-2061D01*X34178Y-2197*X34125Y-2439*Y-2576*
X34178Y-2818*X34283Y-2955*X34448Y-3000*X34553*X34710Y-2955*X34815Y-2818*
X34875Y-2576*Y-2439*X34815Y-2197*X34710Y-2061*X34553Y-2015*X34448*X35620D02*
Y-3000D01*Y-2015D02*X35125Y-2667D01*X35875*X37125Y-3000D02*Y-2000D01*X37605*
X37763Y-2061*X37815Y-2106*X37875Y-2197*Y-2288*X37815Y-2379*X37763Y-2439*
X37605Y-2485*X37125*X37493D02*X37875Y-3000D01*X38875Y-2000D02*X38125D01*Y-3000*
X38875*X38125Y-2485D02*X38583D01*X39125Y-2000D02*X39493Y-3000D01*X39875Y-2000*
X41260Y-2667D02*X41733D01*X41125Y-3000D02*X41493Y-2000D01*X41875Y-3000*
X43125D02*Y-2000D01*X43605*X43763Y-2061*X43815Y-2106*X43875Y-2197*Y-2333*
X43815Y-2439*X43763Y-2485*X43605Y-2530*X43125*X44125Y-2000D02*X44305Y-3000D01*
X44493Y-2379*X44680Y-3000*X44875Y-2000*X45125Y-2485D02*X45605D01*X45763Y-2530*
X45815Y-2576*X45875Y-2667*Y-2818*X45815Y-2909*X45763Y-2955*X45605Y-3000*X45125*
Y-2000*X45605*X45763Y-2061*X45815Y-2106*X45875Y-2197*Y-2288*X45815Y-2379*
X45763Y-2439*X45605Y-2485*X47125Y-2000D02*Y-3000D01*X47875*X48260Y-2667D02*
X48733D01*X48125Y-3000D02*X48493Y-2000D01*X48875Y-3000*X49875Y-2000D02*
X49500Y-2485D01*X49125Y-2000D02*X49500Y-2485D01*Y-3000*X50875Y-2000D02*
X50125D01*Y-3000*X50875*X50125Y-2485D02*X50583D01*X51125Y-3000D02*Y-2000D01*
X51605*X51763Y-2061*X51815Y-2106*X51875Y-2197*Y-2288*X51815Y-2379*X51763Y-2439*
X51605Y-2485*X51125*X51493D02*X51875Y-3000D01*X53418Y-2197D02*X53478Y-2152D01*
X53568Y-2015*Y-3000*M02*
