%MOIN*%
%FSLAN2X24Y24*%
%ADD10C,0.0240000*%
%ADD11C,0.0010000*%
%ADD12C,0.0020000*%
%ADD13C,0.0030000*%
%ADD14C,0.0050000*%
%ADD15C,0.0060000*%
%ADD16C,0.0065000*%
%ADD17C,0.0078740*%
%ADD18C,0.0079921*%
%ADD19C,0.0080000*%
%ADD20C,0.0085000*%
%ADD21C,0.0100000*%
%ADD22C,0.0110000*%
%ADD23C,0.0112000*%
%ADD24C,0.0135000*%
%ADD25C,0.0140000*%
%ADD26C,0.0150000*%
%ADD27C,0.0156000*%
%ADD28C,0.0187000*%
%ADD29C,0.0200000*%
%ADD30C,0.0250000*%
%ADD31C,845.4660028*%
%ADD32R,0.0100000X0.0100000*%
%ADD33R,0.0120000X0.0120000*%
%ADD34R,0.0150000X0.0150000*%
%ADD35R,0.0200000X0.0200000*%
%ADD36C,0.0500000*%
%ADD37C,0.0600000*%
%ADD38C,0.0840000*%
%ADD39C,0.0900000*%
%ADD40C,0.1500000*%
%ADD41C,0.1750000*%
%ADD42C,0.1850000*%
%ADD43R,0.0510000X0.0120000*%
%ADD44R,0.0630000X0.0320000*%
%ADD45R,0.0358268X0.0358268*%
%ADD46R,0.0433071X0.0393701*%
%ADD47R,0.0730000X0.0420000*%
%ADD48R,0.0393701X0.0433071*%
%ADD49R,0.0438268X0.0438268*%
%ADD50R,0.0513071X0.0473701*%
%ADD51R,0.0473701X0.0513071*%
%ADD52R,0.0870000X0.0630000*%
%ADD53R,0.0320000X0.0630000*%
%ADD54R,0.0236220X0.0669291*%
%ADD55R,0.1062992X0.0708661*%
%ADD56R,0.0970000X0.0730000*%
%ADD57R,0.0420000X0.0730000*%
%ADD58R,0.0316220X0.0749291*%
%ADD59R,0.0472441X0.0787402*%
%ADD60R,0.1142992X0.0788661*%
%ADD61R,0.0870000X0.0790000*%
%ADD62R,0.1180000X0.0830000*%
%ADD63R,0.0552441X0.0867402*%
%ADD64R,0.0350000X0.0870000*%
%ADD65R,0.0970000X0.0890000*%
%ADD66R,0.1280000X0.0930000*%
%ADD67R,0.0450000X0.0970000*%
%ADD68R,0.0629921X0.1023622*%
%ADD69R,0.0550000X0.1050000*%
%ADD70R,0.0709921X0.1103622*%
%ADD71R,0.0650000X0.1150000*%
%ADD72R,0.0830000X0.1180000*%
%ADD73R,0.0930000X0.1280000*%
G90*G70*G01*D02*G36*X18444Y12461D02*Y11751D01*X16474*Y12461*X18444*G37*G36*
Y5257D02*Y4547D01*X16474*Y5257*X18444*G37*G54D53*X51965Y7935D03*G54D45*
X42317Y8500D03*G54D54*X8421Y14927D03*G54D43*X18189Y8209D03*Y8406D03*G54D55*
X19500Y1625D03*G54D48*X22750Y1915D03*G54D54*X8028Y14927D03*G54D45*
X43183Y8126D03*G54D43*X18189Y7622D03*G54D54*X7240Y13411D03*X7634D03*X8028D03*
X8421D03*X8815D03*X9209D03*X9602D03*X9996D03*X10390D03*X10783D03*X11177D03*
X11571D03*X11965D03*X12358D03*X12752D03*X13146D03*X13539D03*X13933D03*X14327D03*
X14720D03*X15114D03*X15508D03*X15902D03*X16295D03*X16689D03*X17083D03*X17476D03*
X17870D03*X18264D03*X18657D03*G54D62*X16723Y3800D03*Y1300D03*G54D53*
X49996Y7935D03*X50488D03*G54D72*X53461Y9077D03*X46039D03*G54D45*X20876Y2683D03*
G54D54*X8815Y14927D03*G54D68*X39000Y5577D03*G54D43*X18189Y7028D03*G54D68*
X39000Y3923D03*G54D43*X18189Y7224D03*G54D68*X36750Y5577D03*G54D43*
X18189Y6838D03*G54D68*X36750Y3923D03*G54D43*X18189Y6634D03*G54D68*
X41250Y5577D03*G54D43*X18189Y7818D03*Y7421D03*G54D54*X18657Y14927D03*G54D53*
X47043Y7935D03*G54D54*X18264Y14927D03*G54D53*X47535Y7935D03*G54D54*
X17870Y14927D03*G54D53*X48028Y7935D03*G54D54*X17476Y14927D03*G54D45*
X21624Y2683D03*G54D68*X34500Y3923D03*G54D54*X7634Y14927D03*G54D43*
X18189Y8012D03*G54D68*X30000Y3923D03*X25500D03*G54D43*X18189Y11161D03*G54D54*
X7240Y14927D03*G54D53*X52457Y7935D03*G54D68*X27750Y3923D03*G54D48*
X67500Y9665D03*G54D68*X41250Y3923D03*G54D48*X60500Y3915D03*G54D68*
X32250Y3923D03*G54D48*X59750Y3915D03*G54D59*X24000Y1699D03*G54D48*
X66750Y9665D03*G54D54*X14720Y14927D03*G54D45*X43183Y8874D03*G54D54*
X17083Y14927D03*G54D48*X66000Y9665D03*G54D54*X16689Y14927D03*G54D48*
X59000Y3915D03*G54D53*X49012Y7935D03*G54D54*X16295Y14927D03*X15902D03*G54D53*
X49504Y7935D03*G54D48*X66750Y10335D03*X67500D03*X66000D03*G54D53*X48520Y7935D03*
G54D48*X59750Y4585D03*X60500D03*X59000D03*G54D46*X22085Y14250D03*G54D54*
X11571Y14927D03*G54D46*X22085Y13500D03*G54D54*X11965Y14927D03*G54D46*
X22085Y12750D03*G54D54*X12358Y14927D03*G54D46*X22085Y12000D03*G54D54*
X12752Y14927D03*G54D46*X22085Y11250D03*G54D54*X13146Y14927D03*G54D46*
X22085Y10500D03*G54D54*X13539Y14927D03*G54D46*X22085Y9750D03*G54D54*
X13933Y14927D03*G54D46*X22085Y9000D03*G54D54*X14327Y14927D03*G54D43*
X18189Y10571D03*G54D54*X10390Y14927D03*G54D43*X18189Y10965D03*G54D54*
X9209Y14927D03*G54D43*X18189Y11358D03*G54D54*X9602Y14927D03*G54D43*
X18189Y10177D03*G54D54*X11177Y14927D03*G54D43*X18189Y10374D03*G54D54*
X10783Y14927D03*G54D45*X21250Y1817D03*G54D44*X17865Y2304D03*G54D55*
X19500Y3357D03*G54D44*X17865Y2796D03*G54D59*X24000Y2801D03*G54D48*
X22750Y2585D03*G54D46*X21415Y9000D03*G54D43*X18189Y8602D03*G54D46*
X21415Y9750D03*G54D43*X18189Y8798D03*G54D46*X21415Y11250D03*G54D43*
X18189Y9193D03*G54D46*X21415Y10500D03*G54D43*X18189Y8996D03*G54D46*
X21415Y12750D03*G54D43*X18189Y9587D03*G54D46*X21415Y14250D03*G54D43*
X18189Y9980D03*G54D46*X21415Y13500D03*G54D43*X18189Y9778D03*G54D46*
X21415Y12000D03*G54D43*X18189Y9390D03*Y10768D03*G54D54*X9996Y14927D03*G54D53*
X50980Y7935D03*G54D54*X15508Y14927D03*G54D53*X51472Y7935D03*G54D54*
X15114Y14927D03*G54D68*X25500Y5577D03*G54D43*X18189Y5650D03*G54D68*
X34500Y5577D03*G54D43*X18189Y6437D03*G54D68*X32250Y5577D03*G54D43*
X18189Y6240D03*G54D68*X30000Y5577D03*G54D43*X18189Y6043D03*G54D68*
X27750Y5577D03*G54D43*X18189Y5846D03*G54D21*X59125Y-4000D02*X59875D01*Y-5000*
Y-4485D02*X59418D01*X58875Y-4000D02*Y-4712D01*X58823Y-4864*X58718Y-4955*
X58553Y-5000*X58448*X58290Y-4955*X58185Y-4864*X58125Y-4712*Y-4000*X57875D02*
Y-5000D01*X57125*X56875Y-4000D02*Y-5000D01*X56125*X55875D02*Y-4000D01*X55395*
X55238Y-4061*X55185Y-4106*X55125Y-4197*Y-4333*X55185Y-4439*X55238Y-4485*
X55395Y-4530*X55875*X54875Y-4000D02*Y-5000D01*X54125*X53740Y-4667D02*X53268D01*
X53875Y-5000D02*X53508Y-4000D01*X53125Y-5000*X52125Y-4000D02*X52500Y-4485D01*
X52875Y-4000D02*X52500Y-4485D01*Y-5000*X50823Y-4242D02*Y-4197D01*X50770Y-4106*
X50718Y-4061*X50613Y-4000*X50395*X50290Y-4061*X50238Y-4106*X50185Y-4197*Y-4288*
X50238Y-4379*X50343Y-4530*X50875Y-5000*X50125*X49553Y-4015D02*X49718Y-4061D01*
X49823Y-4197*X49875Y-4439*Y-4576*X49823Y-4818*X49718Y-4955*X49553Y-5000*X49448*
X49290Y-4955*X49185Y-4818*X49125Y-4576*Y-4439*X49185Y-4197*X49290Y-4061*
X49448Y-4015*X49553*X48553D02*X48718Y-4061D01*X48823Y-4197*X48875Y-4439*Y-4576*
X48823Y-4818*X48718Y-4955*X48553Y-5000*X48448*X48290Y-4955*X48185Y-4818*
X48125Y-4576*Y-4439*X48185Y-4197*X48290Y-4061*X48448Y-4015*X48553*
X47875Y-4576D02*X47125D01*X46553Y-4015D02*X46718Y-4061D01*X46823Y-4197*
X46875Y-4439*Y-4576*X46823Y-4818*X46718Y-4955*X46553Y-5000*X46448*X46290Y-4955*
X46185Y-4818*X46125Y-4576*Y-4439*X46185Y-4197*X46290Y-4061*X46448Y-4015*X46553*
X45553D02*X45718Y-4061D01*X45823Y-4197*X45875Y-4439*Y-4576*X45823Y-4818*
X45718Y-4955*X45553Y-5000*X45448*X45290Y-4955*X45185Y-4818*X45125Y-4576*Y-4439*
X45185Y-4197*X45290Y-4061*X45448Y-4015*X45553*X44583Y-4197D02*X44523Y-4152D01*
X44433Y-4015*Y-5000*X43125Y-4333D02*X43185Y-4485D01*X43298Y-4576*X43478Y-4621*
X43530*X43703Y-4576*X43823Y-4485*X43875Y-4333*Y-4288*X43823Y-4152*X43703Y-4061*
X43530Y-4015*X43478*X43298Y-4061*X43185Y-4152*X43125Y-4333*Y-4576*X43185Y-4818*
X43298Y-4955*X43478Y-5000*X43590*X43763Y-4955*X43823Y-4864*X42875Y-4576D02*
X42125D01*X41553Y-4015D02*X41718Y-4061D01*X41823Y-4197*X41875Y-4439*Y-4576*
X41823Y-4818*X41718Y-4955*X41553Y-5000*X41448*X41290Y-4955*X41185Y-4818*
X41125Y-4576*Y-4439*X41185Y-4197*X41290Y-4061*X41448Y-4015*X41553*X40380D02*
Y-5000D01*Y-4015D02*X40875Y-4667D01*X40125*X38875Y-5000D02*Y-4000D01*X38395*
X38238Y-4061*X38185Y-4106*X38125Y-4197*Y-4288*X38185Y-4379*X38238Y-4439*
X38395Y-4485*X38875*X38508D02*X38125Y-5000D01*X37125Y-4000D02*X37875D01*Y-5000*
X37125*X37875Y-4485D02*X37418D01*X36875Y-4000D02*X36508Y-5000D01*X36125Y-4000*
X34740Y-4667D02*X34268D01*X34875Y-5000D02*X34508Y-4000D01*X34125Y-5000*
X32875D02*Y-4000D01*X32395*X32238Y-4061*X32185Y-4106*X32125Y-4197*Y-4333*
X32185Y-4439*X32238Y-4485*X32395Y-4530*X32875*X31875Y-4000D02*X31695Y-5000D01*
X31508Y-4379*X31320Y-5000*X31125Y-4000*X30875Y-4485D02*X30395D01*X30238Y-4530*
X30185Y-4576*X30125Y-4667*Y-4818*X30185Y-4909*X30238Y-4955*X30395Y-5000*X30875*
Y-4000*X30395*X30238Y-4061*X30185Y-4106*X30125Y-4197*Y-4288*X30185Y-4379*
X30238Y-4439*X30395Y-4485*X28125Y-4152D02*X28238Y-4061D01*X28395Y-4000*X28613*
X28770Y-4061*X28875Y-4152*Y-4242*X28823Y-4333*X28770Y-4379*X28665Y-4439*
X28343Y-4530*X28238Y-4576*X28185Y-4621*X28125Y-4712*Y-4864*X28238Y-4955*
X28395Y-5000*X28613*X28770Y-4955*X28875Y-4864*X27598Y-4000D02*X27688Y-4061D01*
X27785Y-4152*X27830Y-4242*X27875Y-4379*Y-4621*X27830Y-4758*X27785Y-4864*
X27688Y-4955*X27598Y-5000*X27410*X27320Y-4955*X27223Y-4864*X27178Y-4758*
X27125Y-4621*Y-4379*X27178Y-4242*X27223Y-4152*X27320Y-4061*X27410Y-4000*X27598*
X26875D02*Y-5000D01*X26125*X25875Y-4000D02*X25500D01*X25343Y-4061*X25238Y-4152*
X25185Y-4242*X25125Y-4379*Y-4621*X25185Y-4758*X25238Y-4864*X25343Y-4955*
X25500Y-5000*X25875*Y-4000*X24125D02*X24875D01*Y-5000*X24125*X24875Y-4485D02*
X24418D01*X23875Y-5000D02*Y-4000D01*X23395*X23238Y-4061*X23185Y-4106*
X23125Y-4197*Y-4288*X23185Y-4379*X23238Y-4439*X23395Y-4485*X23875*X23508D02*
X23125Y-5000D01*X22875D02*Y-4000D01*X22395*X22238Y-4061*X22185Y-4106*
X22125Y-4197*Y-4333*X22185Y-4439*X22238Y-4485*X22395Y-4530*X22875*
X21740Y-4667D02*X21268D01*X21875Y-5000D02*X21508Y-4000D01*X21125Y-5000*
X20125Y-4152D02*X20238Y-4061D01*X20395Y-4000*X20613*X20770Y-4061*X20875Y-4152*
Y-4242*X20823Y-4333*X20770Y-4379*X20665Y-4439*X20343Y-4530*X20238Y-4576*
X20185Y-4621*X20125Y-4712*Y-4864*X20238Y-4955*X20395Y-5000*X20613*X20770Y-4955*
X20875Y-4864*X19875Y-4000D02*X19125D01*X19500D02*Y-5000D01*X18125Y-4000D02*
X18875D01*Y-5000*X18125*X18875Y-4485D02*X18418D01*X16875Y-4000D02*Y-5000D01*
X16125*X15740Y-4667D02*X15268D01*X15875Y-5000D02*X15508Y-4000D01*X15125Y-5000*
X14125Y-4000D02*X14500Y-4485D01*X14875Y-4000D02*X14500Y-4485D01*Y-5000*
X13125Y-4000D02*X13875D01*Y-5000*X13125*X13875Y-4485D02*X13418D01*
X12875Y-5000D02*Y-4000D01*X12395*X12238Y-4061*X12185Y-4106*X12125Y-4197*Y-4288*
X12185Y-4379*X12238Y-4439*X12395Y-4485*X12875*X12508D02*X12125Y-5000D01*
X10583Y-4197D02*X10523Y-4152D01*X10433Y-4015*Y-5000*M02*
