%MOIN*%
%FSLAN2X24Y24*%
%ADD10C,0.0240000*%
%ADD11C,0.0010000*%
%ADD12C,0.0020000*%
%ADD13C,0.0030000*%
%ADD14C,0.0050000*%
%ADD15C,0.0060000*%
%ADD16C,0.0065000*%
%ADD17C,0.0078740*%
%ADD18C,0.0079921*%
%ADD19C,0.0080000*%
%ADD20C,0.0085000*%
%ADD21C,0.0100000*%
%ADD22C,0.0110000*%
%ADD23C,0.0112000*%
%ADD24C,0.0135000*%
%ADD25C,0.0140000*%
%ADD26C,0.0150000*%
%ADD27C,0.0156000*%
%ADD28C,0.0187000*%
%ADD29C,0.0200000*%
%ADD30C,0.0250000*%
%ADD31C,845.4660028*%
%ADD32R,0.0100000X0.0100000*%
%ADD33R,0.0120000X0.0120000*%
%ADD34R,0.0150000X0.0150000*%
%ADD35R,0.0200000X0.0200000*%
%ADD36C,0.0500000*%
%ADD37C,0.0600000*%
%ADD38C,0.0840000*%
%ADD39C,0.0900000*%
%ADD40C,0.1500000*%
%ADD41C,0.1750000*%
%ADD42C,0.1850000*%
%ADD43R,0.0510000X0.0120000*%
%ADD44R,0.0630000X0.0320000*%
%ADD45R,0.0358268X0.0358268*%
%ADD46R,0.0433071X0.0393701*%
%ADD47R,0.0730000X0.0420000*%
%ADD48R,0.0393701X0.0433071*%
%ADD49R,0.0438268X0.0438268*%
%ADD50R,0.0513071X0.0473701*%
%ADD51R,0.0473701X0.0513071*%
%ADD52R,0.0870000X0.0630000*%
%ADD53R,0.0320000X0.0630000*%
%ADD54R,0.0236220X0.0669291*%
%ADD55R,0.1062992X0.0708661*%
%ADD56R,0.0970000X0.0730000*%
%ADD57R,0.0420000X0.0730000*%
%ADD58R,0.0316220X0.0749291*%
%ADD59R,0.0472441X0.0787402*%
%ADD60R,0.1142992X0.0788661*%
%ADD61R,0.0870000X0.0790000*%
%ADD62R,0.1180000X0.0830000*%
%ADD63R,0.0552441X0.0867402*%
%ADD64R,0.0350000X0.0870000*%
%ADD65R,0.0970000X0.0890000*%
%ADD66R,0.1280000X0.0930000*%
%ADD67R,0.0450000X0.0970000*%
%ADD68R,0.0629921X0.1023622*%
%ADD69R,0.0550000X0.1050000*%
%ADD70R,0.0709921X0.1103622*%
%ADD71R,0.0650000X0.1150000*%
%ADD72R,0.0830000X0.1180000*%
%ADD73R,0.0930000X0.1280000*%
G90*G70*G01*D02*G36*X18494Y12511D02*Y11701D01*X16424*Y12511*X18494*G37*G36*
Y5307D02*Y4497D01*X16424*Y5307*X18494*G37*G54D70*X25500Y3923D03*Y5577D03*
X30000Y3923D03*Y5577D03*X36750Y3923D03*Y5577D03*X34500Y3923D03*Y5577D03*
X39000Y3923D03*Y5577D03*X27750Y3923D03*Y5577D03*X32250Y3923D03*Y5577D03*
X41250Y3923D03*Y5577D03*G54D51*X66750Y9665D03*Y10335D03*X60500Y3915D03*Y4585D03*
G54D63*X24000Y2801D03*Y1699D03*G54D49*X43183Y8874D03*Y8126D03*X42317Y8500D03*
G54D58*X18657Y13411D03*X18264D03*X17870D03*X17476D03*X17083D03*X16689D03*
X16295D03*X15902D03*X15508D03*X15114D03*X14720D03*X14327D03*X13933D03*X13539D03*
X13146D03*X12752D03*X12358D03*X11965D03*X11571D03*X11177D03*X10783D03*X10390D03*
X9996D03*X9602D03*X9209D03*X8815D03*X8421D03*X8028D03*X7634D03*X7240D03*
X18657Y14927D03*X18264D03*X17870D03*X17476D03*X17083D03*X16689D03*X16295D03*
X15902D03*X15508D03*X15114D03*X14720D03*X14327D03*X13933D03*X13539D03*X13146D03*
X12752D03*X12358D03*X11965D03*X11571D03*X11177D03*X10783D03*X10390D03*X9996D03*
X9602D03*X9209D03*X8815D03*X8421D03*X8028D03*X7634D03*X7240D03*G54D49*
X20876Y2683D03*X21624D03*X21250Y1817D03*G54D51*X67500Y10335D03*Y9665D03*
X59750Y4585D03*Y3915D03*G54D60*X19500Y1625D03*Y3357D03*G54D51*X22750Y1915D03*
Y2585D03*X66000Y10335D03*Y9665D03*X59000Y4585D03*Y3915D03*G54D50*X22085Y9000D03*
X21415D03*X22085Y9750D03*X21415D03*X22085Y10500D03*X21415D03*X22085Y11250D03*
X21415D03*X22085Y12000D03*X21415D03*X22085Y12750D03*X21415D03*X22085Y13500D03*
X21415D03*X22085Y14250D03*X21415D03*G54D57*X51965Y7935D03*G54D40*X2000Y4500D03*
X68300D03*Y14250D03*G54D66*X16723Y3800D03*Y1300D03*G54D57*X49996Y7935D03*
X50488D03*G54D73*X53461Y9077D03*X46039D03*G54D57*X47043Y7935D03*X47535D03*
X48028D03*G54D39*X66600Y6150D03*G54D57*X52457Y7935D03*G54D36*X53165Y5275D03*
G54D42*X68307Y16335D03*X33660Y17120D03*X1380D03*Y1370D03*X68307Y2161D03*G54D36*
X56165Y5275D03*G54D57*X49012Y7935D03*X49504D03*X48520D03*G54D47*X17865Y2304D03*
Y2796D03*G54D36*X54165Y5275D03*G54D57*X50980Y7935D03*X51472D03*G54D21*
X58625Y-2000D02*X59375D01*Y-3000*Y-2485D02*X58918D01*X58375Y-2000D02*Y-2712D01*
X58323Y-2864*X58218Y-2955*X58053Y-3000*X57948*X57790Y-2955*X57685Y-2864*
X57625Y-2712*Y-2000*X57375D02*Y-3000D01*X56625*X56375Y-2000D02*Y-3000D01*X55625*
X55375D02*Y-2000D01*X54895*X54738Y-2061*X54685Y-2106*X54625Y-2197*Y-2333*
X54685Y-2439*X54738Y-2485*X54895Y-2530*X55375*X54375Y-2000D02*Y-3000D01*X53625*
X53240Y-2667D02*X52768D01*X53375Y-3000D02*X53008Y-2000D01*X52625Y-3000*
X51625Y-2000D02*X52000Y-2485D01*X52375Y-2000D02*X52000Y-2485D01*Y-3000*
X50323Y-2242D02*Y-2197D01*X50270Y-2106*X50218Y-2061*X50113Y-2000*X49895*
X49790Y-2061*X49738Y-2106*X49685Y-2197*Y-2288*X49738Y-2379*X49843Y-2530*
X50375Y-3000*X49625*X49053Y-2015D02*X49218Y-2061D01*X49323Y-2197*X49375Y-2439*
Y-2576*X49323Y-2818*X49218Y-2955*X49053Y-3000*X48948*X48790Y-2955*X48685Y-2818*
X48625Y-2576*Y-2439*X48685Y-2197*X48790Y-2061*X48948Y-2015*X49053*X48053D02*
X48218Y-2061D01*X48323Y-2197*X48375Y-2439*Y-2576*X48323Y-2818*X48218Y-2955*
X48053Y-3000*X47948*X47790Y-2955*X47685Y-2818*X47625Y-2576*Y-2439*X47685Y-2197*
X47790Y-2061*X47948Y-2015*X48053*X47375Y-2576D02*X46625D01*X46053Y-2015D02*
X46218Y-2061D01*X46323Y-2197*X46375Y-2439*Y-2576*X46323Y-2818*X46218Y-2955*
X46053Y-3000*X45948*X45790Y-2955*X45685Y-2818*X45625Y-2576*Y-2439*X45685Y-2197*
X45790Y-2061*X45948Y-2015*X46053*X45053D02*X45218Y-2061D01*X45323Y-2197*
X45375Y-2439*Y-2576*X45323Y-2818*X45218Y-2955*X45053Y-3000*X44948*X44790Y-2955*
X44685Y-2818*X44625Y-2576*Y-2439*X44685Y-2197*X44790Y-2061*X44948Y-2015*X45053*
X44083Y-2197D02*X44023Y-2152D01*X43933Y-2015*Y-3000*X42625Y-2333D02*
X42685Y-2485D01*X42798Y-2576*X42978Y-2621*X43030*X43203Y-2576*X43323Y-2485*
X43375Y-2333*Y-2288*X43323Y-2152*X43203Y-2061*X43030Y-2015*X42978*X42798Y-2061*
X42685Y-2152*X42625Y-2333*Y-2576*X42685Y-2818*X42798Y-2955*X42978Y-3000*X43090*
X43263Y-2955*X43323Y-2864*X42375Y-2576D02*X41625D01*X41053Y-2015D02*
X41218Y-2061D01*X41323Y-2197*X41375Y-2439*Y-2576*X41323Y-2818*X41218Y-2955*
X41053Y-3000*X40948*X40790Y-2955*X40685Y-2818*X40625Y-2576*Y-2439*X40685Y-2197*
X40790Y-2061*X40948Y-2015*X41053*X39880D02*Y-3000D01*Y-2015D02*X40375Y-2667D01*
X39625*X38375Y-3000D02*Y-2000D01*X37895*X37738Y-2061*X37685Y-2106*X37625Y-2197*
Y-2288*X37685Y-2379*X37738Y-2439*X37895Y-2485*X38375*X38008D02*X37625Y-3000D01*
X36625Y-2000D02*X37375D01*Y-3000*X36625*X37375Y-2485D02*X36918D01*
X36375Y-2000D02*X36008Y-3000D01*X35625Y-2000*X34240Y-2667D02*X33768D01*
X34375Y-3000D02*X34008Y-2000D01*X33625Y-3000*X32375D02*Y-2000D01*X31895*
X31738Y-2061*X31685Y-2106*X31625Y-2197*Y-2333*X31685Y-2439*X31738Y-2485*
X31895Y-2530*X32375*X31375Y-2000D02*X31195Y-3000D01*X31008Y-2379*X30820Y-3000*
X30625Y-2000*X30375Y-2485D02*X29895D01*X29738Y-2530*X29685Y-2576*X29625Y-2667*
Y-2818*X29685Y-2909*X29738Y-2955*X29895Y-3000*X30375*Y-2000*X29895*X29738Y-2061*
X29685Y-2106*X29625Y-2197*Y-2288*X29685Y-2379*X29738Y-2439*X29895Y-2485*
X27625Y-2152D02*X27738Y-2061D01*X27895Y-2000*X28113*X28270Y-2061*X28375Y-2152*
Y-2242*X28323Y-2333*X28270Y-2379*X28165Y-2439*X27843Y-2530*X27738Y-2576*
X27685Y-2621*X27625Y-2712*Y-2864*X27738Y-2955*X27895Y-3000*X28113*X28270Y-2955*
X28375Y-2864*X27098Y-2000D02*X27188Y-2061D01*X27285Y-2152*X27330Y-2242*
X27375Y-2379*Y-2621*X27330Y-2758*X27285Y-2864*X27188Y-2955*X27098Y-3000*X26910*
X26820Y-2955*X26723Y-2864*X26678Y-2758*X26625Y-2621*Y-2379*X26678Y-2242*
X26723Y-2152*X26820Y-2061*X26910Y-2000*X27098*X26375D02*Y-3000D01*X25625*
X25375Y-2000D02*X25000D01*X24843Y-2061*X24738Y-2152*X24685Y-2242*X24625Y-2379*
Y-2621*X24685Y-2758*X24738Y-2864*X24843Y-2955*X25000Y-3000*X25375*Y-2000*
X23625D02*X24375D01*Y-3000*X23625*X24375Y-2485D02*X23918D01*X23375Y-3000D02*
Y-2000D01*X22895*X22738Y-2061*X22685Y-2106*X22625Y-2197*Y-2288*X22685Y-2379*
X22738Y-2439*X22895Y-2485*X23375*X23008D02*X22625Y-3000D01*X22375D02*Y-2000D01*
X22000Y-3000*X21625Y-2000*Y-3000*X21240Y-2667D02*X20768D01*X21375Y-3000D02*
X21008Y-2000D01*X20625Y-3000*X19625Y-2152D02*X19738Y-2061D01*X19895Y-2000*
X20113*X20270Y-2061*X20375Y-2152*Y-2242*X20323Y-2333*X20270Y-2379*X20165Y-2439*
X19843Y-2530*X19738Y-2576*X19685Y-2621*X19625Y-2712*Y-2864*X19738Y-2955*
X19895Y-3000*X20113*X20270Y-2955*X20375Y-2864*X19113Y-2439D02*X18625Y-3000D01*
Y-2000D02*X19375Y-2667D01*Y-2000D02*Y-3000D01*X17375Y-2000D02*Y-3000D01*X16625*
X16240Y-2667D02*X15768D01*X16375Y-3000D02*X16008Y-2000D01*X15625Y-3000*
X14625Y-2000D02*X15000Y-2485D01*X15375Y-2000D02*X15000Y-2485D01*Y-3000*
X13625Y-2000D02*X14375D01*Y-3000*X13625*X14375Y-2485D02*X13918D01*
X13375Y-3000D02*Y-2000D01*X12895*X12738Y-2061*X12685Y-2106*X12625Y-2197*Y-2288*
X12685Y-2379*X12738Y-2439*X12895Y-2485*X13375*X13008D02*X12625Y-3000D01*
X11323Y-2242D02*Y-2197D01*X11270Y-2106*X11218Y-2061*X11113Y-2000*X10895*
X10790Y-2061*X10738Y-2106*X10685Y-2197*Y-2288*X10738Y-2379*X10843Y-2530*
X11375Y-3000*X10625*M02*
