%MOIN*%
%FSLAN2X24Y24*%
%ADD10C,0.0240000*%
%ADD11C,0.0010000*%
%ADD12C,0.0020000*%
%ADD13C,0.0030000*%
%ADD14C,0.0050000*%
%ADD15C,0.0060000*%
%ADD16C,0.0065000*%
%ADD17C,0.0079921*%
%ADD18C,0.0080000*%
%ADD19C,0.0085000*%
%ADD20C,0.0100000*%
%ADD21C,0.0110000*%
%ADD22C,0.0112000*%
%ADD23C,0.0135000*%
%ADD24C,0.0140000*%
%ADD25C,0.0150000*%
%ADD26C,0.0156000*%
%ADD27C,0.0187000*%
%ADD28C,0.0200000*%
%ADD29C,0.0250000*%
%ADD30C,845.4660028*%
%ADD31R,0.0100000X0.0100000*%
%ADD32R,0.0200000X0.0200000*%
%ADD33R,0.0250000X0.0250000*%
%ADD34C,0.0500000*%
%ADD35C,0.0840000*%
%ADD36C,0.0900000*%
%ADD37C,0.1500000*%
%ADD38C,0.1750000*%
%ADD39C,0.1850000*%
%ADD40R,0.0358268X0.0358268*%
%ADD41R,0.0433071X0.0393701*%
%ADD42R,0.0438268X0.0438268*%
%ADD43R,0.0513071X0.0473701*%
%ADD44R,0.0390000X0.0590000*%
%ADD45R,0.0511811X0.0590551*%
%ADD46R,0.0320000X0.0630000*%
%ADD47R,0.0591811X0.0670551*%
%ADD48R,0.0490000X0.0690000*%
%ADD49R,0.0420000X0.0730000*%
%ADD50R,0.0550000X0.1050000*%
%ADD51R,0.0650000X0.1150000*%
%ADD52R,0.0830000X0.1180000*%
%ADD53R,0.0930000X0.1280000*%
G90*G70*G01*D02*G54D11*X13925Y2075D02*Y2425D01*X14575*Y2075*X13925*Y3575D02*
Y3925D01*X14575*Y3575*X13925*G54D14*X16663Y11260D02*X10069D01*X16663D02*
Y9606D01*D02*X10069D01*Y11260D02*Y9606D01*X10066Y11106D02*X9476D01*Y10866*X9396*
Y9996*X10066*X16666Y11106D02*X17256D01*Y10866*X17336*Y9996*X16656*G54D11*
X17475Y3175D02*Y4325D01*X18025*Y3175*X17475*Y1675D02*Y2825D01*X18025*Y1675*
X17475*X17350Y4750D02*Y5250D01*X18150*Y4750*X17350*Y5700D02*Y6200D01*X18150*
Y5700*X17350*X12900Y2500D02*Y2000D01*X12100*Y2500*X12900*X16400D02*Y2000D01*
X15600*Y2500*X16400*Y4000D02*Y3500D01*X15600*Y4000*X16400*X12900D02*Y3500D01*
X12100*Y4000*X12900*G54D13*X14673Y2288D02*X14645Y2303D01*X14618Y2335*
X14600Y2364*Y2425*X14618Y2454*X14645Y2483*X14673Y2499*X14714Y2513*X14786*
X14827Y2499*X14859Y2483*X14886Y2454*X14900Y2425*Y2364*X14886Y2335*X14859Y2303*
X14827Y2288*X14659Y2125D02*X14645Y2107D01*X14605Y2080*X14900*X13673Y3788D02*
X13645Y3803D01*X13618Y3835*X13600Y3864*Y3925*X13618Y3954*X13645Y3983*
X13673Y3999*X13714Y4013*X13786*X13827Y3999*X13859Y3983*X13886Y3954*X13900Y3925*
Y3864*X13886Y3835*X13859Y3803*X13827Y3788*X13673Y3697D02*X13659D01*X13632Y3681*
X13618Y3665*X13600Y3634*Y3569*X13618Y3537*X13632Y3521*X13659Y3506*X13686*
X13714Y3521*X13759Y3553*X13900Y3713*Y3488*X13406Y10146D02*Y9919D01*X13428Y9874*
X13451Y9860*X13494Y9846*X13541*X13584Y9860*X13606Y9874*X13629Y9919*Y9946*
X13180Y10142D02*Y9846D01*Y10142D02*X13329Y9946D01*X13104*X17845Y3887D02*
X17927Y3803D01*X17600Y3929D02*X17618Y3956D01*X17645Y3986*X17673Y3999*
X17714Y4013*X17786*X17827Y3999*X17859Y3986*X17886Y3956*X17900Y3929*Y3873*
X17886Y3846*X17859Y3817*X17827Y3803*X17786Y3788*X17714*X17673Y3803*X17645Y3817*
X17618Y3846*X17600Y3873*Y3929*X17673Y3697D02*X17659D01*X17632Y3681*X17618Y3665*
X17600Y3634*Y3569*X17618Y3537*X17632Y3521*X17659Y3506*X17686*X17714Y3521*
X17759Y3553*X17900Y3713*Y3488*X17845Y2387D02*X17927Y2303D01*X17600Y2429D02*
X17618Y2456D01*X17645Y2486*X17673Y2499*X17714Y2513*X17786*X17827Y2499*
X17859Y2486*X17886Y2456*X17900Y2429*Y2373*X17886Y2346*X17859Y2317*X17827Y2303*
X17786Y2288*X17714*X17673Y2303*X17645Y2317*X17618Y2346*X17600Y2373*Y2429*
X17605Y2181D02*Y2006D01*X17718Y2102*Y2053*X17732Y2021*X17745Y2006*X17786Y1988*
X17818*X17859Y2006*X17886Y2037*X17900Y2084*Y2134*X17886Y2181*X17873Y2197*
X17845Y2213*X17900Y4513D02*X17600D01*Y4369*X17618Y4321*X17632Y4306*X17659Y4288*
X17686*X17714Y4306*X17732Y4321*X17745Y4369*Y4513*Y4402D02*X17900Y4288D01*
X17605Y4021D02*Y4181D01*X17732Y4197*X17718Y4181*X17705Y4134*Y4087*X17718Y4037*
X17745Y4006*X17786Y3988*X17818*X17859Y4006*X17886Y4037*X17900Y4087*Y4134*
X17886Y4181*X17873Y4197*X17845Y4213*X17900Y5463D02*X17600D01*Y5319*X17618Y5271*
X17632Y5256*X17659Y5238*X17686*X17714Y5256*X17732Y5271*X17745Y5319*Y5463*
Y5352D02*X17900Y5238D01*X17645Y4956D02*X17618Y4974D01*X17605Y5025*Y5059*
X17618Y5111*X17659Y5147*X17732Y5163*X17800*X17859Y5147*X17886Y5111*X17900Y5059*
Y5043*X17886Y4992*X17859Y4956*X17818Y4938*X17800*X17759Y4956*X17732Y4992*
X17718Y5043*Y5059*X17732Y5111*X17759Y5147*X17800Y5163*X13150Y2513D02*X12850D01*
Y2369*X12868Y2321*X12882Y2306*X12909Y2288*X12936*X12964Y2306*X12982Y2321*
X12995Y2369*Y2513*Y2402D02*X13150Y2288D01*X12855Y2134D02*X12868Y2181D01*
X12895Y2197*X12923*X12955Y2181*X12968Y2150*X12982Y2084*X12995Y2037*X13023Y2006*
X13050Y1988*X13095*X13123Y2006*X13136Y2021*X13150Y2069*Y2134*X13136Y2181*
X13123Y2197*X13095Y2213*X13050*X13023Y2197*X12995Y2165*X12982Y2118*X12968Y2053*
X12955Y2021*X12923Y2006*X12895*X12868Y2021*X12855Y2069*Y2134*X16650Y2513D02*
X16350D01*Y2369*X16368Y2321*X16382Y2306*X16409Y2288*X16436*X16464Y2306*
X16482Y2321*X16495Y2369*Y2513*Y2402D02*X16650Y2288D01*X16450Y1988D02*
X16495Y2006D01*X16523Y2039*X16536Y2093*Y2109*X16523Y2161*X16495Y2197*
X16450Y2213*X16436*X16395Y2197*X16368Y2161*X16355Y2109*Y2093*X16368Y2039*
X16395Y2006*X16450Y1988*X16523*X16595Y2006*X16636Y2039*X16650Y2093*Y2127*
X16636Y2179*X16609Y2197*X15650Y4163D02*X15350D01*Y4019*X15368Y3971*X15382Y3956*
X15409Y3938*X15436*X15464Y3956*X15482Y3971*X15495Y4019*Y4163*Y4052D02*
X15650Y3938D01*X15409Y3775D02*X15395Y3757D01*X15355Y3730*X15650*X15355Y3466D02*
X15368Y3515D01*X15409Y3547*X15482Y3563*X15523*X15595Y3547*X15636Y3515*
X15650Y3466*Y3434*X15636Y3387*X15595Y3356*X15523Y3338*X15482*X15409Y3356*
X15368Y3387*X15355Y3434*Y3466*X12150Y4163D02*X11850D01*Y4019*X11868Y3971*
X11882Y3956*X11909Y3938*X11936*X11964Y3956*X11982Y3971*X11995Y4019*Y4163*
Y4052D02*X12150Y3938D01*X11909Y3775D02*X11895Y3757D01*X11855Y3730*X12150*
X11909Y3475D02*X11895Y3457D01*X11855Y3430*X12150*G54D20*X32875Y-2000D02*
X33625D01*Y-3000*Y-2485D02*X33168D01*X32625Y-2000D02*Y-2712D01*X32573Y-2864*
X32468Y-2955*X32303Y-3000*X32198*X32040Y-2955*X31935Y-2864*X31875Y-2712*Y-2000*
X31625D02*Y-3000D01*X30875*X30625Y-2000D02*Y-3000D01*X29875*X29625D02*Y-2000D01*
X29145*X28988Y-2061*X28935Y-2106*X28875Y-2197*Y-2333*X28935Y-2439*X28988Y-2485*
X29145Y-2530*X29625*X28625Y-2000D02*Y-3000D01*X27875*X27490Y-2667D02*X27018D01*
X27625Y-3000D02*X27258Y-2000D01*X26875Y-3000*X25875Y-2000D02*X26250Y-2485D01*
X26625Y-2000D02*X26250Y-2485D01*Y-3000*X24333Y-2197D02*X24273Y-2152D01*
X24183Y-2015*Y-3000*X23303Y-2015D02*X23468Y-2061D01*X23573Y-2197*X23625Y-2439*
Y-2576*X23573Y-2818*X23468Y-2955*X23303Y-3000*X23198*X23040Y-2955*X22935Y-2818*
X22875Y-2576*Y-2439*X22935Y-2197*X23040Y-2061*X23198Y-2015*X23303*X22303D02*
X22468Y-2061D01*X22573Y-2197*X22625Y-2439*Y-2576*X22573Y-2818*X22468Y-2955*
X22303Y-3000*X22198*X22040Y-2955*X21935Y-2818*X21875Y-2576*Y-2439*X21935Y-2197*
X22040Y-2061*X22198Y-2015*X22303*X21625Y-2576D02*X20875D01*X20303Y-2015D02*
X20468Y-2061D01*X20573Y-2197*X20625Y-2439*Y-2576*X20573Y-2818*X20468Y-2955*
X20303Y-3000*X20198*X20040Y-2955*X19935Y-2818*X19875Y-2576*Y-2439*X19935Y-2197*
X20040Y-2061*X20198Y-2015*X20303*X19303D02*X19468Y-2061D01*X19573Y-2197*
X19625Y-2439*Y-2576*X19573Y-2818*X19468Y-2955*X19303Y-3000*X19198*X19040Y-2955*
X18935Y-2818*X18875Y-2576*Y-2439*X18935Y-2197*X19040Y-2061*X19198Y-2015*X19303*
X18573Y-2242D02*Y-2197D01*X18520Y-2106*X18468Y-2061*X18363Y-2000*X18145*
X18040Y-2061*X17988Y-2106*X17935Y-2197*Y-2288*X17988Y-2379*X18093Y-2530*
X18625Y-3000*X17875*X17520Y-2015D02*X16935D01*X17258Y-2394*X17093*X16988Y-2439*
X16935Y-2485*X16875Y-2621*Y-2727*X16935Y-2864*X17040Y-2955*X17198Y-3000*X17363*
X17520Y-2955*X17573Y-2909*X17625Y-2818*X16625Y-2576D02*X15875D01*
X15303Y-2015D02*X15468Y-2061D01*X15573Y-2197*X15625Y-2439*Y-2576*X15573Y-2818*
X15468Y-2955*X15303Y-3000*X15198*X15040Y-2955*X14935Y-2818*X14875Y-2576*Y-2439*
X14935Y-2197*X15040Y-2061*X15198Y-2015*X15303*X14130D02*Y-3000D01*Y-2015D02*
X14625Y-2667D01*X13875*X12625Y-3000D02*Y-2000D01*X12145*X11988Y-2061*
X11935Y-2106*X11875Y-2197*Y-2333*X11935Y-2439*X11988Y-2485*X12145Y-2530*X12625*
X11625Y-2000D02*X11445Y-3000D01*X11258Y-2379*X11070Y-3000*X10875Y-2000*
X10625Y-2485D02*X10145D01*X9988Y-2530*X9935Y-2576*X9875Y-2667*Y-2818*
X9935Y-2909*X9988Y-2955*X10145Y-3000*X10625*Y-2000*X10145*X9988Y-2061*
X9935Y-2106*X9875Y-2197*Y-2288*X9935Y-2379*X9988Y-2439*X10145Y-2485*
X8490Y-2667D02*X8018D01*X8625Y-3000D02*X8258Y-2000D01*X7875Y-3000*
X6875Y-2152D02*X6988Y-2061D01*X7145Y-2000*X7363*X7520Y-2061*X7625Y-2152*Y-2242*
X7573Y-2333*X7520Y-2379*X7415Y-2439*X7093Y-2530*X6988Y-2576*X6935Y-2621*
X6875Y-2712*Y-2864*X6988Y-2955*X7145Y-3000*X7363*X7520Y-2955*X7625Y-2864*
X5875Y-2152D02*X5988Y-2061D01*X6145Y-2000*X6363*X6520Y-2061*X6625Y-2152*Y-2242*
X6573Y-2333*X6520Y-2379*X6415Y-2439*X6093Y-2530*X5988Y-2576*X5935Y-2621*
X5875Y-2712*Y-2864*X5988Y-2955*X6145Y-3000*X6363*X6520Y-2955*X6625Y-2864*
X4875Y-2000D02*X5625D01*Y-3000*X4875*X5625Y-2485D02*X5168D01*X4625Y-3000D02*
Y-2000D01*X4250Y-3000*X3875Y-2000*Y-3000*X3625Y-2485D02*X3145D01*X2988Y-2530*
X2935Y-2576*X2875Y-2667*Y-2818*X2935Y-2909*X2988Y-2955*X3145Y-3000*X3625*Y-2000*
X3145*X2988Y-2061*X2935Y-2106*X2875Y-2197*Y-2288*X2935Y-2379*X2988Y-2439*
X3145Y-2485*X2625Y-2000D02*Y-3000D01*X1875*X875Y-2000D02*X1250Y-2485D01*
X1625Y-2000D02*X1250Y-2485D01*Y-3000*X-375Y-2485D02*X-855D01*X-1012Y-2530*
X-1065Y-2576*X-1125Y-2667*Y-2818*X-1065Y-2909*X-1012Y-2955*X-855Y-3000*X-375*
Y-2000*X-855*X-1012Y-2061*X-1065Y-2106*X-1125Y-2197*Y-2288*X-1065Y-2379*
X-1012Y-2439*X-855Y-2485*X-1652Y-2000D02*X-1562Y-2061D01*X-1465Y-2152*
X-1420Y-2242*X-1375Y-2379*Y-2621*X-1420Y-2758*X-1465Y-2864*X-1562Y-2955*
X-1652Y-3000*X-1840*X-1930Y-2955*X-2027Y-2864*X-2072Y-2758*X-2125Y-2621*Y-2379*
X-2072Y-2242*X-2027Y-2152*X-1930Y-2061*X-1840Y-2000*X-1652*X-2375D02*X-3125D01*
X-2750D02*Y-3000D01*X-3375Y-2000D02*X-4125D01*X-3750D02*Y-3000D01*
X-4652Y-2000D02*X-4562Y-2061D01*X-4465Y-2152*X-4420Y-2242*X-4375Y-2379*Y-2621*
X-4420Y-2758*X-4465Y-2864*X-4562Y-2955*X-4652Y-3000*X-4840*X-4930Y-2955*
X-5027Y-2864*X-5072Y-2758*X-5125Y-2621*Y-2379*X-5072Y-2242*X-5027Y-2152*
X-4930Y-2061*X-4840Y-2000*X-4652*X-5375Y-3000D02*Y-2000D01*X-5750Y-3000*
X-6125Y-2000*Y-3000*M02*
