%MOIN*%
%FSLAN2X24Y24*%
%ADD10C,0.0240000*%
%ADD11C,0.0010000*%
%ADD12C,0.0020000*%
%ADD13C,0.0030000*%
%ADD14C,0.0050000*%
%ADD15C,0.0060000*%
%ADD16C,0.0065000*%
%ADD17C,0.0079921*%
%ADD18C,0.0080000*%
%ADD19C,0.0085000*%
%ADD20C,0.0100000*%
%ADD21C,0.0110000*%
%ADD22C,0.0112000*%
%ADD23C,0.0135000*%
%ADD24C,0.0140000*%
%ADD25C,0.0150000*%
%ADD26C,0.0156000*%
%ADD27C,0.0187000*%
%ADD28C,0.0200000*%
%ADD29C,0.0250000*%
%ADD30C,845.4660028*%
%ADD31R,0.0100000X0.0100000*%
%ADD32R,0.0200000X0.0200000*%
%ADD33R,0.0250000X0.0250000*%
%ADD34C,0.0500000*%
%ADD35C,0.0840000*%
%ADD36C,0.0900000*%
%ADD37C,0.1500000*%
%ADD38C,0.1750000*%
%ADD39C,0.1850000*%
%ADD40R,0.0358268X0.0358268*%
%ADD41R,0.0433071X0.0393701*%
%ADD42R,0.0438268X0.0438268*%
%ADD43R,0.0513071X0.0473701*%
%ADD44R,0.0390000X0.0590000*%
%ADD45R,0.0511811X0.0590551*%
%ADD46R,0.0320000X0.0630000*%
%ADD47R,0.0591811X0.0670551*%
%ADD48R,0.0490000X0.0690000*%
%ADD49R,0.0420000X0.0730000*%
%ADD50R,0.0550000X0.1050000*%
%ADD51R,0.0650000X0.1150000*%
%ADD52R,0.0830000X0.1180000*%
%ADD53R,0.0930000X0.1280000*%
G90*G70*G01*D02*G36*X15925Y16835D02*X15940Y16871D01*X15948Y16909*Y16927*Y16929**
Y16932*Y18279*Y18281*X15949Y18286*X15951Y18291*X15954Y18295*X15957Y18298*
X15961Y18301*X15966Y18303*X15971Y18304*X15973*X16943*Y17870*Y17130*X24176*
Y14750*X24031Y14721*X23895Y14665*X23772Y14583*X23667Y14478*X23585Y14355*
X23529Y14219*X23500Y14074*Y13926*X23529Y13781*X23585Y13645*X23667Y13522*
X23772Y13417*X23895Y13335*X24031Y13279*X24176Y13250*X24324*X24469Y13279*
X24605Y13335*X24728Y13417*X24833Y13522*X24915Y13645*X24971Y13781*X25000Y13926*
Y14074*X24971Y14219*X24915Y14355*X24833Y14478*X24728Y14583*X24605Y14665*
X24469Y14721*X24324Y14750*X24176*Y17130*X25558*Y17870*X16943*Y18304*X25936*
X25939*X25944Y18303*X25948Y18301*X25952Y18298*X25956Y18295*X25959Y18291*
X25960Y18286*X25961Y18281*Y18279*Y225*Y223*X25960Y218*X25959Y213*X25956Y209*
X25952Y206*X25948Y203*X25944Y201*X25939Y200*X25936*X225*X223*X218Y201*X213Y203*
X209Y206*X206Y209*X203Y213*X201Y218*X200Y223*Y225*Y15907*Y15909*X201Y15914*
X203Y15919*X206Y15923*X207Y15924*X657Y16374*Y11700*X618Y11692*X582Y11677*
X549Y11655*X521Y11627*X499Y11595*X484Y11558*X476Y11520*Y11480*X484Y11442*
X499Y11405*X521Y11373*X549Y11345*X582Y11323*X618Y11308*X659Y11300*X661Y11299*
X666Y11297*X670Y11294*X671Y11293*X1114Y10850*X1926*Y5250*X1781Y5221*X1645Y5165*
X1522Y5083*X1417Y4978*X1335Y4855*X1279Y4719*X1250Y4574*Y4426*X1279Y4281*
X1335Y4145*X1417Y4022*X1522Y3917*X1645Y3835*X1781Y3779*X1926Y3750*X2074*
X2219Y3779*X2355Y3835*X2478Y3917*X2583Y4022*X2665Y4145*X2721Y4281*X2750Y4426*
Y4574*X2721Y4719*X2665Y4855*X2583Y4978*X2478Y5083*X2355Y5165*X2219Y5221*
X2074Y5250*X1926*Y10850*X5109*X5114Y10849*X5119Y10847*X5155Y10823*X5192Y10808*
X5230Y10800*X5270*X5308Y10808*X5345Y10823*X5377Y10845*X5405Y10873*X5427Y10905*
X5442Y10942*X5450Y10980*Y11020*X5442Y11058*X5427Y11095*X5405Y11127*X5377Y11155*
X5345Y11177*X5308Y11192*X5270Y11200*X5230*X5192Y11192*X5155Y11177*X5121Y11154*
X5119Y11153*X5114Y11151*X5109Y11150*X5107*X1249*X1246*X1242Y11151*X1237Y11153*
X1233Y11156*X1231Y11157*X884Y11505*X882Y11507*X879Y11511*X877Y11515*Y11518*
X869Y11558*X854Y11595*X832Y11627*X804Y11655*X771Y11677*X735Y11692*X696Y11700*
X657*Y16374*X1926Y17643*Y14750*X1781Y14721*X1645Y14665*X1522Y14583*X1417Y14478*
X1335Y14355*X1279Y14219*X1250Y14074*Y13926*X1279Y13781*X1335Y13645*X1417Y13522*
X1522Y13417*X1645Y13335*X1781Y13279*X1926Y13250*X2074*X2219Y13279*X2355Y13335*
X2478Y13417*X2583Y13522*X2665Y13645*X2721Y13781*X2750Y13926*Y14074*X2721Y14219*
X2665Y14355*X2583Y14478*X2478Y14583*X2355Y14665*X2219Y14721*X2074Y14750*X1926*
Y17643*X2579Y18297*X2581Y18298*X2585Y18301*X2590Y18303*X2595Y18304*X2597*X9141*
Y11123*Y9743*X10171*Y11123*X9141*Y18304*X10799*X10801*X10806Y18303*X10810Y18301*
X10815Y18298*X10818Y18295*X10821Y18291*X10823Y18286*X10824Y18281*Y18279*Y16929*
Y16909*X10832Y16871*X10847Y16835*X10869Y16802*X10896Y16774*X10929Y16752*
X10965Y16737*X11004Y16730*X11024Y16729*X13449*Y15270*X13348Y15250*X13254Y15211*
X13169Y15154*X13096Y15081*X13039Y14996*X13000Y14902*X12980Y14801*Y14699*
X13000Y14598*X13039Y14504*X13096Y14419*X13169Y14346*X13254Y14289*X13348Y14250*
X13449Y14230*X13551*X13652Y14250*X13746Y14289*X13831Y14346*X13904Y14419*
X13961Y14504*X14000Y14598*X14020Y14699*Y14801*X14000Y14902*X13961Y14996*
X13904Y15081*X13831Y15154*X13746Y15211*X13652Y15250*X13551Y15270*X13449*Y16729*
X14855*Y11700*X14816Y11692*X14780Y11677*X14747Y11655*X14719Y11627*X14698Y11595*
X14682Y11558*X14674Y11518*Y11515*X14672Y11511*X14669Y11507*X14668Y11505*
X14195Y11032*X14193Y11031*X14189Y11028*X14185Y11026*X14180Y11025*X14177*X11472*
X10509Y10062*Y9731*Y9729*X10508Y9724*X10507Y9720*X10504Y9715*X10500Y9712*
X10496Y9709*X10492Y9707*X10487Y9706*X10484*X10399*Y8876*X10979*X10984Y8875*
X10988Y8873*X10993Y8871*X10996Y8867*X10999Y8863*X11001Y8859*X11002Y8854*Y8822*
Y8820*X11001Y8815*X10999Y8811*X10996Y8807*X10994Y8805*X10972Y8782*X10970Y8781*
X10966Y8778*X10961Y8776*X10957Y8775*X10954*X9643*X9641*X9636Y8776*X9631Y8778*
X9629Y8779*X9595Y8802*X9558Y8817*X9520Y8825*X9480*X9442Y8817*X9405Y8802*
X9371Y8779*X9369Y8778*X9364Y8776*X9359Y8775*X9357*X6947*X6945*X6940Y8776*
X6936Y8778*X6932Y8781*X6930Y8782*X4985Y10727*X3268*X3266*X3261Y10728*
X3256Y10730*X3254Y10731*X3220Y10754*X3183Y10769*X3145Y10777*X3105*X3067Y10769*
X3030Y10754*X2998Y10732*X2970Y10704*X2948Y10672*X2933Y10635*X2925Y10597*Y10557*
X2933Y10519*X2948Y10482*X2970Y10449*X2998Y10422*X3030Y10400*X3067Y10385*
X3105Y10377*X3145*X3183Y10385*X3220Y10400*X3254Y10423*X3256Y10424*X3261Y10426*
X3266Y10427*X3268*X4851*X4853*X4858Y10426*X4862Y10424*X4866Y10421*X4868Y10420*
X6813Y8475*X9357*X9359*X9364Y8474*X9369Y8472*X9371Y8471*X9405Y8448*X9442Y8433*
X9480Y8425*X9520*X9558Y8433*X9595Y8448*X9629Y8471*X9631Y8472*X9636Y8474*
X9641Y8475*X9643*X11099*X11104Y8474*X11108Y8472*X11112Y8469*X11116Y8466*
X11118Y8462*X11120Y8457*X11121Y8452*Y8448*X11120Y8443*X11118Y8438*X11116Y8434*
X10964Y8282*X10962Y8281*X10958Y8278*X10953Y8276*X10949Y8275*X10946*X10159*
X10157*X10152Y8276*X10148Y8278*X10146Y8279*X10111Y8302*X10075Y8317*X10036Y8325*
X9997*X9958Y8317*X9922Y8302*X9889Y8280*X9861Y8252*X9839Y8220*X9824Y8183*
X9816Y8145*Y8105*X9824Y8067*X9839Y8030*X9861Y7998*X9889Y7970*X9922Y7948*
X9923Y7947*X9927Y7944*X9931Y7941*X9933Y7937*X9935Y7932*X9936Y7929*Y7927*Y7923*
X9935Y7918*X9933Y7913*X9931Y7909*X9927Y7906*X9923Y7903*X9918Y7901*X9916Y7900*
X9914*X5393*X5391*X5386Y7901*X5381Y7903*X5379Y7904*X5345Y7927*X5308Y7942*
X5270Y7950*X5230*X5192Y7942*X5155Y7927*X5123Y7905*X5095Y7877*X5073Y7845*
X5058Y7808*X5050Y7770*Y7730*X5058Y7692*X5073Y7655*X5095Y7623*X5123Y7595*
X5155Y7573*X5192Y7558*X5230Y7550*X5270*X5308Y7558*X5345Y7573*X5379Y7596*
X5381Y7597*X5386Y7599*X5391Y7600*X5393*X6272*Y5450*X6233Y5442*X6197Y5427*
X6164Y5405*X6136Y5377*X6114Y5345*X6099Y5308*X6091Y5270*Y5230*X6099Y5192*
X6114Y5155*X6136Y5123*X6164Y5095*X6197Y5073*X6233Y5058*X6274Y5050*X6276Y5049*
X6281Y5047*X6285Y5044*X6286Y5043*X8479Y2850*X12053*X12055*X12060Y2849*
X12064Y2847*X12068Y2844*X12070Y2843*X12227Y2686*X12229Y2682*X12231Y2678*
X12232Y2673*Y2668*X12231Y2663*X12229Y2658*X12227Y2654*X12223Y2651*X12219Y2648*
X12215Y2646*X12210Y2645*X11771*Y2437*X11770Y2432*X11768Y2428*X11765Y2424*
X11762Y2420*X11758Y2418*X11753Y2416*X11748Y2415*X11744*X11739Y2416*X11734Y2418*
X11720Y2427*X11683Y2442*X11645Y2450*X11605*X11567Y2442*X11530Y2427*X11498Y2405*
X11470Y2377*X11448Y2345*X11433Y2308*X11425Y2270*Y2230*X11433Y2192*X11448Y2155*
X11470Y2123*X11498Y2095*X11530Y2073*X11567Y2058*X11605Y2050*X11645*X11683Y2058*
X11720Y2073*X11734Y2082*X11739Y2084*X11744Y2085*X11749*X11753Y2084*X11758Y2082*
X11762Y2080*X11765Y2076*X11768Y2072*X11770Y2068*X11771Y2063*Y1855*X13231*Y2061*
X13232Y2066*X13234Y2071*X13236Y2075*X13240Y2078*X13244Y2081*X13249Y2083*
X13253Y2084*X13258*X13263Y2083*X13268Y2081*X13280Y2073*X13317Y2058*X13355Y2050*
X13395*X13433Y2058*X13470Y2073*X13504Y2096*X13506Y2097*X13511Y2099*X13516Y2100*
X13518*X13574*X13576*X13581Y2099*X13586Y2097*X13590Y2094*X13593Y2091*
X13596Y2087*X13598Y2082*X13599Y2077*Y2075*Y1953*X14901*Y2547*X13599*Y2425*Y2423*
X13598Y2418*X13596Y2413*X13593Y2409*X13590Y2406*X13586Y2403*X13581Y2401*
X13576Y2400*X13574*X13518*X13516*X13511Y2401*X13506Y2403*X13504Y2404*
X13470Y2427*X13433Y2442*X13395Y2450*X13355*X13317Y2442*X13280Y2427*X13268Y2419*
X13263Y2417*X13258Y2416*X13253*X13249Y2417*X13244Y2419*X13240Y2422*X13236Y2425*
X13234Y2429*X13232Y2434*X13231Y2439*Y2645*X12702*X12700*X12695Y2646*X12690Y2648*
X12686Y2651*X12685Y2653*X12187Y3150*X8614*X8611*X8607Y3151*X8602Y3153*
X8598Y3156*X8596Y3157*X6499Y5255*X6497Y5257*X6494Y5261*X6492Y5265*Y5268*
X6484Y5308*X6469Y5345*X6447Y5377*X6419Y5405*X6386Y5427*X6350Y5442*X6311Y5450*
X6272*Y7600*X11098*X12286Y8788*Y8851*Y8854*X12287Y8859*X12289Y8863*X12291Y8867*
X12295Y8871*X12299Y8873*X12304Y8875*X12308Y8876*X12311*X12453*X12455*
X12460Y8875*X12465Y8873*X12469Y8871*X12472Y8867*X12475Y8863*X12477Y8859*
X12478Y8854*Y8851*Y8700*Y8698*X12477Y8693*X12475Y8689*X12472Y8685*X12471Y8683*
X10995Y7207*X10993Y7206*X10989Y7203*X10985Y7201*X10982Y7200*X10942Y7192*
X10905Y7177*X10873Y7155*X10845Y7127*X10823Y7095*X10808Y7058*X10800Y7020*Y6980*
X10808Y6942*X10823Y6905*X10845Y6873*X10873Y6845*X10905Y6823*X10942Y6808*
X10980Y6800*X11020*X11058Y6808*X11095Y6823*X11127Y6845*X11155Y6873*X11177Y6905*
X11192Y6942*X11200Y6982*X11201Y6985*X11203Y6989*X11206Y6993*X11207Y6995*
X12778Y8566*Y8851*Y8854*X12779Y8859*X12781Y8863*X12784Y8867*X12787Y8871*
X12791Y8873*X12796Y8875*X12800Y8876*X12803*X12945*X12948*X12952Y8875*
X12957Y8873*X12961Y8871*X12964Y8867*X12967Y8863*X12969Y8859*X12970Y8854*Y8851*
Y8322*Y8320*X12969Y8315*X12967Y8311*X12964Y8307*X12963Y8305*X11614Y6956*
X11612Y6954*X11608Y6952*X11604Y6950*X11601Y6949*X11567Y6942*X11530Y6927*
X11498Y6905*X11470Y6877*X11448Y6845*X11433Y6808*X11425Y6770*Y6730*X11433Y6692*
X11448Y6655*X11470Y6623*X11498Y6595*X11530Y6573*X11567Y6558*X11605Y6550*X11645*
X11683Y6558*X11720Y6573*X11752Y6595*X11780Y6623*X11802Y6655*X11817Y6692*
X11825Y6730*Y6735*X11826Y6740*X11828Y6744*X11831Y6748*X13270Y8188*Y8851*Y8854*
X13271Y8859*X13273Y8863*X13276Y8867*X13279Y8871*X13283Y8873*X13288Y8875*
X13293Y8876*X13295*X14421*X14424*X14429Y8875*X14433Y8873*X14437Y8871*
X14441Y8867*X14444Y8863*X14445Y8859*X14446Y8854*Y8851*Y8378*X15724Y7100*X16157*
X16159*X16164Y7099*X16169Y7097*X16171Y7096*X16205Y7073*X16242Y7058*X16280Y7050*
X16320*X16358Y7058*X16395Y7073*X16427Y7095*X16455Y7123*X16477Y7155*X16492Y7192*
X16500Y7230*Y7270*X16492Y7308*X16477Y7345*X16455Y7377*X16427Y7405*X16395Y7427*
X16358Y7442*X16320Y7450*X16280*X16242Y7442*X16205Y7427*X16171Y7404*X16169Y7403*
X16164Y7401*X16159Y7400*X16157*X15859*X15856*X15852Y7401*X15847Y7403*
X15843Y7406*X15841Y7407*X14754Y8495*X14752Y8497*X14749Y8501*X14747Y8505*Y8510*
X14746Y8512*Y8851*X14747Y8854*Y8859*X14749Y8863*X14752Y8867*X14756Y8871*
X14760Y8873*X14764Y8875*X14769Y8876*X14771*X14914*X14916*X14921Y8875*
X14925Y8873*X14929Y8871*X14933Y8867*X14936Y8863*X14938Y8859*X14939Y8854*Y8851*
Y8478*X15816Y7600*X15857*X15859*X15864Y7599*X15869Y7597*X15871Y7596*X15905Y7573*
X15942Y7558*X15980Y7550*X16020*X16058Y7558*X16095Y7573*X16127Y7595*X16155Y7623*
X16177Y7655*X16192Y7692*X16200Y7730*Y7770*X16192Y7808*X16177Y7845*X16165Y7863*
X16163Y7868*X16162Y7873*Y7877*X16163Y7882*X16165Y7887*X16168Y7891*X16171Y7894*
X16175Y7897*X16180Y7899*X16185Y7900*X16897*X16941Y7909*X16982Y7926*X17018Y7950*
X17050Y7982*X17074Y8018*X17091Y8059*X17100Y8103*Y8147*X17091Y8191*X17074Y8232*
X17050Y8268*X17018Y8300*X16982Y8324*X16941Y8341*X16897Y8350*X16059*X16057*
X16052Y8351*X16047Y8353*X16043Y8356*X16042Y8357*X15813Y8586*X15811Y8588*
X15809Y8592*X15807Y8596*X15806Y8601*Y8604*Y8851*Y8854*X15807Y8859*X15809Y8863*
X15811Y8867*X15815Y8871*X15819Y8873*X15823Y8875*X15828Y8876*X15831*X16333*Y9706*
X10834*X10832*X10827Y9707*X10823Y9709*X10819Y9712*X10815Y9715*X10812Y9720*
X10810Y9724*Y9729*X10809Y9731*Y9928*X10810Y9930*Y9935*X10812Y9939*X10815Y9943*
X10817Y9945*X11589Y10718*X11591Y10719*X11595Y10722*X11600Y10724*X11604Y10725*
X11607*X14312*X14880Y11293*X14881Y11294*X14886Y11297*X14890Y11299*X14892Y11300*
X14933Y11308*X14970Y11323*X15004Y11346*X15006Y11347*X15011Y11349*X15015Y11350*
X15018*X16562*Y11123*Y9743*X17592*Y11123*X16562*Y11350*X18280*Y7600*X18242Y7592*
X18205Y7577*X18171Y7554*X18169Y7553*X18164Y7551*X18159Y7550*X18157*X16988*
X16345Y6907*X16343Y6906*X16339Y6903*X16335Y6901*X16330Y6900*X16328*X14018*
X14016*X14011Y6901*X14006Y6903*X14004Y6904*X13970Y6927*X13933Y6942*X13895Y6950*
X13855*X13817Y6942*X13780Y6927*X13748Y6905*X13720Y6877*X13698Y6845*X13683Y6808*
X13675Y6770*Y6730*X13683Y6692*X13698Y6655*X13720Y6623*X13748Y6595*X13780Y6573*
X13817Y6558*X13855Y6550*X13895*X13933Y6558*X13970Y6573*X14004Y6596*X14006Y6597*
X14011Y6599*X14016Y6600*X14018*X16462*X16868Y7006*Y6860*X16415Y6407*X16413Y6406*
X16409Y6403*X16405Y6401*X16400Y6400*X16398*X9643*X9641*X9636Y6401*X9631Y6403*
X9629Y6404*X9595Y6427*X9558Y6442*X9520Y6450*X9480*X9442Y6442*X9405Y6427*
X9373Y6405*X9345Y6377*X9323Y6345*X9308Y6308*X9300Y6270*Y6230*X9308Y6192*
X9323Y6155*X9345Y6123*X9373Y6095*X9405Y6073*X9442Y6058*X9480Y6050*X9520*
X9558Y6058*X9595Y6073*X9629Y6096*X9631Y6097*X9636Y6099*X9641Y6100*X9643*X16532*
X16985Y6553*X16987Y6554*X16991Y6557*X16995Y6559*X17000Y6560*X17002*X17019*Y6345*
Y6200*Y6198*X17018Y6193*X17016Y6188*X17013Y6184*X17010Y6181*X17006Y6178*
X17001Y6176*X16997Y6175*X16994*X16848*X16804Y6166*X16763Y6149*X16727Y6125*
X16695Y6093*X16671Y6057*X16654Y6016*X16645Y5972*Y5928*X16654Y5884*X16671Y5843*
X16695Y5807*X16727Y5775*X16763Y5751*X16804Y5734*X16848Y5725*X16994*X16997*
X17001Y5724*X17006Y5722*X17010Y5719*X17013Y5716*X17016Y5712*X17018Y5707*
X17019Y5702*Y5700*Y5555*X18479*Y5563*X18480Y5568*X18482Y5572*X18485Y5576*
X18488Y5580*X18492Y5582*X18497Y5584*X18501Y5585*X18506*X18511Y5584*X18516Y5582*
X18530Y5573*X18567Y5558*X18605Y5550*X18645*X18683Y5558*X18720Y5573*X18752Y5595*
X18780Y5623*X18802Y5655*X18817Y5692*X18825Y5730*Y5770*X18817Y5808*X18802Y5845*
X18780Y5877*X18752Y5905*X18720Y5927*X18683Y5942*X18645Y5950*X18605*X18567Y5942*
X18530Y5927*X18516Y5918*X18511Y5916*X18506Y5915*X18501*X18497Y5916*X18492Y5918*
X18488Y5920*X18485Y5924*X18482Y5928*X18480Y5932*X18479Y5937*Y6345*X17019*Y6560*
X20972*Y5575*X20933Y5567*X20897Y5552*X20864Y5530*X20836Y5502*X20814Y5470*
X20799Y5433*X20791Y5393*X20790Y5390*X20789Y5386*X20786Y5382*X20784Y5380*
X20062Y4657*X20060Y4656*X20056Y4653*X20051Y4651*X20046Y4650*X20044*X18501*
X18497Y4651*X18496*X18492Y4653*X18488Y4656*X18485Y4659*X18482Y4663*X18480Y4668*
X18479Y4673*Y4813*Y4815*X18480Y4818*X18482Y4822*X18485Y4826*X18488Y4830*
X18492Y4832*X18497Y4834*X18502Y4835*X18506*X18509*X18511Y4834*X18516Y4832*
X18530Y4823*X18567Y4808*X18605Y4800*X18645*X18683Y4808*X18720Y4823*X18752Y4845*
X18780Y4873*X18802Y4905*X18817Y4942*X18825Y4980*Y5020*X18817Y5058*X18802Y5095*
X18780Y5127*X18752Y5155*X18720Y5177*X18683Y5192*X18645Y5200*X18605*X18567Y5192*
X18530Y5177*X18516Y5168*X18511Y5166*X18506Y5165*X18501*X18497Y5166*X18492Y5168*
X18488Y5170*X18485Y5174*X18482Y5178*X18480Y5182*X18479Y5187*Y5395*X17019*Y5245*
Y5243*X17018Y5238*X17016Y5233*X17013Y5229*X17010Y5226*X17006Y5223*X17001Y5221*
X16997Y5220*X16994*X16848*X16806Y5212*X16766Y5195*X16730Y5171*X16699Y5140*
X16675Y5104*X16658Y5064*X16650Y5022*Y4978*X16658Y4936*X16675Y4896*X16699Y4860*
X16730Y4829*X16766Y4805*X16806Y4788*X16848Y4780*X16994*X16997*X17001Y4779*
X17006Y4777*X17010Y4774*X17013Y4771*X17016Y4767*X17018Y4762*X17019Y4757*Y4755*
Y4675*Y4673*X17018Y4668*X17016Y4663*X17013Y4659*X17010Y4656*X17006Y4653*
X17001Y4651*X16997Y4650*X16994*X14548*X13952Y4054*X13950Y4052*X13946Y4050*
X13942Y4048*X13937Y4047*X13934*X13599*Y3925*Y3923*X13598Y3918*X13596Y3913*
X13593Y3909*X13590Y3906*X13586Y3903*X13581Y3901*X13576Y3900*X13574*X13518*
X13516*X13511Y3901*X13506Y3903*X13504Y3904*X13470Y3927*X13433Y3942*X13395Y3950*
X13355*X13317Y3942*X13280Y3927*X13268Y3919*X13263Y3917*X13258Y3916*X13253*
X13249Y3917*X13244Y3919*X13240Y3922*X13236Y3925*X13234Y3929*X13232Y3934*
X13231Y3939*Y4145*X11771*Y3937*X11770Y3932*X11768Y3928*X11765Y3924*X11762Y3920*
X11758Y3918*X11753Y3916*X11748Y3915*X11744*X11739Y3916*X11734Y3918*X11720Y3927*
X11683Y3942*X11645Y3950*X11605*X11567Y3942*X11530Y3927*X11498Y3905*X11470Y3877*
X11448Y3845*X11433Y3808*X11425Y3770*Y3730*X11433Y3692*X11448Y3655*X11470Y3623*
X11498Y3595*X11530Y3573*X11567Y3558*X11605Y3550*X11645*X11683Y3558*X11720Y3573*
X11734Y3582*X11739Y3584*X11744Y3585*X11749*X11753Y3584*X11758Y3582*X11762Y3580*
X11765Y3576*X11768Y3572*X11770Y3568*X11771Y3563*Y3355*X13231*Y3561*X13232Y3566*
X13234Y3571*X13236Y3575*X13240Y3578*X13244Y3581*X13249Y3583*X13253Y3584*X13258*
X13263Y3583*X13268Y3581*X13280Y3573*X13317Y3558*X13355Y3550*X13395*X13433Y3558*
X13470Y3573*X13504Y3596*X13506Y3597*X13511Y3599*X13516Y3600*X13518*X13574*
X13576*X13581Y3599*X13586Y3597*X13590Y3594*X13593Y3591*X13596Y3587*X13598Y3582*
X13599Y3577*Y3575*Y3453*X14901*Y4047*X14427*X14422Y4048*X14417Y4050*X14413Y4052*
X14410Y4056*X14407Y4060*X14405Y4065*X14404Y4069*Y4074*X14405Y4079*X14407Y4084*
X14410Y4088*X14665Y4343*X14667Y4344*X14671Y4347*X14675Y4349*X14680Y4350*X14682*
X15271*Y4145*Y3355*Y2645*Y1855*X16548*X16550*X16555Y1854*X16560Y1852*
X16564Y1849*X16565Y1847*X16683Y1730*X16732*X16734*X16739Y1729*X16744Y1727*
X16746Y1726*X16780Y1703*X16817Y1688*X16855Y1680*X16895*X16933Y1688*X16970Y1703*
X17001Y1724*X17006Y1726*X17010*X17015*X17020*X17025Y1724*X17029Y1721*
X17032Y1717*X17035Y1713*X17037Y1709*X17038Y1704*Y1597*X17596*Y2155*X17038*Y2056*
X17037Y2051*X17035Y2047*X17032Y2043*X17029Y2039*X17025Y2036*X17020Y2034*X17015*
X17010*X17006*X17001Y2036*X16970Y2057*X16933Y2072*X16895Y2080*X16855*
X16817Y2072*X16795Y2064*X16793Y2063*X16788Y2062*X16783*X16779Y2063*X16774Y2065*
X16770Y2067*X16768Y2069*X16738Y2099*X16737Y2101*X16734Y2105*X16732Y2109*
X16731Y2114*Y2117*Y2645*X15271*Y3355*X16548*X16550*X16555Y3354*X16560Y3352*
X16564Y3349*X16565Y3347*X16683Y3230*X16732*X16734*X16739Y3229*X16744Y3227*
X16746Y3226*X16780Y3203*X16817Y3188*X16855Y3180*X16895*X16933Y3188*X16970Y3203*
X17001Y3224*X17006Y3226*X17010*X17015*X17020*X17025Y3224*X17029Y3221*
X17032Y3217*X17035Y3213*X17037Y3209*X17038Y3204*Y3097*Y2903*Y2345*X17596*Y2903*
X17038*Y3097*X17596*Y3655*X17038*Y3556*X17037Y3551*X17035Y3547*X17032Y3543*
X17029Y3539*X17025Y3536*X17020Y3534*X17015*X17010*X17006*X17001Y3536*
X16970Y3557*X16933Y3572*X16895Y3580*X16855*X16817Y3572*X16795Y3564*X16793Y3563*
X16788Y3562*X16783*X16779Y3563*X16774Y3565*X16770Y3567*X16768Y3569*X16738Y3599*
X16737Y3601*X16734Y3605*X16732Y3609*X16731Y3614*Y3617*Y4145*X15271*Y4350*X17013*
X17015*X17020Y4349*X17025Y4347*X17029Y4344*X17032Y4341*X17035Y4337*X17037Y4332*
X17038Y4327*Y4325*Y3845*X17596*Y4325*Y4327*X17597Y4332*X17599Y4337*X17602Y4341*
X17605Y4344*X17609Y4347*X17614Y4349*X17619Y4350*X17621*X17904*Y4029*Y3471*Y2529*
Y1971*X18462*Y2077*X18463Y2082*X18465Y2087*X18468Y2091*X18471Y2094*X18475Y2097*
X18480Y2099*X18485Y2100*X18509*X18514Y2099*X18519Y2097*X18555Y2073*X18592Y2058*
X18630Y2050*X18670*X18708Y2058*X18745Y2073*X18777Y2095*X18805Y2123*X18827Y2155*
X18842Y2192*X18850Y2230*Y2270*X18842Y2308*X18827Y2345*X18805Y2377*X18777Y2405*
X18745Y2427*X18708Y2442*X18670Y2450*X18630*X18592Y2442*X18555Y2427*X18521Y2404*
X18519Y2403*X18514Y2401*X18509Y2400*X18507*X18485*X18480Y2401*X18475Y2403*
X18471Y2406*X18468Y2409*X18465Y2413*X18463Y2418*X18462Y2423*Y2529*X17904*Y3471*
X18462*Y3557*X18463Y3562*X18465Y3567*X18468Y3571*X18471Y3574*X18475Y3577*
X18480Y3579*X18485Y3580*X18490*X18494Y3579*X18499Y3577*X18505Y3573*X18542Y3558*
X18580Y3550*X18620*X18658Y3558*X18695Y3573*X18727Y3595*X18755Y3623*X18777Y3655*
X18792Y3692*X18800Y3730*Y3770*X18792Y3808*X18777Y3845*X18755Y3877*X18727Y3905*
X18695Y3927*X18658Y3942*X18620Y3950*X18580*X18542Y3942*X18505Y3927*X18499Y3923*
X18494Y3921*X18490Y3920*X18485*X18480Y3921*X18475Y3923*X18471Y3926*X18468Y3929*
X18465Y3933*X18463Y3938*X18462Y3943*Y4029*X17904*Y4350*X20178*X20996Y5168*
X20998Y5169*X21002Y5172*X21007Y5174*X21009Y5175*X21050Y5183*X21086Y5198*
X21119Y5220*X21147Y5248*X21169Y5280*X21184Y5317*X21191Y5355*Y5395*X21184Y5433*
X21169Y5470*X21147Y5502*X21119Y5530*X21086Y5552*X21050Y5567*X21011Y5575*X20972*
Y6560*X21184*X21186*X21191Y6559*X21196Y6557*X21200Y6554*X21202Y6553*X22386Y5368*
X22389Y5364*X22390Y5360*X22399Y5317*X22414Y5280*X22436Y5248*X22464Y5220*
X22497Y5198*X22533Y5183*X22572Y5175*X22611*X22650Y5183*X22686Y5198*X22719Y5220*
X22747Y5248*X22769Y5280*X22784Y5317*X22791Y5355*Y5395*X22784Y5433*X22769Y5470*
X22747Y5502*X22719Y5530*X22686Y5552*X22650Y5567*X22609Y5575*X22607Y5576*
X22602Y5578*X22598Y5581*X22596Y5582*X21318Y6860*X16868*Y7006*X17105Y7243*
X17107Y7244*X17111Y7247*X17115Y7249*X17120Y7250*X17122*X18159*X18164Y7249*
X18169Y7247*X18205Y7223*X18242Y7208*X18280Y7200*X18320*X18358Y7208*X18395Y7223*
X18427Y7245*X18455Y7273*X18477Y7305*X18492Y7342*X18500Y7380*Y7420*X18492Y7458*
X18477Y7495*X18455Y7527*X18427Y7555*X18395Y7577*X18358Y7592*X18320Y7600*X18280*
Y11350*X21031*X21033*X21038Y11349*X21043Y11347*X21045Y11346*X21079Y11323*
X21116Y11308*X21154Y11300*X21194*X21232Y11308*X21269Y11323*X21302Y11345*
X21329Y11373*X21351Y11405*X21366Y11442*X21374Y11480*Y11520*X21366Y11558*
X21351Y11595*X21329Y11627*X21302Y11655*X21269Y11677*X21232Y11692*X21194Y11700*
X21154*X21116Y11692*X21079Y11677*X21045Y11654*X21043Y11653*X21038Y11651*
X21033Y11650*X21031*X15018*X15015*X15011Y11651*X15006Y11653*X15004Y11654*
X14970Y11677*X14933Y11692*X14895Y11700*X14855*Y16729*X15748*X15768Y16730*
X15806Y16737*X15843Y16752*X15875Y16774*X15903Y16802*X15925Y16835*G37*G54D45*
X17375Y5950D03*Y5000D03*G54D46*X15581Y9291D03*G54D10*X16875Y8125D03*
X16870Y5950D03*Y5000D03*G54D29*X16875Y8125D02*X15956D01*X15581Y8500*Y9291*
X17375Y5950D02*X16870D01*G54D10*X17375Y5000D02*X16870D01*G54D34*X2000Y14000D03*
D03*Y4500D03*D03*X24250Y14000D03*D03*G54D46*X13612Y9291D03*X14104D03*G54D52*
X17077Y10433D03*X9656D03*G54D46*X10659Y9291D03*G54D10*X14875Y11500D03*X21174D03*
G54D20*X10659Y9291D02*Y10000D01*X11534Y10875*X14250*X14875Y11500*D02*X21174D01*
G54D46*X11152Y9291D03*G54D10*X9500Y6250D03*Y8625D03*X3125Y10577D03*
X22591Y5375D03*G54D20*X3125Y10577D02*X4923D01*X6875Y8625*X9500*X11152Y9291D02*
Y8750D01*X11027Y8625*X9500*Y6250D02*X16470D01*X16930Y6710*X21256*X22591Y5375*
G54D46*X11644Y9291D03*G54D10*X10016Y8125D03*G54D20*D02*X11019D01*X11644Y8750*
Y9291*G54D41*X14585Y3750D03*Y2250D03*G54D45*X15627D03*Y3750D03*G54D46*
X16073Y9291D03*G54D38*X2760Y2165D03*Y16339D03*X20807Y15157D03*X24744Y2165D03*
G54D40*X17317Y4124D03*Y2624D03*G54D35*X13500Y14750D03*G54D10*X15125Y2250D03*
Y3750D03*X16875Y4120D03*Y2620D03*X25000Y11250D03*Y8750D03*Y6250D03*
X22500Y7500D03*Y10000D03*Y12500D03*X10000Y16250D03*X12500D03*X15000D03*
X17500D03*X16250Y13750D03*X13750D03*X11250D03*X3750Y12500D03*Y7500D03*
X11250Y10000D03*X16250Y10250D03*X13875Y8625D03*X10875Y8375D03*X12250Y7875D03*
X18875Y5375D03*X18125Y3000D03*X21875Y625D03*X19375D03*X16875D03*X14375D03*
X11875D03*X9375D03*X6875D03*X4375D03*G54D31*X14585Y3750D02*X14901D01*X14585D02*
Y4047D01*Y3750D02*Y3453D01*Y2250D02*X14901D01*X14585D02*Y2547D01*Y2250D02*
Y1953D01*X15627Y2250D02*Y2645D01*Y2250D02*X15271D01*X15627D02*Y1855D01*Y3750D02*
Y4145D01*Y3750D02*X15271D01*X15627D02*Y3355D01*X16073Y9291D02*X16333D01*
X16073D02*Y9706D01*Y9291D02*Y8876D01*X17317Y4124D02*X17596D01*X17317D02*
X17038D01*X17317D02*Y3845D01*Y2624D02*X17596D01*X17317D02*Y2903D01*Y2624D02*
X17038D01*X17317D02*Y2345D01*G54D32*X13500Y14750D02*X14020D01*X13500D02*
Y15270D01*Y14750D02*X12980D01*X13500D02*Y14230D01*G54D46*X12628Y9291D03*G54D45*
X12127Y2250D03*G54D10*X11000Y7000D03*X11625Y2250D03*G54D20*X12628Y9291D02*
Y8628D01*X11000Y7000*X12127Y2250D02*X11625D01*G54D45*X12127Y3750D03*G54D46*
X13120Y9291D03*G54D10*X11625Y6750D03*Y3750D03*G54D20*X13120Y9291D02*Y8250D01*
X11625Y6755*Y6750*X12127Y3750D02*X11625D01*G54D46*X12136Y9291D03*G54D10*
X676Y11500D03*X5250Y11000D03*Y7750D03*G54D20*X676Y11500D02*X1176Y11000D01*X5250*
Y7750D02*X11036D01*X12136Y8850*Y9291*G54D41*X13915Y2250D03*G54D45*X12875D03*
G54D10*X13375D03*X13875Y6750D03*X6291Y5250D03*X18300Y7400D03*G54D20*
X12875Y2250D02*X13375D01*X13875Y6750D02*X16400D01*X17050Y7400*X18300*
X13915Y2250D02*X13375D01*X12875D02*X12125Y3000D01*X8541*X6291Y5250*G54D41*
X13915Y3750D03*G54D45*X12875D03*G54D10*X13375D03*X20991Y5375D03*G54D20*
X13375Y3750D02*X13860D01*X12875D02*X13375D01*X20991Y5375D02*X20116Y4500D01*
X14610*X13860Y3750*X13915D02*X13860D01*D02*X13915D01*G54D40*X18183D03*G54D10*
X18600D03*G54D20*X18183D02*X18600D01*G54D40*X18183Y2250D03*G54D10*X18650D03*
G54D20*X18183D02*X18650D01*G54D45*X18123Y5000D03*G54D10*X18625D03*G54D20*
X18123D02*X18625D01*G54D45*X18123Y5950D03*G54D10*X18625Y5750D03*G54D20*D02*
X18323D01*X18123Y5950*G54D40*X17317Y3376D03*G54D45*X16375Y3750D03*G54D46*
X14596Y9291D03*G54D10*X16300Y7250D03*X16875Y3380D03*G54D20*D02*X16745D01*
X16375Y3750*X16875Y3380D02*X17313D01*X17317Y3376*X16300Y7250D02*X15786D01*
X14596Y8440*Y9291*G54D45*X16375Y2250D03*G54D40*X17317Y1876D03*G54D46*
X15089Y9291D03*G54D10*X16000Y7750D03*X16875Y1880D03*G54D20*D02*X17313D01*
X17317Y1876*X16875Y1880D02*X16745D01*X16375Y2250*X16000Y7750D02*X15879D01*
X15089Y8540*Y9291*X31875Y-2000D02*X32625D01*Y-3000*Y-2485D02*X32168D01*
X31625Y-2000D02*Y-2712D01*X31573Y-2864*X31468Y-2955*X31303Y-3000*X31198*
X31040Y-2955*X30935Y-2864*X30875Y-2712*Y-2000*X30625D02*Y-3000D01*X29875*
X29625Y-2000D02*Y-3000D01*X28875*X28625D02*Y-2000D01*X28145*X27988Y-2061*
X27935Y-2106*X27875Y-2197*Y-2333*X27935Y-2439*X27988Y-2485*X28145Y-2530*X28625*
X27625Y-2000D02*Y-3000D01*X26875*X26490Y-2667D02*X26018D01*X26625Y-3000D02*
X26258Y-2000D01*X25875Y-3000*X24875Y-2000D02*X25250Y-2485D01*X25625Y-2000D02*
X25250Y-2485D01*Y-3000*X23573Y-2242D02*Y-2197D01*X23520Y-2106*X23468Y-2061*
X23363Y-2000*X23145*X23040Y-2061*X22988Y-2106*X22935Y-2197*Y-2288*X22988Y-2379*
X23093Y-2530*X23625Y-3000*X22875*X22303Y-2015D02*X22468Y-2061D01*X22573Y-2197*
X22625Y-2439*Y-2576*X22573Y-2818*X22468Y-2955*X22303Y-3000*X22198*X22040Y-2955*
X21935Y-2818*X21875Y-2576*Y-2439*X21935Y-2197*X22040Y-2061*X22198Y-2015*X22303*
X21303D02*X21468Y-2061D01*X21573Y-2197*X21625Y-2439*Y-2576*X21573Y-2818*
X21468Y-2955*X21303Y-3000*X21198*X21040Y-2955*X20935Y-2818*X20875Y-2576*Y-2439*
X20935Y-2197*X21040Y-2061*X21198Y-2015*X21303*X20625Y-2576D02*X19875D01*
X19303Y-2015D02*X19468Y-2061D01*X19573Y-2197*X19625Y-2439*Y-2576*X19573Y-2818*
X19468Y-2955*X19303Y-3000*X19198*X19040Y-2955*X18935Y-2818*X18875Y-2576*Y-2439*
X18935Y-2197*X19040Y-2061*X19198Y-2015*X19303*X18303D02*X18468Y-2061D01*
X18573Y-2197*X18625Y-2439*Y-2576*X18573Y-2818*X18468Y-2955*X18303Y-3000*X18198*
X18040Y-2955*X17935Y-2818*X17875Y-2576*Y-2439*X17935Y-2197*X18040Y-2061*
X18198Y-2015*X18303*X17573Y-2242D02*Y-2197D01*X17520Y-2106*X17468Y-2061*
X17363Y-2000*X17145*X17040Y-2061*X16988Y-2106*X16935Y-2197*Y-2288*X16988Y-2379*
X17093Y-2530*X17625Y-3000*X16875*X16520Y-2015D02*X15935D01*X16258Y-2394*X16093*
X15988Y-2439*X15935Y-2485*X15875Y-2621*Y-2727*X15935Y-2864*X16040Y-2955*
X16198Y-3000*X16363*X16520Y-2955*X16573Y-2909*X16625Y-2818*X15625Y-2576D02*
X14875D01*X14303Y-2015D02*X14468Y-2061D01*X14573Y-2197*X14625Y-2439*Y-2576*
X14573Y-2818*X14468Y-2955*X14303Y-3000*X14198*X14040Y-2955*X13935Y-2818*
X13875Y-2576*Y-2439*X13935Y-2197*X14040Y-2061*X14198Y-2015*X14303*X13130D02*
Y-3000D01*Y-2015D02*X13625Y-2667D01*X12875*X11625Y-3000D02*Y-2000D01*X11145*
X10988Y-2061*X10935Y-2106*X10875Y-2197*Y-2288*X10935Y-2379*X10988Y-2439*
X11145Y-2485*X11625*X11258D02*X10875Y-3000D01*X9875Y-2000D02*X10625D01*Y-3000*
X9875*X10625Y-2485D02*X10168D01*X9625Y-2000D02*X9258Y-3000D01*X8875Y-2000*
X7490Y-2667D02*X7018D01*X7625Y-3000D02*X7258Y-2000D01*X6875Y-3000*X5625D02*
Y-2000D01*X5145*X4988Y-2061*X4935Y-2106*X4875Y-2197*Y-2333*X4935Y-2439*
X4988Y-2485*X5145Y-2530*X5625*X4625Y-2000D02*X4445Y-3000D01*X4258Y-2379*
X4070Y-3000*X3875Y-2000*X3625Y-2485D02*X3145D01*X2988Y-2530*X2935Y-2576*
X2875Y-2667*Y-2818*X2935Y-2909*X2988Y-2955*X3145Y-3000*X3625*Y-2000*X3145*
X2988Y-2061*X2935Y-2106*X2875Y-2197*Y-2288*X2935Y-2379*X2988Y-2439*X3145Y-2485*
X1625Y-2000D02*Y-3000D01*X875*X490Y-2667D02*X18D01*X625Y-3000D02*X258Y-2000D01*
X-125Y-3000*X-1125Y-2000D02*X-750Y-2485D01*X-375Y-2000D02*X-750Y-2485D01*Y-3000*
X-2125Y-2000D02*X-1375D01*Y-3000*X-2125*X-1375Y-2485D02*X-1832D01*
X-2375Y-3000D02*Y-2000D01*X-2855*X-3012Y-2061*X-3065Y-2106*X-3125Y-2197*Y-2288*
X-3065Y-2379*X-3012Y-2439*X-2855Y-2485*X-2375*X-2742D02*X-3125Y-3000D01*
X-4427Y-2242D02*Y-2197D01*X-4480Y-2106*X-4532Y-2061*X-4637Y-2000*X-4855*
X-4960Y-2061*X-5012Y-2106*X-5065Y-2197*Y-2288*X-5012Y-2379*X-4907Y-2530*
X-4375Y-3000*X-5125*G54D18*X25411Y17629D02*Y17652D01*X25385Y17697*X25359Y17720*
X25306Y17750*X25198*X25145Y17720*X25119Y17697*X25093Y17652*Y17606*X25119Y17561*
X25171Y17485*X25438Y17250*X25063*X24776Y17742D02*X24859Y17720D01*X24911Y17652*
X24938Y17530*Y17462*X24911Y17341*X24859Y17273*X24776Y17250*X24724*X24645Y17273*
X24593Y17341*X24563Y17462*Y17530*X24593Y17652*X24645Y17720*X24724Y17742*X24776*
X24276D02*X24359Y17720D01*X24411Y17652*X24438Y17530*Y17462*X24411Y17341*
X24359Y17273*X24276Y17250*X24224*X24145Y17273*X24093Y17341*X24063Y17462*Y17530*
X24093Y17652*X24145Y17720*X24224Y17742*X24276*X23938Y17462D02*X23563D01*
X23276Y17742D02*X23359Y17720D01*X23411Y17652*X23438Y17530*Y17462*X23411Y17341*
X23359Y17273*X23276Y17250*X23224*X23145Y17273*X23093Y17341*X23063Y17462*Y17530*
X23093Y17652*X23145Y17720*X23224Y17742*X23276*X22776D02*X22859Y17720D01*
X22911Y17652*X22938Y17530*Y17462*X22911Y17341*X22859Y17273*X22776Y17250*X22724*
X22645Y17273*X22593Y17341*X22563Y17462*Y17530*X22593Y17652*X22645Y17720*
X22724Y17742*X22776*X22411Y17629D02*Y17652D01*X22385Y17697*X22359Y17720*
X22306Y17750*X22198*X22145Y17720*X22119Y17697*X22093Y17652*Y17606*X22119Y17561*
X22171Y17485*X22438Y17250*X22063*X21885Y17742D02*X21593D01*X21754Y17553*X21671*
X21619Y17530*X21593Y17508*X21563Y17439*Y17386*X21593Y17318*X21645Y17273*
X21724Y17250*X21806*X21885Y17273*X21911Y17295*X21938Y17341*X21438Y17462D02*
X21063D01*X20776Y17742D02*X20859Y17720D01*X20911Y17652*X20938Y17530*Y17462*
X20911Y17341*X20859Y17273*X20776Y17250*X20724*X20645Y17273*X20593Y17341*
X20563Y17462*Y17530*X20593Y17652*X20645Y17720*X20724Y17742*X20776*X20190D02*
Y17250D01*Y17742D02*X20438Y17417D01*X20063*X19438Y17250D02*Y17750D01*X19198*
X19119Y17720*X19093Y17697*X19063Y17652*Y17606*X19093Y17561*X19119Y17530*
X19198Y17508*X19438*X19254D02*X19063Y17250D01*X18563Y17750D02*X18938D01*Y17250*
X18563*X18938Y17508D02*X18709D01*X18438Y17750D02*X18254Y17250D01*X18063Y17750*
X17370Y17417D02*X17134D01*X17438Y17250D02*X17254Y17750D01*X17063Y17250*M02*
