%MOIN*%
%FSLAN2X24Y24*%
%ADD10C,0.0240000*%
%ADD11C,0.0010000*%
%ADD12C,0.0020000*%
%ADD13C,0.0030000*%
%ADD14C,0.0050000*%
%ADD15C,0.0060000*%
%ADD16C,0.0065000*%
%ADD17C,0.0079921*%
%ADD18C,0.0080000*%
%ADD19C,0.0085000*%
%ADD20C,0.0100000*%
%ADD21C,0.0110000*%
%ADD22C,0.0112000*%
%ADD23C,0.0135000*%
%ADD24C,0.0140000*%
%ADD25C,0.0150000*%
%ADD26C,0.0156000*%
%ADD27C,0.0187000*%
%ADD28C,0.0200000*%
%ADD29C,0.0250000*%
%ADD30C,845.4660028*%
%ADD31R,0.0100000X0.0100000*%
%ADD32R,0.0200000X0.0200000*%
%ADD33R,0.0250000X0.0250000*%
%ADD34C,0.0500000*%
%ADD35C,0.0840000*%
%ADD36C,0.0900000*%
%ADD37C,0.1500000*%
%ADD38C,0.1750000*%
%ADD39C,0.1850000*%
%ADD40R,0.0358268X0.0358268*%
%ADD41R,0.0433071X0.0393701*%
%ADD42R,0.0438268X0.0438268*%
%ADD43R,0.0513071X0.0473701*%
%ADD44R,0.0390000X0.0590000*%
%ADD45R,0.0511811X0.0590551*%
%ADD46R,0.0320000X0.0630000*%
%ADD47R,0.0591811X0.0670551*%
%ADD48R,0.0490000X0.0690000*%
%ADD49R,0.0420000X0.0730000*%
%ADD50R,0.0550000X0.1050000*%
%ADD51R,0.0650000X0.1150000*%
%ADD52R,0.0830000X0.1180000*%
%ADD53R,0.0930000X0.1280000*%
G90*G70*G01*D02*G36*X15925Y16835D02*X15940Y16871D01*X15948Y16909*Y16927*Y16929**
Y16932*Y18279*Y18281*X15949Y18286*X15951Y18291*X15954Y18295*X15957Y18298*
X15961Y18301*X15966Y18303*X15971Y18304*X15973*X15980*Y7950*X15942Y7942*
X15905Y7927*X15873Y7905*X15845Y7877*X15823Y7845*X15808Y7808*X15800Y7770*Y7730*
X15808Y7692*X15823Y7655*X15846Y7621*X15847Y7619*X15849Y7614*X15850Y7609*Y7607*
Y2693*X16670Y1873*X16672Y1869*X16674Y1865*X16683Y1822*X16698Y1785*X16720Y1753*
X16748Y1725*X16780Y1703*X16817Y1688*X16855Y1680*X16895*X16933Y1688*X16970Y1703*
X17002Y1725*X17030Y1753*X17052Y1785*X17067Y1822*X17075Y1860*Y1900*X17067Y1938*
X17052Y1975*X17030Y2007*X17002Y2035*X16970Y2057*X16933Y2072*X16893Y2080*
X16890Y2081*X16886Y2083*X16882Y2086*X16880Y2087*X16157Y2810*X16156Y2812*
X16153Y2816*X16151Y2820*X16150Y2825*Y2827*Y3835*X16151Y3840*X16153Y3844*
X16156Y3848*X16159Y3852*X16163Y3855*X16168Y3857*X16173Y3858*X16177*X16182Y3857*
X16187Y3855*X16191Y3852*X16668Y3375*X16669Y3373*X16672Y3369*X16674Y3365*
X16675Y3362*X16683Y3322*X16698Y3285*X16720Y3253*X16748Y3225*X16780Y3203*
X16817Y3188*X16855Y3180*X16895*X16933Y3188*X16970Y3203*X17002Y3225*X17030Y3253*
X17052Y3285*X17067Y3322*X17075Y3360*Y3400*X17067Y3438*X17052Y3475*X17030Y3507*
X17002Y3535*X16970Y3557*X16933Y3572*X16893Y3580*X16890Y3581*X16886Y3583*
X16882Y3586*X16880Y3587*X16457Y4010*X16456Y4012*X16453Y4016*X16451Y4020*
X16450Y4025*Y4027*Y7107*Y7109*X16451Y7114*X16453Y7119*X16454Y7121*X16477Y7155*
X16492Y7192*X16500Y7230*Y7270*X16492Y7308*X16477Y7345*X16455Y7377*X16427Y7405*
X16395Y7427*X16358Y7442*X16320Y7450*X16280*X16242Y7442*X16205Y7427*X16187Y7415*
X16182Y7413*X16177Y7412*X16173*X16168Y7413*X16163Y7415*X16159Y7418*X16156Y7421*
X16153Y7425*X16151Y7430*X16150Y7435*Y7607*Y7609*X16151Y7614*X16153Y7619*
X16154Y7621*X16177Y7655*X16192Y7692*X16200Y7730*Y7770*X16192Y7808*X16177Y7845*
X16155Y7877*X16127Y7905*X16095Y7927*X16058Y7942*X16020Y7950*X15980*Y18304*
X16873*Y8446*X16554Y8128*X16638Y8044*X16639Y8042*X16642Y8038*X16644Y8034*
X16645Y8029*Y8026*Y4978*X16654Y4934*X16671Y4893*X16695Y4857*X16727Y4825*
X16763Y4801*X16804Y4784*X16848Y4775*X16892*X16936Y4784*X16977Y4801*X17013Y4825*
X17045Y4857*X17069Y4893*X17086Y4934*X17095Y4978*Y8021*Y8024*X17096Y8029*
X17098Y8033*X17101Y8037*X17102Y8039*X17191Y8127*X16873Y8446*Y18304*X21154*
Y11700*X21116Y11692*X21079Y11677*X21047Y11655*X21019Y11627*X20997Y11595*
X20982Y11558*X20974Y11520*Y11480*X20982Y11442*X20997Y11405*X21020Y11371*
X21021Y11369*X21023Y11364*X21024Y11359*Y11357*Y11227*Y11225*X21023Y11220*
X21021Y11215*X21018Y11211*X21015Y11208*X21011Y11205*X21006Y11203*X21001Y11202*
X20999*X19199*Y10167*Y10165*X19198Y10160*X19196Y10156*X19193Y10152*X19192Y10150*
X18150Y9108*Y7543*Y7541*X18149Y7536*X18147Y7531*X18146Y7529*X18123Y7495*
X18108Y7458*X18100Y7420*Y7380*X18108Y7342*X18123Y7305*X18145Y7273*X18173Y7245*
X18205Y7223*X18242Y7208*X18280Y7200*X18320*X18358Y7208*X18395Y7223*X18427Y7245*
X18455Y7273*X18477Y7305*X18492Y7342*X18500Y7380*Y7420*X18492Y7458*X18477Y7495*
X18454Y7529*X18453Y7531*X18451Y7536*X18450Y7541*Y7543*Y8974*Y8976*X18451Y8981*
X18453Y8985*X18456Y8989*X18457Y8991*X18605Y9139*Y5950*X18567Y5942*X18530Y5927*
X18498Y5905*X18470Y5877*X18448Y5845*X18433Y5808*X18425Y5770*Y5730*X18433Y5692*
X18448Y5655*X18470Y5623*X18498Y5595*X18530Y5573*X18567Y5558*X18605Y5550*X18645*
X18683Y5558*X18720Y5573*X18754Y5596*X18756Y5597*X18761Y5599*X18766Y5600*X18768*
X19143*X19145*X19150Y5599*X19155Y5597*X19159Y5594*X19161Y5593*X19808Y4945*
X19810Y4943*X19812Y4939*X19814Y4935*X19815Y4930*Y4928*Y4259*Y4256*X19814Y4251*
X19812Y4247*X19810Y4243*X19806Y4239*X19802Y4236*X19798Y4235*X19793Y4234*X19790*
X19589*X19587*X19582Y4235*X19577Y4236*X19573Y4239*X19570Y4243*X19567Y4247*
X19565Y4251*X19564Y4256*Y4259*Y4812*X19260Y5117*X19235Y5133*X19208Y5144*
X19179Y5150*X18768*X18766*X18761Y5151*X18756Y5153*X18754Y5154*X18720Y5177*
X18683Y5192*X18645Y5200*X18605*X18567Y5192*X18530Y5177*X18498Y5155*X18470Y5127*
X18448Y5095*X18433Y5058*X18425Y5020*Y4980*X18433Y4942*X18448Y4905*X18470Y4873*
X18498Y4845*X18530Y4823*X18567Y4808*X18580Y4805*Y3950*X18542Y3942*X18505Y3927*
X18473Y3905*X18445Y3877*X18423Y3845*X18408Y3808*X18400Y3770*Y3730*X18408Y3692*
X18423Y3655*X18445Y3623*X18473Y3595*X18505Y3573*X18542Y3558*X18582Y3550*
X18587Y3548*X18591Y3545*X18594Y3542*X18597Y3537*X18599Y3533*X18600Y3528*Y3152*
X19112Y2640*X19114Y2638*X19116Y2634*X19118Y2630*X19119Y2625*Y2623*Y2095*Y2093*
X19118Y2088*X19116Y2083*X19114Y2079*X19110Y2076*X19106Y2073*X19101Y2071*
X19097Y2070*X19094*X19052*X19050*X19045Y2071*X19041Y2073*X19037Y2076*
X19035Y2077*X18857Y2255*X18856Y2257*X18853Y2261*X18851Y2265*X18850Y2268*
X18842Y2308*X18827Y2345*X18805Y2377*X18777Y2405*X18745Y2427*X18708Y2442*
X18670Y2450*X18630*X18592Y2442*X18555Y2427*X18523Y2405*X18495Y2377*X18473Y2345*
X18458Y2308*X18450Y2270*Y2230*X18458Y2192*X18473Y2155*X18495Y2123*X18523Y2095*
X18555Y2073*X18592Y2058*X18632Y2050*X18635Y2049*X18639Y2047*X18643Y2044*
X18645Y2043*X18918Y1770*X19732*X20000Y2038*Y2043*X20001Y2048*X20003Y2052*
X20006Y2057*X20009Y2060*X20013Y2063*X20018Y2065*X20023Y2066*X20260*Y2856*X19331*
X19329*X19324Y2857*X19319Y2859*X19315Y2861*X19313Y2863*X18907Y3269*X18906Y3271*
X18903Y3275*X18901Y3279*X18900Y3284*Y3287*Y3662*X18807Y3755*X18806Y3757*
X18803Y3761*X18801Y3765*X18800Y3768*X18792Y3808*X18777Y3845*X18755Y3877*
X18727Y3905*X18695Y3927*X18658Y3942*X18620Y3950*X18580*Y4805*X18605Y4800*X18645*
X18683Y4808*X18720Y4823*X18754Y4846*X18756Y4847*X18761Y4849*X18766Y4850*X18768*
X19092*X19094*X19099Y4849*X19104Y4847*X19108Y4844*X19109Y4843*X19257Y4695*
X19259Y4693*X19261Y4689*X19263Y4685*X19264Y4680*Y4678*Y4259*Y4256*X19263Y4251*
X19261Y4247*X19259Y4243*X19255Y4239*X19251Y4236*X19246Y4235*X19242Y4234*X19239*
X19119*Y3444*X20260*Y4234*X20140*X20138*X20133Y4235*X20129Y4236*X20124Y4239*
X20121Y4243*X20118Y4247*X20116Y4251*X20115Y4256*Y4259*Y5062*X19277Y5900*X18766*
X18761Y5901*X18756Y5903*X18720Y5927*X18683Y5942*X18645Y5950*X18605*Y9139*
X19199Y9733*Y8552*Y7302*X19949*Y8552*X19199*Y9733*X19411Y9945*X19413Y9946*
X19417Y9949*X19421Y9951*X19426Y9952*X19428*X20799*Y8552*Y7302*X20972*Y5575*
X20933Y5567*X20897Y5552*X20864Y5530*X20836Y5502*X20814Y5470*X20799Y5433*
X20791Y5395*Y5355*X20799Y5317*X20814Y5280*X20837Y5246*X20838Y5244*X20840Y5239*
X20841Y5234*Y5232*Y5125*Y5122*X20840Y5117*X20838Y5113*X20836Y5109*X20832Y5105*
X20828Y5103*X20824Y5101*X20819Y5100*X20816*X20616*Y3850*Y2450*Y1200*X21366*
Y2450*X20616*Y3850*X22216*Y2450*Y1200*X22966*Y2450*X22216*Y3850*X22966*Y5100*
X22766*X22764*X22759Y5101*X22755Y5103*X22750Y5105*X22747Y5109*X22744Y5113*
X22742Y5117*X22741Y5122*Y5125*Y5234*X22742Y5239*X22744Y5244*X22769Y5280*
X22784Y5317*X22791Y5355*Y5395*X22784Y5433*X22769Y5470*X22747Y5502*X22719Y5530*
X22686Y5552*X22650Y5567*X22611Y5575*X22572*X22533Y5567*X22497Y5552*X22464Y5530*
X22436Y5502*X22414Y5470*X22399Y5433*X22391Y5395*Y5355*X22399Y5317*X22414Y5280*
X22437Y5246*X22438Y5244*X22440Y5239*X22441Y5234*Y5232*Y5125*Y5122*X22440Y5117*
X22438Y5113*X22436Y5109*X22432Y5105*X22428Y5103*X22424Y5101*X22419Y5100*X22416*
X21166*X21164*X21159Y5101*X21155Y5103*X21150Y5105*X21147Y5109*X21144Y5113*
X21142Y5117*X21141Y5122*Y5125*Y5232*Y5234*X21142Y5239*X21144Y5244*X21146Y5246*
X21169Y5280*X21184Y5317*X21191Y5355*Y5395*X21184Y5433*X21169Y5470*X21147Y5502*
X21119Y5530*X21086Y5552*X21050Y5567*X21011Y5575*X20972*Y7302*X21549*Y8552*
X20799*Y9952*X21549*Y11202*X21349*X21347*X21342Y11203*X21337Y11205*X21333Y11208*
X21330Y11211*X21327Y11215*X21325Y11220*X21324Y11225*Y11227*Y11359*X21325Y11364*
X21327Y11369*X21351Y11405*X21366Y11442*X21374Y11480*Y11520*X21366Y11558*
X21351Y11595*X21329Y11627*X21302Y11655*X21269Y11677*X21232Y11692*X21194Y11700*
X21154*Y18304*X24176*Y14750*X24031Y14721*X23895Y14665*X23772Y14583*X23667Y14478*
X23585Y14355*X23529Y14219*X23500Y14074*Y13926*X23529Y13781*X23585Y13645*
X23667Y13522*X23772Y13417*X23895Y13335*X24031Y13279*X24176Y13250*X24324*
X24469Y13279*X24605Y13335*X24728Y13417*X24833Y13522*X24915Y13645*X24971Y13781*
X25000Y13926*Y14074*X24971Y14219*X24915Y14355*X24833Y14478*X24728Y14583*
X24605Y14665*X24469Y14721*X24324Y14750*X24176*Y18304*X25936*X25939*X25944Y18303*
X25948Y18301*X25952Y18298*X25956Y18295*X25959Y18291*X25960Y18286*X25961Y18281*
Y18279*Y225*Y223*X25960Y218*X25959Y213*X25956Y209*X25952Y206*X25948Y203*
X25944Y201*X25939Y200*X25936*X225*X223*X218Y201*X213Y203*X209Y206*X206Y209*
X203Y213*X201Y218*X200Y223*Y225*Y15907*Y15909*X201Y15914*X203Y15919*X206Y15923*
X207Y15924*X657Y16374*Y11700*X618Y11692*X582Y11677*X549Y11655*X521Y11627*
X499Y11595*X484Y11558*X476Y11520*Y11480*X484Y11442*X499Y11405*X522Y11371*
X523Y11369*X525Y11364*X526Y11359*Y11357*Y11227*Y11225*X525Y11220*X523Y11215*
X521Y11211*X517Y11208*X513Y11205*X509Y11203*X504Y11202*X501*X301*Y9952*Y8552*
Y7302*X1051*Y8552*X301*Y9952*X1901*Y8552*Y7302*X1926*Y5250*X1781Y5221*
X1645Y5165*X1522Y5083*X1417Y4978*X1335Y4855*X1279Y4719*X1250Y4574*Y4426*
X1279Y4281*X1335Y4145*X1417Y4022*X1522Y3917*X1645Y3835*X1781Y3779*X1926Y3750*
X2074*X2219Y3779*X2355Y3835*X2478Y3917*X2583Y4022*X2665Y4145*X2721Y4281*
X2750Y4426*Y4574*X2721Y4719*X2665Y4855*X2583Y4978*X2478Y5083*X2355Y5165*
X2219Y5221*X2074Y5250*X1926*Y7302*X2651*Y8552*X1901*Y9952*X2651*Y10402*Y10404*
X2652Y10409*X2654Y10414*X2657Y10418*X2660Y10421*X2665Y10424*X2669Y10426*
X2674Y10427*X2676*X2984*X2989Y10426*X2994Y10424*X3030Y10400*X3067Y10385*
X3105Y10377*X3145*X3183Y10385*X3220Y10400*X3252Y10422*X3280Y10449*X3302Y10482*
X3317Y10519*X3325Y10557*Y10597*X3317Y10635*X3302Y10672*X3280Y10704*X3252Y10732*
X3220Y10754*X3183Y10769*X3145Y10777*X3105*X3067Y10769*X3030Y10754*X2996Y10731*
X2994Y10730*X2989Y10728*X2984Y10727*X2982*X2676*X2674*X2669Y10728*X2665Y10730*
X2660Y10733*X2657Y10736*X2654Y10740*X2652Y10745*X2651Y10750*Y10752*Y11202*X851*
X849*X844Y11203*X840Y11205*X835Y11208*X832Y11211*X829Y11215*X827Y11220*
X826Y11225*Y11227*Y11357*Y11359*X827Y11364*X829Y11369*X831Y11371*X854Y11405*
X869Y11442*X876Y11480*Y11520*X869Y11558*X854Y11595*X832Y11627*X804Y11655*
X771Y11677*X735Y11692*X696Y11700*X657*Y16374*X1926Y17643*Y14750*X1781Y14721*
X1645Y14665*X1522Y14583*X1417Y14478*X1335Y14355*X1279Y14219*X1250Y14074*Y13926*
X1279Y13781*X1335Y13645*X1417Y13522*X1522Y13417*X1645Y13335*X1781Y13279*
X1926Y13250*X2074*X2219Y13279*X2355Y13335*X2478Y13417*X2583Y13522*X2665Y13645*
X2721Y13781*X2750Y13926*Y14074*X2721Y14219*X2665Y14355*X2583Y14478*X2478Y14583*
X2355Y14665*X2219Y14721*X2074Y14750*X1926*Y17643*X2579Y18297*X2581Y18298*
X2585Y18301*X2590Y18303*X2595Y18304*X2597*X5916*Y17304*Y16297*Y16295*
X5915Y16290*X5913Y16286*X5911Y16282*X5909Y16280*X5100Y15471*Y11143*Y11141*
X5099Y11136*X5097Y11131*X5096Y11129*X5073Y11095*X5058Y11058*X5050Y11020*Y10980*
X5058Y10942*X5073Y10905*X5096Y10871*X5097Y10869*X5099Y10864*X5100Y10859*Y10857*
Y7893*Y7891*X5099Y7886*X5097Y7881*X5096Y7879*X5073Y7845*X5058Y7808*X5050Y7770*
Y7730*X5058Y7692*X5073Y7655*X5095Y7623*X5123Y7595*X5155Y7573*X5192Y7558*
X5230Y7550*X5270*X5308Y7558*X5345Y7573*X5377Y7595*X5405Y7623*X5427Y7655*
X5442Y7692*X5450Y7730*Y7770*X5442Y7808*X5427Y7845*X5404Y7879*X5403Y7881*
X5401Y7886*X5400Y7891*Y7893*Y10857*Y10859*X5401Y10864*X5403Y10869*X5404Y10871*
X5427Y10905*X5442Y10942*X5450Y10980*Y11020*X5442Y11058*X5427Y11095*X5404Y11129*
X5403Y11131*X5401Y11136*X5400Y11141*Y11143*Y15336*Y15339*X5401Y15343*
X5403Y15348*X5406Y15352*X5407Y15354*X5916Y15863*Y14654*Y13404*X6666*Y14654*
X5916*Y15863*X6100Y16047*X6102Y16049*X6106Y16051*X6111Y16053*X6116Y16054*X6118*
X7516*Y14654*Y13404*X8266*Y14654*X7516*Y16054*X8047*X8052Y16053*X8056Y16051*
X8060Y16049*X8963Y15147*X8964Y15145*X8967Y15141*X8969Y15136*X8970Y15131*Y15129*
Y12584*X9859Y11695*X9861Y11693*X9863Y11689*X9865Y11685*X9866Y11680*Y11678*Y8268*
Y8266*X9865Y8261*X9863Y8256*X9862Y8254*X9839Y8220*X9824Y8183*X9816Y8145*Y8105*
X9824Y8067*X9839Y8030*X9862Y7996*X9863Y7994*X9865Y7989*X9866Y7984*Y7982*Y6063*
Y6061*X9865Y6056*X9863Y6052*X9861Y6048*X9859Y6046*X8445Y4632*X8443Y4630*
X8439Y4628*X8435Y4626*X8430Y4625*X8428*X8291*X8289*X8284Y4626*X8280Y4628*
X8275Y4630*X8272Y4634*X8269Y4638*X8267Y4642*X8266Y4647*Y4650*Y5100*X6476*
X6471Y5101*X6466Y5102*X6462Y5105*X6459Y5109*X6456Y5113*X6454Y5117*X6453Y5122*
Y5127*X6454Y5132*X6456Y5136*X6469Y5155*X6484Y5192*X6491Y5230*Y5270*X6484Y5308*
X6469Y5345*X6446Y5379*X6444Y5381*X6442Y5386*X6441Y5391*Y5393*Y9583*Y9586*
X6442Y9591*X6444Y9595*X6447Y9599*X6449Y9601*X6601Y9753*Y8552*Y7302*X7351*Y8552*
X6601*Y9753*X6792Y9945*X6794Y9946*X6798Y9949*X6803Y9951*X6808Y9952*X6810*X8201*
Y8552*Y7302*X8951*Y8552*X8201*Y9952*X8741*X8744*X8748Y9951*X8753Y9949*
X8757Y9946*X8759Y9945*X9343Y9361*X9344Y9359*X9347Y9355*X9349Y9350*X9350Y9346*
Y9343*Y8768*Y8766*X9349Y8761*X9347Y8756*X9346Y8754*X9323Y8720*X9308Y8683*
X9300Y8645*Y8605*X9308Y8567*X9323Y8530*X9346Y8496*X9347Y8494*X9349Y8489*
X9350Y8484*Y8482*Y6393*Y6391*X9349Y6386*X9347Y6381*X9346Y6379*X9323Y6345*
X9308Y6308*X9300Y6270*Y6230*X9308Y6192*X9323Y6155*X9345Y6123*X9373Y6095*
X9405Y6073*X9442Y6058*X9480Y6050*X9520*X9558Y6058*X9595Y6073*X9627Y6095*
X9655Y6123*X9677Y6155*X9692Y6192*X9700Y6230*Y6270*X9692Y6308*X9677Y6345*
X9654Y6379*X9653Y6381*X9651Y6386*X9650Y6391*Y6393*Y8482*Y8484*X9651Y8489*
X9653Y8494*X9654Y8496*X9677Y8530*X9692Y8567*X9700Y8605*Y8645*X9692Y8683*
X9677Y8720*X9654Y8754*X9653Y8756*X9651Y8761*X9650Y8766*Y8768*Y9478*X8958Y10170*
X8956Y10172*X8953Y10176*X8952Y10180*X8951Y10185*Y10187*Y11202*X6601*Y10187*
Y10185*X6600Y10180*X6598Y10176*X6595Y10172*X6593Y10170*X6141Y9718*Y5393*Y5391*
X6140Y5386*X6138Y5381*X6137Y5379*X6114Y5345*X6099Y5308*X6091Y5270*Y5230*
X6099Y5192*X6114Y5155*X6127Y5136*X6129Y5132*X6130Y5127*Y5122*X6129Y5117*
X6127Y5113*X6124Y5109*X6120Y5105*X6116Y5102*X6112Y5101*X6107Y5100*X5916*Y3850*
Y2450*Y1200*X6666*Y2450*X5916*Y3850*X7516*Y2450*Y1200*X8266*Y2450*X7516*Y3850*
X8266*Y4300*Y4302*X8267Y4307*X8269Y4311*X8272Y4316*X8275Y4319*X8280Y4322*
X8284Y4324*X8289Y4325*X8291*X8562*X10166Y5929*Y7982*Y7984*X10167Y7989*
X10169Y7994*X10171Y7996*X10194Y8030*X10209Y8067*X10216Y8105*Y8145*X10209Y8183*
X10194Y8220*X10171Y8254*X10169Y8256*X10167Y8261*X10166Y8266*Y8268*Y11812*
X9277Y12701*X9276Y12703*X9273Y12707*X9271Y12712*X9270Y12716*Y12719*Y15263*
X8274Y16260*X8272Y16262*X8269Y16266*X8267Y16270*X8266Y16275*Y16277*Y17304*X5916*
Y18304*X10799*X10801*X10806Y18303*X10810Y18301*X10815Y18298*X10818Y18295*
X10821Y18291*X10823Y18286*X10824Y18281*Y18279*Y16929*Y16909*X10832Y16871*
X10847Y16835*X10869Y16802*X10896Y16774*X10929Y16752*X10965Y16737*X10980Y16734*
Y7200*X10942Y7192*X10905Y7177*X10873Y7155*X10845Y7127*X10823Y7095*X10808Y7058*
X10800Y7020*Y6980*X10808Y6942*X10823Y6905*X10846Y6871*X10847Y6869*X10849Y6864*
X10850Y6859*Y6857*Y2813*X11418Y2245*X11419Y2243*X11422Y2239*X11424Y2235*
X11425Y2232*X11433Y2192*X11448Y2155*X11470Y2123*X11498Y2095*X11530Y2073*
X11567Y2058*X11605Y2050*X11645*X11683Y2058*X11720Y2073*X11752Y2095*X11780Y2123*
X11802Y2155*X11817Y2192*X11825Y2230*Y2270*X11817Y2308*X11802Y2345*X11780Y2377*
X11752Y2405*X11720Y2427*X11683Y2442*X11643Y2450*X11640Y2451*X11636Y2453*
X11632Y2456*X11630Y2457*X11157Y2930*X11156Y2932*X11153Y2936*X11151Y2940*
X11150Y2945*Y2947*Y6859*X11151Y6864*X11153Y6869*X11177Y6905*X11192Y6942*
X11200Y6980*Y7020*X11192Y7058*X11177Y7095*X11155Y7127*X11127Y7155*X11095Y7177*
X11058Y7192*X11020Y7200*X10980*Y16734*X11004Y16730*X11024Y16729*X11605*Y6950*
X11567Y6942*X11530Y6927*X11498Y6905*X11470Y6877*X11448Y6845*X11433Y6808*
X11425Y6770*Y6730*X11433Y6692*X11448Y6655*X11471Y6621*X11472Y6619*X11474Y6614*
X11475Y6609*Y6607*Y3893*Y3891*X11474Y3886*X11472Y3881*X11471Y3879*X11448Y3845*
X11433Y3808*X11425Y3770*Y3730*X11433Y3692*X11448Y3655*X11470Y3623*X11498Y3595*
X11530Y3573*X11567Y3558*X11605Y3550*X11645*X11683Y3558*X11720Y3573*X11752Y3595*
X11780Y3623*X11802Y3655*X11817Y3692*X11825Y3730*Y3770*X11817Y3808*X11802Y3845*
X11779Y3879*X11778Y3881*X11776Y3886*X11775Y3891*Y3893*Y6609*X11776Y6614*
X11778Y6619*X11802Y6655*X11817Y6692*X11825Y6730*Y6770*X11817Y6808*X11802Y6845*
X11780Y6877*X11752Y6905*X11720Y6927*X11683Y6942*X11645Y6950*X11605*Y16729*
X13449*Y15270*X13348Y15250*X13254Y15211*X13169Y15154*X13096Y15081*X13039Y14996*
X13000Y14902*X12980Y14801*Y14699*X13000Y14598*X13039Y14504*X13096Y14419*
X13169Y14346*X13254Y14289*X13348Y14250*X13449Y14230*X13551*X13652Y14250*
X13746Y14289*X13831Y14346*X13904Y14419*X13961Y14504*X14000Y14598*X14020Y14699*
Y14801*X14000Y14902*X13961Y14996*X13904Y15081*X13831Y15154*X13746Y15211*
X13652Y15250*X13551Y15270*X13449*Y16729*X14855*Y11700*X14816Y11692*X14780Y11677*
X14747Y11655*X14719Y11627*X14698Y11595*X14682Y11558*X14675Y11520*Y11480*
X14682Y11442*X14698Y11405*X14721Y11371*X14722Y11369*X14724Y11364*X14725Y11359*
Y11357*Y11227*Y11225*X14724Y11220*X14722Y11215*X14719Y11211*X14716Y11208*
X14712Y11205*X14707Y11203*X14702Y11202*X14700*X12900*Y10187*Y10185*X12899Y10180*
X12897Y10176*X12894Y10172*X12892Y10170*X12475Y9752*Y4438*X13168Y3745*
X13169Y3743*X13172Y3739*X13174Y3735*X13175Y3732*X13183Y3692*X13198Y3655*
X13220Y3623*X13248Y3595*X13280Y3573*X13317Y3558*X13355Y3550*X13395*X13433Y3558*
X13470Y3573*X13502Y3595*X13530Y3623*X13552Y3655*X13567Y3692*X13575Y3730*Y3770*
X13567Y3808*X13552Y3845*X13530Y3877*X13502Y3905*X13470Y3927*X13433Y3942*
X13393Y3950*X13390Y3951*X13386Y3953*X13382Y3956*X13380Y3957*X12782Y4555*
X12781Y4557*X12778Y4561*X12776Y4565*X12775Y4570*Y4572*Y9618*Y9620*X12776Y9625*
X12778Y9630*X12781Y9634*X12782Y9635*X12900Y9753*Y8552*Y7302*X13650*Y8552*X12900*
Y9753*X13092Y9945*X13093Y9946*X13097Y9949*X13102Y9951*X13107Y9952*X13109*X13855*
Y6950*X13817Y6942*X13780Y6927*X13748Y6905*X13720Y6877*X13698Y6845*X13683Y6808*
X13675Y6770*Y6730*X13683Y6692*X13698Y6655*X13721Y6621*X13722Y6619*X13724Y6614*
X13725Y6609*Y6607*Y2822*Y2820*X13724Y2815*X13722Y2811*X13719Y2807*X13718Y2805*
X13370Y2457*X13368Y2456*X13364Y2453*X13360Y2451*X13357Y2450*X13317Y2442*
X13280Y2427*X13248Y2405*X13220Y2377*X13198Y2345*X13183Y2308*X13175Y2270*Y2230*
X13183Y2192*X13198Y2155*X13220Y2123*X13248Y2095*X13280Y2073*X13317Y2058*
X13355Y2050*X13395*X13433Y2058*X13470Y2073*X13502Y2095*X13530Y2123*X13552Y2155*
X13567Y2192*X13575Y2232*X13576Y2235*X13578Y2239*X13581Y2243*X13582Y2245*
X14025Y2688*Y6609*X14026Y6614*X14028Y6619*X14052Y6655*X14067Y6692*X14075Y6730*
Y6770*X14067Y6808*X14052Y6845*X14030Y6877*X14002Y6905*X13970Y6927*X13933Y6942*
X13895Y6950*X13855*Y9952*X14500*Y8552*Y7302*X15250*Y8552*X14500*Y9952*X15250*
Y11202*X15050*X15047*X15043Y11203*X15038Y11205*X15034Y11208*X15030Y11211*
X15028Y11215*X15026Y11220*X15025Y11225*Y11227*Y11359*X15026Y11364*X15028Y11369*
X15052Y11405*X15067Y11442*X15075Y11480*Y11520*X15067Y11558*X15052Y11595*
X15030Y11627*X15002Y11655*X14970Y11677*X14933Y11692*X14895Y11700*X14855*Y16729*
X15748*X15768Y16730*X15806Y16737*X15843Y16752*X15875Y16774*X15903Y16802*
X15925Y16835*G37*G54D10*X16875Y8125D03*X16870Y5950D03*Y5000D03*G54D29*D02*
Y5950D01*D02*Y8125D01*X16873Y8128*X16875Y8125*G54D34*X24250Y14000D03*D03*
X2000D03*D03*Y4500D03*D03*G54D50*X8576Y7927D03*X6976D03*X7891Y1825D03*X6291D03*
X14875Y7927D03*X13275D03*X22591Y1825D03*X20991D03*X2276Y7927D03*X676D03*
X7891Y14029D03*X6291D03*X21174Y7927D03*X19574D03*X14875Y10577D03*X21174D03*
G54D10*X14875Y11500D03*X21174D03*G54D20*X14875Y10577D02*Y11500D01*
X21174Y10577D02*Y11500D01*G54D50*X22591Y4475D03*X8576Y10577D03*X2276D03*G54D10*
X9500Y6250D03*Y8625D03*X3125Y10577D03*X22591Y5375D03*G54D20*X9500Y8625D02*
Y6250D01*X2276Y10577D02*X3125D01*X22591Y4475D02*Y5375D01*X8576Y10577D02*
Y10340D01*X9500Y9416*Y8625*G54D50*X7891Y4475D03*Y16679D03*G54D10*X10016Y8125D03*
G54D20*X7891Y4475D02*X8500D01*X10016Y5991*Y8125*X7891Y16679D02*Y16430D01*
X9120Y15201*Y12646*X10016Y11750*Y8125*G54D50*X1476Y10577D03*X7091Y16679D03*
Y4475D03*X7776Y10577D03*X20374D03*X14075D03*X21791Y4475D03*G54D38*X2760Y2165D03*
Y16339D03*X20807Y15157D03*X24744Y2165D03*G54D35*X13500Y14750D03*G54D10*
X15125Y2250D03*Y3750D03*X16875Y4120D03*Y2620D03*X25000Y11250D03*Y8750D03*
Y6250D03*X22500Y7500D03*Y10000D03*Y12500D03*X10000Y16250D03*X12500D03*X15000D03*
X17500D03*X16250Y13750D03*X13750D03*X11250D03*X3750Y12500D03*Y7500D03*
X11250Y10000D03*X16250Y10250D03*X13875Y8625D03*X10875Y8375D03*X12250Y7875D03*
X18875Y5375D03*X18125Y3000D03*X21875Y625D03*X19375D03*X16875D03*X14375D03*
X11875D03*X9375D03*X6875D03*X4375D03*G54D33*X1476Y10577D02*Y11202D01*Y10577D02*
Y9952D01*X7091Y16679D02*Y17304D01*Y16679D02*Y16054D01*Y4475D02*Y5100D01*
Y4475D02*Y3850D01*X7776Y10577D02*Y11202D01*Y10577D02*Y9952D01*X20374Y10577D02*
Y11202D01*Y10577D02*Y9952D01*X14075Y10577D02*Y11202D01*Y10577D02*Y9952D01*
X21791Y4475D02*Y5100D01*Y4475D02*Y3850D01*G54D32*X13500Y14750D02*X14020D01*
X13500D02*Y15270D01*Y14750D02*X12980D01*X13500D02*Y14230D01*G54D10*
X11000Y7000D03*X11625Y2250D03*G54D20*D02*X11000Y2875D01*Y7000*G54D10*
X11625Y6750D03*Y3750D03*G54D20*D02*Y6750D01*G54D50*X6291Y16679D03*X676Y10577D03*
G54D10*Y11500D03*X5250Y11000D03*Y7750D03*G54D20*X676Y10577D02*Y11500D01*
X5250Y11000D02*Y7750D01*X6291Y16679D02*Y16450D01*X5250Y15409*Y11000*G54D50*
X6291Y4475D03*X6976Y10577D03*X19574D03*G54D10*X13375Y2250D03*X13875Y6750D03*
X6291Y5250D03*X18300Y7400D03*G54D20*X13375Y2250D02*X13875Y2750D01*Y6750*
X6291Y4475D02*Y5250D01*X6976Y10577D02*Y10340D01*X6291Y9656*Y5250*X18300Y7400D02*
Y9046D01*X19574Y10320*Y10577*G54D50*X13275D03*X20991Y4475D03*G54D10*
X13375Y3750D03*X20991Y5375D03*G54D20*Y4475D02*Y5375D01*X13275Y10577D02*
Y10340D01*X12625Y9690*Y4500*X13375Y3750*G54D44*X19414Y2461D03*G54D10*
X18600Y3750D03*G54D20*X19414Y2461D02*Y2550D01*X18750Y3214*Y3600*X18600Y3750*
G54D44*X19965Y2461D03*G54D10*X18650Y2250D03*G54D20*X19965Y2461D02*X19850D01*
Y2100*X19670Y1920*X18980*X18650Y2250*G54D44*X19414Y3839D03*G54D10*
X18625Y5000D03*G54D20*X19414Y3839D02*Y4750D01*X19164Y5000*X18625*G54D44*
X19965Y3839D03*G54D10*X18625Y5750D03*G54D20*X19965Y3839D02*Y5000D01*X19215Y5750*
X18625*G54D10*X16300Y7250D03*X16875Y3380D03*G54D20*X16300Y7250D02*Y3955D01*
X16875Y3380*G54D10*X16000Y7750D03*X16875Y1880D03*G54D20*X16000Y7750D02*Y2755D01*
X16875Y1880*X-4375Y-2000D02*X-5125D01*Y-3000*Y-2485D02*X-4667D01*
X-4125Y-2000D02*Y-2712D01*X-4072Y-2864*X-3967Y-2955*X-3802Y-3000*X-3697*
X-3540Y-2955*X-3435Y-2864*X-3375Y-2712*Y-2000*X-3125D02*Y-3000D01*X-2375*
X-2125Y-2000D02*Y-3000D01*X-1375*X-1125D02*Y-2000D01*X-645*X-487Y-2061*
X-435Y-2106*X-375Y-2197*Y-2333*X-435Y-2439*X-487Y-2485*X-645Y-2530*X-1125*
X-125Y-2000D02*Y-3000D01*X625*X1010Y-2667D02*X1483D01*X875Y-3000D02*
X1243Y-2000D01*X1625Y-3000*X2625Y-2000D02*X2250Y-2485D01*X1875Y-2000D02*
X2250Y-2485D01*Y-3000*X3928Y-2242D02*Y-2197D01*X3980Y-2106*X4033Y-2061*
X4138Y-2000*X4355*X4460Y-2061*X4513Y-2106*X4565Y-2197*Y-2288*X4513Y-2379*
X4408Y-2530*X3875Y-3000*X4625*X5198Y-2015D02*X5033Y-2061D01*X4928Y-2197*
X4875Y-2439*Y-2576*X4928Y-2818*X5033Y-2955*X5198Y-3000*X5303*X5460Y-2955*
X5565Y-2818*X5625Y-2576*Y-2439*X5565Y-2197*X5460Y-2061*X5303Y-2015*X5198*
X6198D02*X6033Y-2061D01*X5928Y-2197*X5875Y-2439*Y-2576*X5928Y-2818*X6033Y-2955*
X6198Y-3000*X6303*X6460Y-2955*X6565Y-2818*X6625Y-2576*Y-2439*X6565Y-2197*
X6460Y-2061*X6303Y-2015*X6198*X6875Y-2576D02*X7625D01*X8198Y-2015D02*
X8033Y-2061D01*X7928Y-2197*X7875Y-2439*Y-2576*X7928Y-2818*X8033Y-2955*
X8198Y-3000*X8303*X8460Y-2955*X8565Y-2818*X8625Y-2576*Y-2439*X8565Y-2197*
X8460Y-2061*X8303Y-2015*X8198*X9198D02*X9033Y-2061D01*X8928Y-2197*X8875Y-2439*
Y-2576*X8928Y-2818*X9033Y-2955*X9198Y-3000*X9303*X9460Y-2955*X9565Y-2818*
X9625Y-2576*Y-2439*X9565Y-2197*X9460Y-2061*X9303Y-2015*X9198*X9928Y-2242D02*
Y-2197D01*X9980Y-2106*X10033Y-2061*X10138Y-2000*X10355*X10460Y-2061*
X10513Y-2106*X10565Y-2197*Y-2288*X10513Y-2379*X10408Y-2530*X9875Y-3000*X10625*
X10980Y-2015D02*X11565D01*X11243Y-2394*X11408*X11513Y-2439*X11565Y-2485*
X11625Y-2621*Y-2727*X11565Y-2864*X11460Y-2955*X11303Y-3000*X11138*X10980Y-2955*
X10928Y-2909*X10875Y-2818*X11875Y-2576D02*X12625D01*X13198Y-2015D02*
X13033Y-2061D01*X12928Y-2197*X12875Y-2439*Y-2576*X12928Y-2818*X13033Y-2955*
X13198Y-3000*X13303*X13460Y-2955*X13565Y-2818*X13625Y-2576*Y-2439*X13565Y-2197*
X13460Y-2061*X13303Y-2015*X13198*X14370D02*Y-3000D01*Y-2015D02*X13875Y-2667D01*
X14625*X15875Y-3000D02*Y-2000D01*X16355*X16513Y-2061*X16565Y-2106*X16625Y-2197*
Y-2288*X16565Y-2379*X16513Y-2439*X16355Y-2485*X15875*X16243D02*X16625Y-3000D01*
X17625Y-2000D02*X16875D01*Y-3000*X17625*X16875Y-2485D02*X17333D01*
X17875Y-2000D02*X18243Y-3000D01*X18625Y-2000*X20010Y-2667D02*X20483D01*
X19875Y-3000D02*X20243Y-2000D01*X20625Y-3000*X21875D02*Y-2000D01*X22355*
X22513Y-2061*X22565Y-2106*X22625Y-2197*Y-2333*X22565Y-2439*X22513Y-2485*
X22355Y-2530*X21875*X22875Y-2000D02*X23055Y-3000D01*X23243Y-2379*X23430Y-3000*
X23625Y-2000*X23875Y-2485D02*X24355D01*X24513Y-2530*X24565Y-2576*X24625Y-2667*
Y-2818*X24565Y-2909*X24513Y-2955*X24355Y-3000*X23875*Y-2000*X24355*X24513Y-2061*
X24565Y-2106*X24625Y-2197*Y-2288*X24565Y-2379*X24513Y-2439*X24355Y-2485*
X25875Y-2000D02*Y-3000D01*X26625*X27010Y-2667D02*X27483D01*X26875Y-3000D02*
X27243Y-2000D01*X27625Y-3000*X28625Y-2000D02*X28250Y-2485D01*X27875Y-2000D02*
X28250Y-2485D01*Y-3000*X29625Y-2000D02*X28875D01*Y-3000*X29625*X28875Y-2485D02*
X29333D01*X29875Y-3000D02*Y-2000D01*X30355*X30513Y-2061*X30565Y-2106*
X30625Y-2197*Y-2288*X30565Y-2379*X30513Y-2439*X30355Y-2485*X29875*X30243D02*
X30625Y-3000D01*X32168Y-2197D02*X32228Y-2152D01*X32318Y-2015*Y-3000*M02*
