%MOIN*%
%FSLAN2X24Y24*%
%ADD10C,0.0240000*%
%ADD11C,0.0010000*%
%ADD12C,0.0020000*%
%ADD13C,0.0030000*%
%ADD14C,0.0050000*%
%ADD15C,0.0060000*%
%ADD16C,0.0065000*%
%ADD17C,0.0079921*%
%ADD18C,0.0080000*%
%ADD19C,0.0085000*%
%ADD20C,0.0100000*%
%ADD21C,0.0110000*%
%ADD22C,0.0112000*%
%ADD23C,0.0135000*%
%ADD24C,0.0140000*%
%ADD25C,0.0150000*%
%ADD26C,0.0156000*%
%ADD27C,0.0187000*%
%ADD28C,0.0200000*%
%ADD29C,0.0250000*%
%ADD30C,845.4660028*%
%ADD31R,0.0100000X0.0100000*%
%ADD32R,0.0200000X0.0200000*%
%ADD33R,0.0250000X0.0250000*%
%ADD34C,0.0500000*%
%ADD35C,0.0840000*%
%ADD36C,0.0900000*%
%ADD37C,0.1500000*%
%ADD38C,0.1750000*%
%ADD39C,0.1850000*%
%ADD40R,0.0358268X0.0358268*%
%ADD41R,0.0433071X0.0393701*%
%ADD42R,0.0438268X0.0438268*%
%ADD43R,0.0513071X0.0473701*%
%ADD44R,0.0390000X0.0590000*%
%ADD45R,0.0511811X0.0590551*%
%ADD46R,0.0320000X0.0630000*%
%ADD47R,0.0591811X0.0670551*%
%ADD48R,0.0490000X0.0690000*%
%ADD49R,0.0420000X0.0730000*%
%ADD50R,0.0550000X0.1050000*%
%ADD51R,0.0650000X0.1150000*%
%ADD52R,0.0830000X0.1180000*%
%ADD53R,0.0930000X0.1280000*%
G90*G70*G01*D02*G36*X16875Y1500D02*X19500D01*Y250*X16875*Y1500*G37*G54D15*
X13000Y15250D02*X14000D01*Y14250*X13000*Y15250*G54D20*X18371Y2953D02*X18961D01*
X18666D02*X18371Y3346D01*X18666Y2953D02*X18961Y3346D01*X18371*X18666Y2953D02*
Y2559D01*X19099Y2520D02*Y3780D01*X20280Y2520D02*Y3780D01*X276Y8052D02*X176D01*
Y10452*X276*X2676Y8052D02*X2776D01*Y10452*X2676*X1076Y8052D02*X1876D01*
X5891Y14154D02*X5791D01*Y16554*X5891*X8291Y14154D02*X8391D01*Y16554*X8291*
X6691Y14154D02*X7491D01*X19174Y8052D02*X19074D01*Y10452*X19174*X21574Y8052D02*
X21674D01*Y10452*X21574*X19974Y8052D02*X20774D01*X6576D02*X6476D01*Y10452*X6576*
X8976Y8052D02*X9076D01*Y10452*X8976*X7376Y8052D02*X8176D01*X5891Y1950D02*
X5791D01*Y4350*X5891*X8291Y1950D02*X8391D01*Y4350*X8291*X6691Y1950D02*X7491D01*
X12875Y8052D02*X12775D01*Y10452*X12875*X15275Y8052D02*X15375D01*Y10452*X15275*
X13675Y8052D02*X14475D01*X20591Y1950D02*X20491D01*Y4350*X20591*X22991Y1950D02*
X23091D01*Y4350*X22991*X21391Y1950D02*X22191D01*X18666Y3346D02*Y3539D01*G54D18*
X12188Y15000D02*X11813D01*Y14500*X12188*X11813Y14758D02*X12041D01*
X12459Y14902D02*X12489Y14924D01*X12534Y14992*Y14500*X17053Y4630D02*Y4130D01*
X17428*X17928Y4630D02*X17553D01*Y4130*X17928*X17553Y4388D02*X17781D01*
X18053Y4630D02*X18240D01*X18319Y4600*X18371Y4554*X18398Y4509*X18428Y4441*Y4319*
X18398Y4251*X18371Y4198*X18319Y4153*X18240Y4130*X18053*Y4630*X18699Y4532D02*
X18729Y4554D01*X18774Y4622*Y4130*X3438Y9424D02*X3381Y9470D01*X3303Y9500*X3194*
X3115Y9470*X3063Y9424*Y9379*X3089Y9333*X3115Y9311*X3168Y9280*X3329Y9235*
X3381Y9212*X3408Y9189*X3438Y9144*Y9068*X3381Y9023*X3303Y9000*X3194*X3115Y9023*
X3063Y9068*X3563Y9492D02*X3938D01*X3668Y9000*X9063Y15549D02*X9006Y15595D01*
X8928Y15625*X8819*X8740Y15595*X8688Y15549*Y15504*X8714Y15458*X8740Y15436*
X8793Y15405*X8954Y15360*X9006Y15337*X9033Y15314*X9063Y15269*Y15193*X9006Y15148*
X8928Y15125*X8819*X8740Y15148*X8688Y15193*X9319Y15617D02*X9240Y15595D01*
X9214Y15549*Y15504*X9240Y15451*X9293Y15428*X9401Y15405*X9480Y15383*X9533Y15337*
X9563Y15292*Y15216*X9533Y15170*X9506Y15148*X9428Y15125*X9319*X9240Y15148*
X9214Y15170*X9188Y15216*Y15292*X9214Y15337*X9266Y15383*X9345Y15405*X9454Y15428*
X9506Y15451*X9533Y15504*Y15549*X9506Y15595*X9428Y15617*X9319*X18313Y9424D02*
X18256Y9470D01*X18178Y9500*X18069*X17990Y9470*X17938Y9424*Y9379*X17964Y9333*
X17990Y9311*X18043Y9280*X18204Y9235*X18256Y9212*X18283Y9189*X18313Y9144*Y9068*
X18256Y9023*X18178Y9000*X18069*X17990Y9023*X17938Y9068*X18813Y9333D02*
X18783Y9258D01*X18726Y9212*X18636Y9189*X18610*X18524Y9212*X18464Y9258*
X18438Y9333*Y9356*X18464Y9424*X18524Y9470*X18610Y9492*X18636*X18726Y9470*
X18783Y9424*X18813Y9333*Y9212*X18783Y9091*X18726Y9023*X18636Y9000*X18580*
X18494Y9023*X18464Y9068*X5188Y9424D02*X5131Y9470D01*X5053Y9500*X4944*X4865Y9470*
X4813Y9424*Y9379*X4839Y9333*X4865Y9311*X4918Y9280*X5079Y9235*X5131Y9212*
X5158Y9189*X5188Y9144*Y9068*X5131Y9023*X5053Y9000*X4944*X4865Y9023*X4813Y9068*
X5459Y9402D02*X5489Y9424D01*X5534Y9492*Y9000*X5974Y9492D02*X5891Y9470D01*
X5839Y9402*X5813Y9280*Y9212*X5839Y9091*X5891Y9023*X5974Y9000*X6026*X6105Y9023*
X6158Y9091*X6188Y9212*Y9280*X6158Y9402*X6105Y9470*X6026Y9492*X5974*
X4563Y3299D02*X4506Y3345D01*X4428Y3375*X4319*X4240Y3345*X4188Y3299*Y3254*
X4214Y3208*X4240Y3186*X4293Y3155*X4454Y3110*X4506Y3087*X4533Y3064*X4563Y3019*
Y2943*X4506Y2898*X4428Y2875*X4319*X4240Y2898*X4188Y2943*X4834Y3277D02*
X4864Y3299D01*X4909Y3367*Y2875*X5334Y3277D02*X5364Y3299D01*X5409Y3367*Y2875*
X11563Y9424D02*X11506Y9470D01*X11428Y9500*X11319*X11240Y9470*X11188Y9424*Y9379*
X11214Y9333*X11240Y9311*X11293Y9280*X11454Y9235*X11506Y9212*X11533Y9189*
X11563Y9144*Y9068*X11506Y9023*X11428Y9000*X11319*X11240Y9023*X11188Y9068*
X11834Y9402D02*X11864Y9424D01*X11909Y9492*Y9000*X12214Y9379D02*Y9402D01*
X12240Y9447*X12266Y9470*X12319Y9500*X12428*X12480Y9470*X12506Y9447*X12533Y9402*
Y9356*X12506Y9311*X12454Y9235*X12188Y9000*X12563*X21438Y6049D02*X21381Y6095D01*
X21303Y6125*X21194*X21115Y6095*X21063Y6049*Y6004*X21089Y5958*X21115Y5936*
X21168Y5905*X21329Y5860*X21381Y5837*X21408Y5814*X21438Y5769*Y5693*X21381Y5648*
X21303Y5625*X21194*X21115Y5648*X21063Y5693*X21709Y6027D02*X21739Y6049D01*
X21784Y6117*Y5625*X22115Y6117D02*X22408D01*X22246Y5928*X22329*X22381Y5905*
X22408Y5883*X22438Y5814*Y5761*X22408Y5693*X22355Y5648*X22276Y5625*X22194*
X22115Y5648*X22089Y5670*X22063Y5716*G54D20*X-9875Y-2000D02*X-10625D01*Y-3000*
Y-2485D02*X-10167D01*X-9625Y-2000D02*Y-2712D01*X-9572Y-2864*X-9467Y-2955*
X-9302Y-3000*X-9197*X-9040Y-2955*X-8935Y-2864*X-8875Y-2712*Y-2000*X-8625D02*
Y-3000D01*X-7875*X-7625Y-2000D02*Y-3000D01*X-6875*X-6625D02*Y-2000D01*X-6145*
X-5987Y-2061*X-5935Y-2106*X-5875Y-2197*Y-2333*X-5935Y-2439*X-5987Y-2485*
X-6145Y-2530*X-6625*X-5625Y-2000D02*Y-3000D01*X-4875*X-4490Y-2667D02*X-4017D01*
X-4625Y-3000D02*X-4257Y-2000D01*X-3875Y-3000*X-2875Y-2000D02*X-3250Y-2485D01*
X-3625Y-2000D02*X-3250Y-2485D01*Y-3000*X-1572Y-2242D02*Y-2197D01*X-1520Y-2106*
X-1467Y-2061*X-1362Y-2000*X-1145*X-1040Y-2061*X-987Y-2106*X-935Y-2197*Y-2288*
X-987Y-2379*X-1092Y-2530*X-1625Y-3000*X-875*X-302Y-2015D02*X-467Y-2061D01*
X-572Y-2197*X-625Y-2439*Y-2576*X-572Y-2818*X-467Y-2955*X-302Y-3000*X-197*
X-40Y-2955*X65Y-2818*X125Y-2576*Y-2439*X65Y-2197*X-40Y-2061*X-197Y-2015*X-302*
X698D02*X533Y-2061D01*X428Y-2197*X375Y-2439*Y-2576*X428Y-2818*X533Y-2955*
X698Y-3000*X803*X960Y-2955*X1065Y-2818*X1125Y-2576*Y-2439*X1065Y-2197*
X960Y-2061*X803Y-2015*X698*X1375Y-2576D02*X2125D01*X2698Y-2015D02*
X2533Y-2061D01*X2428Y-2197*X2375Y-2439*Y-2576*X2428Y-2818*X2533Y-2955*
X2698Y-3000*X2803*X2960Y-2955*X3065Y-2818*X3125Y-2576*Y-2439*X3065Y-2197*
X2960Y-2061*X2803Y-2015*X2698*X3698D02*X3533Y-2061D01*X3428Y-2197*X3375Y-2439*
Y-2576*X3428Y-2818*X3533Y-2955*X3698Y-3000*X3803*X3960Y-2955*X4065Y-2818*
X4125Y-2576*Y-2439*X4065Y-2197*X3960Y-2061*X3803Y-2015*X3698*X4428Y-2242D02*
Y-2197D01*X4480Y-2106*X4533Y-2061*X4638Y-2000*X4855*X4960Y-2061*X5013Y-2106*
X5065Y-2197*Y-2288*X5013Y-2379*X4908Y-2530*X4375Y-3000*X5125*X5480Y-2015D02*
X6065D01*X5743Y-2394*X5908*X6013Y-2439*X6065Y-2485*X6125Y-2621*Y-2727*
X6065Y-2864*X5960Y-2955*X5803Y-3000*X5638*X5480Y-2955*X5428Y-2909*X5375Y-2818*
X6375Y-2576D02*X7125D01*X7698Y-2015D02*X7533Y-2061D01*X7428Y-2197*X7375Y-2439*
Y-2576*X7428Y-2818*X7533Y-2955*X7698Y-3000*X7803*X7960Y-2955*X8065Y-2818*
X8125Y-2576*Y-2439*X8065Y-2197*X7960Y-2061*X7803Y-2015*X7698*X8870D02*Y-3000D01*
Y-2015D02*X8375Y-2667D01*X9125*X10375Y-3000D02*Y-2000D01*X10855*X11013Y-2061*
X11065Y-2106*X11125Y-2197*Y-2288*X11065Y-2379*X11013Y-2439*X10855Y-2485*X10375*
X10743D02*X11125Y-3000D01*X12125Y-2000D02*X11375D01*Y-3000*X12125*
X11375Y-2485D02*X11833D01*X12375Y-2000D02*X12743Y-3000D01*X13125Y-2000*
X14510Y-2667D02*X14983D01*X14375Y-3000D02*X14743Y-2000D01*X15125Y-3000*
X16375D02*Y-2000D01*X16855*X17013Y-2061*X17065Y-2106*X17125Y-2197*Y-2333*
X17065Y-2439*X17013Y-2485*X16855Y-2530*X16375*X17375Y-2000D02*X17555Y-3000D01*
X17743Y-2379*X17930Y-3000*X18125Y-2000*X18375Y-2485D02*X18855D01*X19013Y-2530*
X19065Y-2576*X19125Y-2667*Y-2818*X19065Y-2909*X19013Y-2955*X18855Y-3000*X18375*
Y-2000*X18855*X19013Y-2061*X19065Y-2106*X19125Y-2197*Y-2288*X19065Y-2379*
X19013Y-2439*X18855Y-2485*X21125Y-2152D02*X21013Y-2061D01*X20855Y-2000*X20638*
X20480Y-2061*X20375Y-2152*Y-2242*X20428Y-2333*X20480Y-2379*X20585Y-2439*
X20908Y-2530*X21013Y-2576*X21065Y-2621*X21125Y-2712*Y-2864*X21013Y-2955*
X20855Y-3000*X20638*X20480Y-2955*X20375Y-2864*X21750Y-2000D02*Y-3000D01*
X21638Y-2000D02*X21863D01*X21638Y-3000D02*X21863D01*X22375Y-2000D02*Y-3000D01*
X23125*X23638Y-2439D02*X24125Y-3000D01*Y-2000D02*X23375Y-2667D01*Y-2000D02*
Y-3000D01*X25125Y-2152D02*X25013Y-2061D01*X24855Y-2000*X24638*X24480Y-2061*
X24375Y-2152*Y-2242*X24428Y-2333*X24480Y-2379*X24585Y-2439*X24908Y-2530*
X25013Y-2576*X25065Y-2621*X25125Y-2712*Y-2864*X25013Y-2955*X24855Y-3000*X24638*
X24480Y-2955*X24375Y-2864*X26125Y-2242D02*X26073Y-2152D01*X25968Y-2061*
X25870Y-2000*X25668*X25570Y-2061*X25473Y-2152*X25420Y-2242*X25375Y-2379*Y-2621*
X25420Y-2758*X25473Y-2864*X25570Y-2955*X25668Y-3000*X25870*X25968Y-2955*
X26073Y-2864*X26125Y-2758*X26375Y-3000D02*Y-2000D01*X26855*X27013Y-2061*
X27065Y-2106*X27125Y-2197*Y-2288*X27065Y-2379*X27013Y-2439*X26855Y-2485*X26375*
X26743D02*X27125Y-3000D01*X28125Y-2000D02*X27375D01*Y-3000*X28125*
X27375Y-2485D02*X27833D01*X29125Y-2000D02*X28375D01*Y-3000*X29125*
X28375Y-2485D02*X28833D01*X29375Y-3000D02*Y-2000D01*X30125Y-3000*Y-2000*
X31375D02*Y-3000D01*X32125*X32510Y-2667D02*X32983D01*X32375Y-3000D02*
X32743Y-2000D01*X33125Y-3000*X34125Y-2000D02*X33750Y-2485D01*X33375Y-2000D02*
X33750Y-2485D01*Y-3000*X35125Y-2000D02*X34375D01*Y-3000*X35125*X34375Y-2485D02*
X34833D01*X35375Y-3000D02*Y-2000D01*X35855*X36013Y-2061*X36065Y-2106*
X36125Y-2197*Y-2288*X36065Y-2379*X36013Y-2439*X35855Y-2485*X35375*X35743D02*
X36125Y-3000D01*X37668Y-2197D02*X37728Y-2152D01*X37818Y-2015*Y-3000*G54D18*
X6188Y17500D02*Y18000D01*X6563Y17500*Y18000*X7063D02*X6688D01*Y17500*X7063*
X6688Y17758D02*X6916D01*X7563Y18000D02*X7188Y17500D01*Y18000D02*X7563Y17500D01*
X7688Y18000D02*X8063D01*X7875D02*Y17500D01*X688Y7125D02*X313D01*Y6625*X688*
X313Y6883D02*X541D01*X1184Y7125D02*Y6746D01*X1146Y6670*X1109Y6648*X1038Y6625*
X959*X888Y6648*X850Y6670*X813Y6746*Y6792*X1688Y7125D02*X1313D01*Y6625*X1688*
X1313Y6883D02*X1541D01*X2188Y7004D02*X2161Y7049D01*X2109Y7095*X2060Y7125*X1959*
X1910Y7095*X1861Y7049*X1835Y7004*X1813Y6936*Y6814*X1835Y6746*X1861Y6693*
X1910Y6648*X1959Y6625*X2060*X2109Y6648*X2161Y6693*X2188Y6746*X2313Y7125D02*
X2688D01*X2500D02*Y6625D01*X6813D02*Y7125D01*X7053*X7131Y7095*X7158Y7072*
X7188Y7027*Y6958*X7158Y6905*X7131Y6883*X7053Y6860*X6813*X7313Y7125D02*Y6625D01*
X7688*X7880Y6792D02*X8116D01*X7813Y6625D02*X7996Y7125D01*X8188Y6625*
X8688Y7125D02*X8500Y6883D01*X8313Y7125D02*X8500Y6883D01*Y6625*X12938D02*
Y7125D01*X13178*X13256Y7095*X13283Y7072*X13313Y7027*Y6958*X13283Y6905*
X13256Y6883*X13178Y6860*X12938*X13505Y6792D02*X13741D01*X13438Y6625D02*
X13621Y7125D01*X13813Y6625*X13938Y7125D02*Y6769D01*X13964Y6693*X14016Y6648*
X14099Y6625*X14151*X14230Y6648*X14283Y6693*X14313Y6769*Y7125*X14813Y7049D02*
X14756Y7095D01*X14678Y7125*X14569*X14490Y7095*X14438Y7049*Y7004*X14464Y6958*
X14490Y6936*X14543Y6905*X14704Y6860*X14756Y6837*X14783Y6814*X14813Y6769*Y6693*
X14756Y6648*X14678Y6625*X14569*X14490Y6648*X14438Y6693*X15313Y7125D02*X14938D01*
Y6625*X15313*X14938Y6883D02*X15166D01*X19813Y7049D02*X19756Y7095D01*X19678Y7125*
X19569*X19490Y7095*X19438Y7049*Y7004*X19464Y6958*X19490Y6936*X19543Y6905*
X19704Y6860*X19756Y6837*X19783Y6814*X19813Y6769*Y6693*X19756Y6648*X19678Y6625*
X19569*X19490Y6648*X19438Y6693*X19938Y7125D02*X20313D01*X20125D02*Y6625D01*
X20576Y7125D02*X20531Y7095D01*X20483Y7049*X20460Y7004*X20438Y6936*Y6814*
X20460Y6746*X20483Y6693*X20531Y6648*X20576Y6625*X20670*X20715Y6648*X20764Y6693*
X20786Y6746*X20813Y6814*Y6936*X20786Y7004*X20764Y7049*X20715Y7095*X20670Y7125*
X20576*X20938Y6625D02*Y7125D01*X21178*X21256Y7095*X21283Y7072*X21313Y7027*Y6958*
X21283Y6905*X21256Y6883*X21178Y6860*X20938*X20313Y500D02*Y1000D01*X20553*
X20631Y970*X20658Y947*X20688Y902*Y856*X20658Y811*X20631Y780*X20553Y758*X20313*
X20496D02*X20688Y500D01*X21188Y1000D02*X20813D01*Y500*X21188*X20813Y758D02*
X21041D01*X21688Y879D02*X21661Y924D01*X21609Y970*X21560Y1000*X21459*X21410Y970*
X21361Y924*X21335Y879*X21313Y811*Y689*X21335Y621*X21361Y568*X21410Y523*
X21459Y500*X21560*X21609Y523*X21661Y568*X21688Y621*X21951Y1000D02*X21906Y970D01*
X21858Y924*X21835Y879*X21813Y811*Y689*X21835Y621*X21858Y568*X21906Y523*
X21951Y500*X22045*X22090Y523*X22139Y568*X22161Y621*X22188Y689*Y811*X22161Y879*
X22139Y924*X22090Y970*X22045Y1000*X21951*X22313Y500D02*Y1000D01*X22553*
X22631Y970*X22658Y947*X22688Y902*Y856*X22658Y811*X22631Y780*X22553Y758*X22313*
X22496D02*X22688Y500D01*X22813Y1000D02*X23000D01*X23079Y970*X23131Y924*
X23158Y879*X23188Y811*Y689*X23158Y621*X23131Y568*X23079Y523*X23000Y500*X22813*
Y1000*X6188Y625D02*Y1125D01*X6428*X6506Y1095*X6533Y1072*X6563Y1027*Y958*
X6533Y905*X6506Y883*X6428Y860*X6188*X6688Y625D02*Y1125D01*X6928*X7006Y1095*
X7033Y1072*X7063Y1027*Y981*X7033Y936*X7006Y905*X6928Y883*X6688*X6871D02*
X7063Y625D01*X7563Y1125D02*X7188D01*Y625*X7563*X7188Y883D02*X7416D01*
X7688Y1125D02*X7871Y625D01*X8063Y1125*X9519Y1127D02*X9560Y1161D01*X9621Y1264*
Y525*X10215Y1264D02*X10103Y1230D01*X10032Y1127*X9997Y945*Y843*X10032Y661*
X10103Y559*X10215Y525*X10285*X10392Y559*X10463Y661*X10503Y843*Y945*X10463Y1127*
X10392Y1230*X10285Y1264*X10215*X10890D02*X10778Y1230D01*X10707Y1127*X10672Y945*
Y843*X10707Y661*X10778Y559*X10890Y525*X10960*X11067Y559*X11138Y661*X11178Y843*
Y945*X11138Y1127*X11067Y1230*X10960Y1264*X10890*X11347Y843D02*X11853D01*
X12240Y1264D02*X12128Y1230D01*X12057Y1127*X12022Y945*Y843*X12057Y661*X12128Y559*
X12240Y525*X12310*X12417Y559*X12488Y661*X12528Y843*Y945*X12488Y1127*X12417Y1230*
X12310Y1264*X12240*X12915D02*X12803Y1230D01*X12732Y1127*X12697Y945*Y843*
X12732Y661*X12803Y559*X12915Y525*X12985*X13092Y559*X13163Y661*X13203Y843*Y945*
X13163Y1127*X13092Y1230*X12985Y1264*X12915*X13407Y1093D02*Y1127D01*X13443Y1195*
X13478Y1230*X13549Y1275*X13696*X13767Y1230*X13802Y1195*X13838Y1127*Y1059*
X13802Y991*X13731Y877*X13372Y525*X13878*X14118Y1264D02*X14513D01*X14295Y980*
X14406*X14477Y945*X14513Y911*X14553Y809*Y730*X14513Y627*X14442Y559*X14335Y525*
X14224*X14118Y559*X14082Y593*X14047Y661*X14722Y843D02*X15228D01*X15615Y1264D02*
X15503Y1230D01*X15432Y1127*X15397Y945*Y843*X15432Y661*X15503Y559*X15615Y525*
X15685*X15792Y559*X15863Y661*X15903Y843*Y945*X15863Y1127*X15792Y1230*
X15685Y1264*X15615*X16406D02*Y525D01*Y1264D02*X16072Y775D01*X16578*
X4938Y12750D02*X4563D01*Y12250*Y12508D02*X4791D01*X5063Y12750D02*Y12394D01*
X5089Y12318*X5141Y12273*X5224Y12250*X5276*X5355Y12273*X5408Y12318*X5438Y12394*
Y12750*X5563D02*Y12250D01*X5938*X6063Y12750D02*Y12250D01*X6438*X6563D02*
Y12750D01*X6803*X6881Y12720*X6908Y12697*X6938Y12652*Y12583*X6908Y12530*
X6881Y12508*X6803Y12485*X6563*X7063Y12750D02*Y12250D01*X7438*X7630Y12417D02*
X7866D01*X7563Y12250D02*X7746Y12750D01*X7938Y12250*X8438Y12750D02*
X8250Y12508D01*X8063Y12750D02*X8250Y12508D01*Y12250*X9063D02*Y12750D01*
X9250Y12250*X9438Y12750*Y12250*X9938Y12750D02*X9563D01*Y12250*X9938*
X9563Y12508D02*X9791D01*X10063Y12750D02*X10250D01*X10329Y12720*X10381Y12674*
X10408Y12629*X10438Y12561*Y12439*X10408Y12371*X10381Y12318*X10329Y12273*
X10250Y12250*X10063*Y12750*X10750D02*Y12250D01*X10694Y12750D02*X10806D01*
X10694Y12250D02*X10806D01*X11130Y12417D02*X11366D01*X11063Y12250D02*
X11246Y12750D01*X11438Y12250*X12438Y12674D02*X12381Y12720D01*X12303Y12750*
X12194*X12115Y12720*X12063Y12674*Y12629*X12089Y12583*X12115Y12561*X12168Y12530*
X12329Y12485*X12381Y12462*X12408Y12439*X12438Y12394*Y12318*X12381Y12273*
X12303Y12250*X12194*X12115Y12273*X12063Y12318*X12938Y12750D02*X12750Y12508D01*
X12563Y12750D02*X12750Y12508D01*Y12250*X13438Y12674D02*X13381Y12720D01*
X13303Y12750*X13194*X13115Y12720*X13063Y12674*Y12629*X13089Y12583*X13115Y12561*
X13168Y12530*X13329Y12485*X13381Y12462*X13408Y12439*X13438Y12394*Y12318*
X13381Y12273*X13303Y12250*X13194*X13115Y12273*X13063Y12318*X13563Y12750D02*
X13938D01*X13750D02*Y12250D01*X14438Y12750D02*X14063D01*Y12250*X14438*
X14063Y12508D02*X14291D01*X14563Y12250D02*Y12750D01*X14750Y12250*X14938Y12750*
Y12250*X15438Y12674D02*X15381Y12720D01*X15303Y12750*X15194*X15115Y12720*
X15063Y12674*Y12629*X15089Y12583*X15115Y12561*X15168Y12530*X15329Y12485*
X15381Y12462*X15408Y12439*X15438Y12394*Y12318*X15381Y12273*X15303Y12250*X15194*
X15115Y12273*X15063Y12318*X15761Y12273D02*X15746Y12250D01*X15731Y12273*
X15746Y12295*X15761Y12273*Y12227*X15746Y12182*X15731Y12159*X16750Y12750D02*
Y12250D01*X16694Y12750D02*X16806D01*X16694Y12250D02*X16806D01*X17063D02*
Y12750D01*X17438Y12250*Y12750*X17938Y12629D02*X17911Y12674D01*X17859Y12720*
X17810Y12750*X17709*X17660Y12720*X17611Y12674*X17585Y12629*X17563Y12561*Y12439*
X17585Y12371*X17611Y12318*X17660Y12273*X17709Y12250*X17810*X17859Y12273*
X17911Y12318*X17938Y12371*X18246Y12295D02*X18231Y12273D01*X18246Y12250*
X18261Y12273*X18246Y12295*X19089Y12629D02*Y12652D01*X19115Y12697*X19141Y12720*
X19194Y12750*X19303*X19355Y12720*X19381Y12697*X19408Y12652*Y12606*X19381Y12561*
X19329Y12485*X19063Y12250*X19438*X19724Y12742D02*X19641Y12720D01*X19589Y12652*
X19563Y12530*Y12462*X19589Y12341*X19641Y12273*X19724Y12250*X19776*X19855Y12273*
X19908Y12341*X19938Y12462*Y12530*X19908Y12652*X19855Y12720*X19776Y12742*X19724*
X20224D02*X20141Y12720D01*X20089Y12652*X20063Y12530*Y12462*X20089Y12341*
X20141Y12273*X20224Y12250*X20276*X20355Y12273*X20408Y12341*X20438Y12462*Y12530*
X20408Y12652*X20355Y12720*X20276Y12742*X20224*X20589Y12629D02*Y12652D01*
X20615Y12697*X20641Y12720*X20694Y12750*X20803*X20855Y12720*X20881Y12697*
X20908Y12652*Y12606*X20881Y12561*X20829Y12485*X20563Y12250*X20938*M02*
