%MOIN*%
%FSLAN2X24Y24*%
%ADD10C,0.0240000*%
%ADD11C,0.0010000*%
%ADD12C,0.0020000*%
%ADD13C,0.0030000*%
%ADD14C,0.0050000*%
%ADD15C,0.0060000*%
%ADD16C,0.0065000*%
%ADD17C,0.0079921*%
%ADD18C,0.0080000*%
%ADD19C,0.0085000*%
%ADD20C,0.0100000*%
%ADD21C,0.0110000*%
%ADD22C,0.0112000*%
%ADD23C,0.0135000*%
%ADD24C,0.0140000*%
%ADD25C,0.0150000*%
%ADD26C,0.0156000*%
%ADD27C,0.0187000*%
%ADD28C,0.0200000*%
%ADD29C,0.0250000*%
%ADD30C,845.4660028*%
%ADD31R,0.0100000X0.0100000*%
%ADD32R,0.0200000X0.0200000*%
%ADD33R,0.0250000X0.0250000*%
%ADD34C,0.0500000*%
%ADD35C,0.0840000*%
%ADD36C,0.0900000*%
%ADD37C,0.1500000*%
%ADD38C,0.1750000*%
%ADD39C,0.1850000*%
%ADD40R,0.0358268X0.0358268*%
%ADD41R,0.0433071X0.0393701*%
%ADD42R,0.0438268X0.0438268*%
%ADD43R,0.0513071X0.0473701*%
%ADD44R,0.0390000X0.0590000*%
%ADD45R,0.0511811X0.0590551*%
%ADD46R,0.0320000X0.0630000*%
%ADD47R,0.0591811X0.0670551*%
%ADD48R,0.0490000X0.0690000*%
%ADD49R,0.0420000X0.0730000*%
%ADD50R,0.0550000X0.1050000*%
%ADD51R,0.0650000X0.1150000*%
%ADD52R,0.0830000X0.1180000*%
%ADD53R,0.0930000X0.1280000*%
G90*G70*G01*D02*G54D45*X17375Y5950D03*Y5000D03*G54D46*X15581Y9291D03*X13612D03*
X14104D03*G54D52*X17077Y10433D03*X9656D03*G54D46*X10659Y9291D03*X11152D03*
X11644D03*G54D41*X14585Y3750D03*Y2250D03*G54D45*X15627D03*Y3750D03*G54D46*
X16073Y9291D03*G54D40*X17317Y4124D03*Y2624D03*G54D46*X12628Y9291D03*G54D45*
X12127Y2250D03*Y3750D03*G54D46*X13120Y9291D03*X12136D03*G54D41*X13915Y2250D03*
G54D45*X12875D03*G54D41*X13915Y3750D03*G54D45*X12875D03*G54D40*X18183D03*
Y2250D03*G54D45*X18123Y5000D03*Y5950D03*G54D40*X17317Y3376D03*G54D45*
X16375Y3750D03*G54D46*X14596Y9291D03*G54D45*X16375Y2250D03*G54D40*
X17317Y1876D03*G54D46*X15089Y9291D03*G54D20*X37375Y-4000D02*X38125D01*Y-5000*
Y-4485D02*X37668D01*X37125Y-4000D02*Y-4712D01*X37073Y-4864*X36968Y-4955*
X36803Y-5000*X36698*X36540Y-4955*X36435Y-4864*X36375Y-4712*Y-4000*X36125D02*
Y-5000D01*X35375*X35125Y-4000D02*Y-5000D01*X34375*X34125D02*Y-4000D01*X33645*
X33488Y-4061*X33435Y-4106*X33375Y-4197*Y-4333*X33435Y-4439*X33488Y-4485*
X33645Y-4530*X34125*X33125Y-4000D02*Y-5000D01*X32375*X31990Y-4667D02*X31518D01*
X32125Y-5000D02*X31758Y-4000D01*X31375Y-5000*X30375Y-4000D02*X30750Y-4485D01*
X31125Y-4000D02*X30750Y-4485D01*Y-5000*X29073Y-4242D02*Y-4197D01*X29020Y-4106*
X28968Y-4061*X28863Y-4000*X28645*X28540Y-4061*X28488Y-4106*X28435Y-4197*Y-4288*
X28488Y-4379*X28593Y-4530*X29125Y-5000*X28375*X27803Y-4015D02*X27968Y-4061D01*
X28073Y-4197*X28125Y-4439*Y-4576*X28073Y-4818*X27968Y-4955*X27803Y-5000*X27698*
X27540Y-4955*X27435Y-4818*X27375Y-4576*Y-4439*X27435Y-4197*X27540Y-4061*
X27698Y-4015*X27803*X26803D02*X26968Y-4061D01*X27073Y-4197*X27125Y-4439*Y-4576*
X27073Y-4818*X26968Y-4955*X26803Y-5000*X26698*X26540Y-4955*X26435Y-4818*
X26375Y-4576*Y-4439*X26435Y-4197*X26540Y-4061*X26698Y-4015*X26803*
X26125Y-4576D02*X25375D01*X24803Y-4015D02*X24968Y-4061D01*X25073Y-4197*
X25125Y-4439*Y-4576*X25073Y-4818*X24968Y-4955*X24803Y-5000*X24698*X24540Y-4955*
X24435Y-4818*X24375Y-4576*Y-4439*X24435Y-4197*X24540Y-4061*X24698Y-4015*X24803*
X23803D02*X23968Y-4061D01*X24073Y-4197*X24125Y-4439*Y-4576*X24073Y-4818*
X23968Y-4955*X23803Y-5000*X23698*X23540Y-4955*X23435Y-4818*X23375Y-4576*Y-4439*
X23435Y-4197*X23540Y-4061*X23698Y-4015*X23803*X23073Y-4242D02*Y-4197D01*
X23020Y-4106*X22968Y-4061*X22863Y-4000*X22645*X22540Y-4061*X22488Y-4106*
X22435Y-4197*Y-4288*X22488Y-4379*X22593Y-4530*X23125Y-5000*X22375*
X22020Y-4015D02*X21435D01*X21758Y-4394*X21593*X21488Y-4439*X21435Y-4485*
X21375Y-4621*Y-4727*X21435Y-4864*X21540Y-4955*X21698Y-5000*X21863*X22020Y-4955*
X22073Y-4909*X22125Y-4818*X21125Y-4576D02*X20375D01*X19803Y-4015D02*
X19968Y-4061D01*X20073Y-4197*X20125Y-4439*Y-4576*X20073Y-4818*X19968Y-4955*
X19803Y-5000*X19698*X19540Y-4955*X19435Y-4818*X19375Y-4576*Y-4439*X19435Y-4197*
X19540Y-4061*X19698Y-4015*X19803*X18630D02*Y-5000D01*Y-4015D02*X19125Y-4667D01*
X18375*X17125Y-5000D02*Y-4000D01*X16645*X16488Y-4061*X16435Y-4106*X16375Y-4197*
Y-4288*X16435Y-4379*X16488Y-4439*X16645Y-4485*X17125*X16758D02*X16375Y-5000D01*
X15375Y-4000D02*X16125D01*Y-5000*X15375*X16125Y-4485D02*X15668D01*
X15125Y-4000D02*X14758Y-5000D01*X14375Y-4000*X12990Y-4667D02*X12518D01*
X13125Y-5000D02*X12758Y-4000D01*X12375Y-5000*X11125D02*Y-4000D01*X10645*
X10488Y-4061*X10435Y-4106*X10375Y-4197*Y-4333*X10435Y-4439*X10488Y-4485*
X10645Y-4530*X11125*X10125Y-4000D02*X9945Y-5000D01*X9758Y-4379*X9570Y-5000*
X9375Y-4000*X9125Y-4485D02*X8645D01*X8488Y-4530*X8435Y-4576*X8375Y-4667*Y-4818*
X8435Y-4909*X8488Y-4955*X8645Y-5000*X9125*Y-4000*X8645*X8488Y-4061*X8435Y-4106*
X8375Y-4197*Y-4288*X8435Y-4379*X8488Y-4439*X8645Y-4485*X6375Y-4152D02*
X6488Y-4061D01*X6645Y-4000*X6863*X7020Y-4061*X7125Y-4152*Y-4242*X7073Y-4333*
X7020Y-4379*X6915Y-4439*X6593Y-4530*X6488Y-4576*X6435Y-4621*X6375Y-4712*Y-4864*
X6488Y-4955*X6645Y-5000*X6863*X7020Y-4955*X7125Y-4864*X5848Y-4000D02*
X5938Y-4061D01*X6035Y-4152*X6080Y-4242*X6125Y-4379*Y-4621*X6080Y-4758*
X6035Y-4864*X5938Y-4955*X5848Y-5000*X5660*X5570Y-4955*X5473Y-4864*X5428Y-4758*
X5375Y-4621*Y-4379*X5428Y-4242*X5473Y-4152*X5570Y-4061*X5660Y-4000*X5848*
X5125D02*Y-5000D01*X4375*X4125Y-4000D02*X3750D01*X3593Y-4061*X3488Y-4152*
X3435Y-4242*X3375Y-4379*Y-4621*X3435Y-4758*X3488Y-4864*X3593Y-4955*X3750Y-5000*
X4125*Y-4000*X2375D02*X3125D01*Y-5000*X2375*X3125Y-4485D02*X2668D01*
X2125Y-5000D02*Y-4000D01*X1645*X1488Y-4061*X1435Y-4106*X1375Y-4197*Y-4288*
X1435Y-4379*X1488Y-4439*X1645Y-4485*X2125*X1758D02*X1375Y-5000D01*X1125D02*
Y-4000D01*X645*X488Y-4061*X435Y-4106*X375Y-4197*Y-4333*X435Y-4439*X488Y-4485*
X645Y-4530*X1125*X-10Y-4667D02*X-482D01*X125Y-5000D02*X-242Y-4000D01*
X-625Y-5000*X-1625Y-4152D02*X-1512Y-4061D01*X-1355Y-4000*X-1137*X-980Y-4061*
X-875Y-4152*Y-4242*X-927Y-4333*X-980Y-4379*X-1085Y-4439*X-1407Y-4530*
X-1512Y-4576*X-1565Y-4621*X-1625Y-4712*Y-4864*X-1512Y-4955*X-1355Y-5000*X-1137*
X-980Y-4955*X-875Y-4864*X-1875Y-4000D02*X-2625D01*X-2250D02*Y-5000D01*
X-3625Y-4000D02*X-2875D01*Y-5000*X-3625*X-2875Y-4485D02*X-3332D01*X-4875D02*
X-5355D01*X-5512Y-4530*X-5565Y-4576*X-5625Y-4667*Y-4818*X-5565Y-4909*
X-5512Y-4955*X-5355Y-5000*X-4875*Y-4000*X-5355*X-5512Y-4061*X-5565Y-4106*
X-5625Y-4197*Y-4288*X-5565Y-4379*X-5512Y-4439*X-5355Y-4485*X-6152Y-4000D02*
X-6062Y-4061D01*X-5965Y-4152*X-5920Y-4242*X-5875Y-4379*Y-4621*X-5920Y-4758*
X-5965Y-4864*X-6062Y-4955*X-6152Y-5000*X-6340*X-6430Y-4955*X-6527Y-4864*
X-6572Y-4758*X-6625Y-4621*Y-4379*X-6572Y-4242*X-6527Y-4152*X-6430Y-4061*
X-6340Y-4000*X-6152*X-6875D02*X-7625D01*X-7250D02*Y-5000D01*X-7875Y-4000D02*
X-8625D01*X-8250D02*Y-5000D01*X-9152Y-4000D02*X-9062Y-4061D01*X-8965Y-4152*
X-8920Y-4242*X-8875Y-4379*Y-4621*X-8920Y-4758*X-8965Y-4864*X-9062Y-4955*
X-9152Y-5000*X-9340*X-9430Y-4955*X-9527Y-4864*X-9572Y-4758*X-9625Y-4621*Y-4379*
X-9572Y-4242*X-9527Y-4152*X-9430Y-4061*X-9340Y-4000*X-9152*X-9875Y-5000D02*
Y-4000D01*X-10250Y-5000*X-10625Y-4000*Y-5000*M02*
