%MOIN*%
%FSLAN2X24Y24*%
%ADD10C,0.0240000*%
%ADD11C,0.0010000*%
%ADD12C,0.0020000*%
%ADD13C,0.0030000*%
%ADD14C,0.0050000*%
%ADD15C,0.0060000*%
%ADD16C,0.0065000*%
%ADD17C,0.0079921*%
%ADD18C,0.0080000*%
%ADD19C,0.0085000*%
%ADD20C,0.0100000*%
%ADD21C,0.0110000*%
%ADD22C,0.0112000*%
%ADD23C,0.0135000*%
%ADD24C,0.0140000*%
%ADD25C,0.0150000*%
%ADD26C,0.0156000*%
%ADD27C,0.0187000*%
%ADD28C,0.0200000*%
%ADD29C,0.0250000*%
%ADD30C,845.4660028*%
%ADD31R,0.0100000X0.0100000*%
%ADD32R,0.0200000X0.0200000*%
%ADD33R,0.0250000X0.0250000*%
%ADD34C,0.0500000*%
%ADD35C,0.0840000*%
%ADD36C,0.0900000*%
%ADD37C,0.1500000*%
%ADD38C,0.1750000*%
%ADD39C,0.1850000*%
%ADD40R,0.0358268X0.0358268*%
%ADD41R,0.0433071X0.0393701*%
%ADD42R,0.0438268X0.0438268*%
%ADD43R,0.0513071X0.0473701*%
%ADD44R,0.0390000X0.0590000*%
%ADD45R,0.0511811X0.0590551*%
%ADD46R,0.0320000X0.0630000*%
%ADD47R,0.0591811X0.0670551*%
%ADD48R,0.0490000X0.0690000*%
%ADD49R,0.0420000X0.0730000*%
%ADD50R,0.0550000X0.1050000*%
%ADD51R,0.0650000X0.1150000*%
%ADD52R,0.0830000X0.1180000*%
%ADD53R,0.0930000X0.1280000*%
G90*G70*G01*D02*G54D50*X8576Y7927D03*X6976D03*X7891Y1825D03*X6291D03*
X14875Y7927D03*X13275D03*X22591Y1825D03*X20991D03*X2276Y7927D03*X676D03*
X7891Y14029D03*X6291D03*X21174Y7927D03*X19574D03*X14875Y10577D03*X21174D03*
X22591Y4475D03*X8576Y10577D03*X2276D03*X7891Y4475D03*Y16679D03*X1476Y10577D03*
X7091Y16679D03*Y4475D03*X7776Y10577D03*X20374D03*X14075D03*X21791Y4475D03*
X6291Y16679D03*X676Y10577D03*X6291Y4475D03*X6976Y10577D03*X19574D03*X13275D03*
X20991Y4475D03*G54D44*X19414Y2461D03*X19965D03*X19414Y3839D03*X19965D03*G54D20*
X-8375Y-4000D02*X-9125D01*Y-5000*Y-4485D02*X-8667D01*X-8125Y-4000D02*Y-4712D01*
X-8072Y-4864*X-7967Y-4955*X-7802Y-5000*X-7697*X-7540Y-4955*X-7435Y-4864*
X-7375Y-4712*Y-4000*X-7125D02*Y-5000D01*X-6375*X-6125Y-4000D02*Y-5000D01*X-5375*
X-5125D02*Y-4000D01*X-4645*X-4487Y-4061*X-4435Y-4106*X-4375Y-4197*Y-4333*
X-4435Y-4439*X-4487Y-4485*X-4645Y-4530*X-5125*X-4125Y-4000D02*Y-5000D01*X-3375*
X-2990Y-4667D02*X-2517D01*X-3125Y-5000D02*X-2757Y-4000D01*X-2375Y-5000*
X-1375Y-4000D02*X-1750Y-4485D01*X-2125Y-4000D02*X-1750Y-4485D01*Y-5000*
X-72Y-4242D02*Y-4197D01*X-20Y-4106*X33Y-4061*X138Y-4000*X355*X460Y-4061*
X513Y-4106*X565Y-4197*Y-4288*X513Y-4379*X408Y-4530*X-125Y-5000*X625*
X1198Y-4015D02*X1033Y-4061D01*X928Y-4197*X875Y-4439*Y-4576*X928Y-4818*
X1033Y-4955*X1198Y-5000*X1303*X1460Y-4955*X1565Y-4818*X1625Y-4576*Y-4439*
X1565Y-4197*X1460Y-4061*X1303Y-4015*X1198*X2198D02*X2033Y-4061D01*X1928Y-4197*
X1875Y-4439*Y-4576*X1928Y-4818*X2033Y-4955*X2198Y-5000*X2303*X2460Y-4955*
X2565Y-4818*X2625Y-4576*Y-4439*X2565Y-4197*X2460Y-4061*X2303Y-4015*X2198*
X2875Y-4576D02*X3625D01*X4198Y-4015D02*X4033Y-4061D01*X3928Y-4197*X3875Y-4439*
Y-4576*X3928Y-4818*X4033Y-4955*X4198Y-5000*X4303*X4460Y-4955*X4565Y-4818*
X4625Y-4576*Y-4439*X4565Y-4197*X4460Y-4061*X4303Y-4015*X4198*X5198D02*
X5033Y-4061D01*X4928Y-4197*X4875Y-4439*Y-4576*X4928Y-4818*X5033Y-4955*
X5198Y-5000*X5303*X5460Y-4955*X5565Y-4818*X5625Y-4576*Y-4439*X5565Y-4197*
X5460Y-4061*X5303Y-4015*X5198*X5928Y-4242D02*Y-4197D01*X5980Y-4106*X6033Y-4061*
X6138Y-4000*X6355*X6460Y-4061*X6513Y-4106*X6565Y-4197*Y-4288*X6513Y-4379*
X6408Y-4530*X5875Y-5000*X6625*X6980Y-4015D02*X7565D01*X7243Y-4394*X7408*
X7513Y-4439*X7565Y-4485*X7625Y-4621*Y-4727*X7565Y-4864*X7460Y-4955*X7303Y-5000*
X7138*X6980Y-4955*X6928Y-4909*X6875Y-4818*X7875Y-4576D02*X8625D01*
X9198Y-4015D02*X9033Y-4061D01*X8928Y-4197*X8875Y-4439*Y-4576*X8928Y-4818*
X9033Y-4955*X9198Y-5000*X9303*X9460Y-4955*X9565Y-4818*X9625Y-4576*Y-4439*
X9565Y-4197*X9460Y-4061*X9303Y-4015*X9198*X10370D02*Y-5000D01*Y-4015D02*
X9875Y-4667D01*X10625*X11875Y-5000D02*Y-4000D01*X12355*X12513Y-4061*
X12565Y-4106*X12625Y-4197*Y-4288*X12565Y-4379*X12513Y-4439*X12355Y-4485*X11875*
X12243D02*X12625Y-5000D01*X13625Y-4000D02*X12875D01*Y-5000*X13625*
X12875Y-4485D02*X13333D01*X13875Y-4000D02*X14243Y-5000D01*X14625Y-4000*
X16010Y-4667D02*X16483D01*X15875Y-5000D02*X16243Y-4000D01*X16625Y-5000*
X17875D02*Y-4000D01*X18355*X18513Y-4061*X18565Y-4106*X18625Y-4197*Y-4333*
X18565Y-4439*X18513Y-4485*X18355Y-4530*X17875*X18875Y-4000D02*X19055Y-5000D01*
X19243Y-4379*X19430Y-5000*X19625Y-4000*X19875Y-4485D02*X20355D01*X20513Y-4530*
X20565Y-4576*X20625Y-4667*Y-4818*X20565Y-4909*X20513Y-4955*X20355Y-5000*X19875*
Y-4000*X20355*X20513Y-4061*X20565Y-4106*X20625Y-4197*Y-4288*X20565Y-4379*
X20513Y-4439*X20355Y-4485*X22625Y-4152D02*X22513Y-4061D01*X22355Y-4000*X22138*
X21980Y-4061*X21875Y-4152*Y-4242*X21928Y-4333*X21980Y-4379*X22085Y-4439*
X22408Y-4530*X22513Y-4576*X22565Y-4621*X22625Y-4712*Y-4864*X22513Y-4955*
X22355Y-5000*X22138*X21980Y-4955*X21875Y-4864*X23153Y-4000D02*X23063Y-4061D01*
X22965Y-4152*X22920Y-4242*X22875Y-4379*Y-4621*X22920Y-4758*X22965Y-4864*
X23063Y-4955*X23153Y-5000*X23340*X23430Y-4955*X23528Y-4864*X23573Y-4758*
X23625Y-4621*Y-4379*X23573Y-4242*X23528Y-4152*X23430Y-4061*X23340Y-4000*X23153*
X23875D02*Y-5000D01*X24625*X24875Y-4000D02*X25250D01*X25408Y-4061*X25513Y-4152*
X25565Y-4242*X25625Y-4379*Y-4621*X25565Y-4758*X25513Y-4864*X25408Y-4955*
X25250Y-5000*X24875*Y-4000*X26625D02*X25875D01*Y-5000*X26625*X25875Y-4485D02*
X26333D01*X26875Y-5000D02*Y-4000D01*X27355*X27513Y-4061*X27565Y-4106*
X27625Y-4197*Y-4288*X27565Y-4379*X27513Y-4439*X27355Y-4485*X26875*X27243D02*
X27625Y-5000D01*X27875D02*Y-4000D01*X28355*X28513Y-4061*X28565Y-4106*
X28625Y-4197*Y-4333*X28565Y-4439*X28513Y-4485*X28355Y-4530*X27875*
X29010Y-4667D02*X29483D01*X28875Y-5000D02*X29243Y-4000D01*X29625Y-5000*
X30625Y-4152D02*X30513Y-4061D01*X30355Y-4000*X30138*X29980Y-4061*X29875Y-4152*
Y-4242*X29928Y-4333*X29980Y-4379*X30085Y-4439*X30408Y-4530*X30513Y-4576*
X30565Y-4621*X30625Y-4712*Y-4864*X30513Y-4955*X30355Y-5000*X30138*X29980Y-4955*
X29875Y-4864*X30875Y-4000D02*X31625D01*X31250D02*Y-5000D01*X32625Y-4000D02*
X31875D01*Y-5000*X32625*X31875Y-4485D02*X32333D01*X33875Y-4000D02*X34625D01*
X34250D02*Y-5000D01*X35153Y-4000D02*X35063Y-4061D01*X34965Y-4152*X34920Y-4242*
X34875Y-4379*Y-4621*X34920Y-4758*X34965Y-4864*X35063Y-4955*X35153Y-5000*X35340*
X35430Y-4955*X35528Y-4864*X35573Y-4758*X35625Y-4621*Y-4379*X35573Y-4242*
X35528Y-4152*X35430Y-4061*X35340Y-4000*X35153*X35875Y-5000D02*Y-4000D01*X36355*
X36513Y-4061*X36565Y-4106*X36625Y-4197*Y-4333*X36565Y-4439*X36513Y-4485*
X36355Y-4530*X35875*M02*
